<?xml version="1.0" encoding="UTF-8" standalone="no"?>
<!-- Created with Inkscape (http://www.inkscape.org/) -->

<svg
   xmlns:dc="http://purl.org/dc/elements/1.1/"
   xmlns:cc="http://creativecommons.org/ns#"
   xmlns:rdf="http://www.w3.org/1999/02/22-rdf-syntax-ns#"
   xmlns:svg="http://www.w3.org/2000/svg"
   xmlns="http://www.w3.org/2000/svg"
   xmlns:sodipodi="http://sodipodi.sourceforge.net/DTD/sodipodi-0.dtd"
   xmlns:inkscape="http://www.inkscape.org/namespaces/inkscape"
   width="1158"
   height="965"
   id="svg2"
   version="1.1"
   inkscape:version="0.48.1 r9760"
   sodipodi:docname="europe_working.svg">
  <defs
     id="defs4" />
  <sodipodi:namedview
     id="base"
     pagecolor="#ffffff"
     bordercolor="#666666"
     borderopacity="1.0"
     inkscape:pageopacity="0.0"
     inkscape:pageshadow="2"
     inkscape:zoom="0.81340817"
     inkscape:cx="577.58335"
     inkscape:cy="535.66445"
     inkscape:document-units="px"
     inkscape:current-layer="layer1"
     showgrid="false"
     inkscape:window-width="1908"
     inkscape:window-height="1025"
     inkscape:window-x="0"
     inkscape:window-y="25"
     inkscape:window-maximized="1"
     inkscape:snap-bbox="false"
     inkscape:object-paths="true"
     inkscape:snap-nodes="true"
     inkscape:object-nodes="false"
     inkscape:snap-smooth-nodes="false"
     inkscape:snap-intersection-paths="false" />
  <metadata
     id="metadata7">
    <rdf:RDF>
      <cc:Work
         rdf:about="">
        <dc:format>image/svg+xml</dc:format>
        <dc:type
           rdf:resource="http://purl.org/dc/dcmitype/StillImage" />
        <dc:title />
      </cc:Work>
    </rdf:RDF>
  </metadata>
  <g
     inkscape:label="Layer 1"
     inkscape:groupmode="layer"
     id="layer1"
     transform="translate(0,-87.362183)">
    <path
       id="path4008"
       style="fill:none;stroke:#000000;stroke-width:1.0013876px;stroke-linecap:butt;stroke-linejoin:miter;stroke-opacity:1"
       d="m 367.02655,475.79081 -15.09395,-0.22505 m -9.76485,66.67648 c 0,0 4.06996,-5.28137 5.32341,-8.32407 1.36245,-3.30729 2.43008,-6.91379 2.25976,-10.48367 -0.158,-3.31192 -3.15715,-6.17267 -3.01301,-9.48522 0.11352,-2.6089 2.02306,-4.81996 3.01301,-7.23873 1.18905,-2.90519 2.97267,-5.64666 3.5152,-8.7364 1.23848,-7.05322 2.48826,-15.07287 -0.75326,-21.46656 -2.11786,-4.17736 -8.17726,-5.02965 -11.04773,-8.73639 -3.17775,-4.10356 -5.16573,-9.16836 -6.27712,-14.22785 -1.0715,-4.87796 -0.25109,-13.22939 -0.25109,-14.97668 0,-1.74727 1.42599,-9.30728 2.00869,-13.97822 0.39359,-3.15504 0.46965,-6.35077 1.00434,-9.48522 0.97753,-5.73055 0.94357,-12.02929 4.01735,-16.97357 2.06196,-3.31674 7.78362,-6.98912 9.03906,-7.48834 1.25542,-0.49922 7.67902,-8.74257 7.67902,-8.74257 m -12.31704,166.66923 c 0,0 10.91351,1.20982 16.18791,0.0773 3.74663,-0.80451 10.45104,-4.76816 10.45104,-4.76816 m -32.2063,46.46505 c 0,0 -1.16749,-0.18796 -1.57623,-0.56662 -3.33417,-3.08888 -4.82787,-7.95045 -5.54326,-12.42503 -0.51506,-3.22153 -0.38667,-6.78048 1.00434,-9.73483 2.08251,-4.42304 8.29157,-6.02446 10.29448,-10.48367 1.539,-3.42641 2.04984,-7.70835 0.75325,-11.23251 -1.15893,-3.14996 -5.2961,-4.43633 -8.28579,-5.99067 -2.77997,-1.4453 -5.3637,-1.10994 -8.03472,-2.74573 -3.52065,-2.1561 -6.5282,-7.73794 -7.28145,-9.98444 -0.75326,-2.2465 3.1763,-11.39729 3.1763,-11.39729 m 55.41104,76.68557 7.53243,4.54157 m -161.48546,3.04026 c 0,0 10.48919,-8.92629 16.77615,-11.46575 5.57971,-2.25378 17.80889,-3.03154 17.80889,-3.03154 m 36.83993,-105.2646 32.52197,9.5825 m 32.61362,-199.62059 -14.33436,88.19447 m 32.40551,-4.37003 24.22351,-17.15476 m -35.83356,26.77155 5.72332,-4.53946 m 0.2273,-6.60607 c -1.38356,1.46254 -1.61588,4.23974 -0.62771,5.99068 0.47627,0.84389 1.25542,1.87209 2.63639,1.24806 1.38096,-0.62403 3.89182,-0.87364 3.76628,-2.49612 -0.12555,-1.62247 0.31245,-4.44538 -1.25543,-5.49145 -1.26817,-0.84609 -3.47321,-0.35721 -4.51953,0.74883 z m -50.9702,22.2154 c 0.2823,1.19139 -4.17007,12.22954 -2.25977,12.35577 0.50107,0.0331 -4.1429,0.24961 -4.89615,-0.37442 -0.75326,-0.62403 -3.89116,-2.36098 -3.89182,-3.12015 -0.002,-2.5064 -1.18161,-9.17165 0.8788,-9.23561 1.16234,-0.036 9.74594,-1.41072 10.16894,0.37441 z m 7.03037,-21.21695 c -3.23898,3.62143 -8.63872,12.17176 -7.78363,12.48056 0.48652,0.1757 -9.03905,0.87364 -8.41134,0.49923 0.62771,-0.37442 1.63205,-4.49301 1.88313,-5.36665 0.25109,-0.87363 8.41135,-7.86275 9.29014,-7.98756 0.8788,-0.1248 6.13707,-0.87266 5.0217,0.37442 z m 49.31174,218.25146 c -2.9506,5.87229 -13.45558,4.44726 -20.05352,4.19322 -4.00213,-0.15409 -12.16413,-3.01375 -16.00787,-4.13265 -4.32548,-1.25915 -12.31362,-5.56074 -14.77029,-1.80418 -1.27495,1.94956 6.33807,9.2213 -0.2043,7.4345 -3.78679,-1.03422 -0.6795,-7.20905 -5.30108,-6.14729 -2.66244,0.61167 -3.77487,-0.98327 -6.40943,-1.70444 -3.92993,-1.0758 -10.63477,-4.29661 -12.7653,-4.29661 -2.13052,0 -4.29363,-1.60305 -8.33193,1.8219 -1.54921,1.31392 -3.27825,6.81414 -4.34351,5.40213 -1.06527,-1.41203 -3.52947,-5.1258 -6.14419,-6.51804 -3.56132,-1.89624 -9.64213,-1.58279 -13.32841,0.0606 -2.52129,1.12401 -2.0186,6.58272 -4.78105,6.64651 -1.28902,0.0298 0.32203,-3.54662 -0.95595,-4.33197 -1.96685,-1.20867 -6.5848,-0.0511 -6.50089,-2.02209 0.15419,-3.62161 5.51505,-4.95123 8.87718,-6.35406 3.21175,-1.34009 6.74313,-1.38519 9.66983,-3.2627 3.72387,-2.38888 6.30911,-9.09244 8.08455,-9.44544 1.77544,-0.353 7.00661,-2.5133 10.65262,-2.47102 3.78919,0.0439 7.45684,3.53003 11.00772,2.82402 3.55087,-0.706 15.97894,-6.35405 15.97894,-6.35405 0.79759,-0.9062 -6.26641,-2.74908 -15.97894,0.353 -2.36916,0.75669 -1.77544,-4.94206 -3.19578,-6.70708 -1.42037,-1.76501 -6.59714,-4.9188 -11.19419,-6.2684 -1.92977,-0.56655 -6.53866,0.78798 -6.53866,-0.62403 0,-1.41202 -2.74572,-7.54034 -0.73171,-9.69873 4.5911,-4.92023 14.79825,3.26566 20.23999,-0.70601 1.72003,-1.25537 2.0972,-3.88004 2.13052,-6.00106 0.0427,-2.71624 -1.06526,-7.76608 -2.48561,-7.76608 -1.42034,0 -10.9297,-0.69236 -3.90597,-5.64806 1.63806,-1.15575 5.45556,-0.59894 7.94117,-1.30495 2.48561,-0.70601 7.35016,-7.98677 11.58865,-5.75513 1.98462,1.04494 0.39377,3.31617 2.13053,4.7316 1.47595,1.20289 3.90596,1.7222 5.68139,-0.0428 1.77544,-1.765 0.3514,-2.03236 1.77174,-4.50339 1.42035,-2.47102 6.39528,-6.89244 6.39528,-8.30445 0,-1.41202 -1.55148,-4.74613 -2.48561,-7.06007 -1.06535,-2.63899 -6.05339,-4.06058 -6.31282,-6.89245 -0.26558,-2.89894 3.11702,-9.34573 4.89245,-9.34573 1.77545,0 3.5886,-4.13623 2.48563,-6.00105 -1.02693,-1.73626 -4.01192,-0.78263 -6.03649,-0.706 -5.54389,0.20982 -16.96174,4.15038 -16.96174,1.67935 0,-2.47102 -0.43755,-4.50339 0.62771,-6.62141 1.06526,-2.11802 3.55088,-6.35407 4.97122,-7.06008 1.42037,-0.70599 5.41862,-2.4392 6.39158,-4.94203 0.99607,-2.56231 -1.14029,-5.38626 -1.42034,-8.1191 -0.33456,-3.26469 0.92242,-6.96821 -3.19579,-9.17809 -2.09613,-1.1248 -3.19579,-4.94205 -3.19579,-6.35406 0,-1.41202 5.52701,-3.75018 6.03649,-6.70708 0.36739,-2.13223 -1.06526,-4.23604 -2.48562,-6.00104 -1.42034,-1.76503 -4.99276,-2.3034 -3.9275,-4.42142 1.06526,-2.11803 7.21517,-0.78326 7.48208,-2.8846 0.25608,-2.01607 2.94705,-9.91493 4.96752,-11.05018 1.07152,-0.60205 -0.97495,-6.76852 0.44875,-7.47559 6.85851,-3.40627 6.26118,-5.30294 6.03269,-7.50046 -0.26329,-2.53204 4.1355,1.25174 6.26602,-0.86629 2.13053,-2.11801 -0.64619,-6.37153 2.85116,-7.12431 3.40427,-0.73274 7.41745,2.32848 11.6785,3.38749 4.26105,1.05902 8.17464,-2.4047 10.87848,1.18015 1.56374,2.07328 4.3472,7.4773 1.15142,8.88932 -1.538,0.67956 -6.03053,-0.24323 -7.8433,1.19034 -1.95394,1.5452 -1.09753,3.34392 -4.00014,3.10628 -6.37514,-0.52195 -12.45124,0.55002 -6.61741,7.06374 1.08243,1.20859 -3.55044,-0.51265 -5.71906,1.08511 -2.29429,1.69037 -2.12894,4.92528 -0.48606,6.01411 3.19579,2.11802 4.65922,1.07676 7.14483,0.37075 2.48561,-0.706 6.97621,-1.90757 8.75164,-1.90757 1.77544,0 2.8407,1.05902 7.45685,3.17703 4.61613,2.11803 8.167,1.41203 9.58735,2.82404 1.42035,1.41202 2.48562,2.11802 1.42035,4.23604 -1.06526,2.11802 0.71019,1.76502 -3.55087,5.64806 -4.26105,3.88304 -4.61614,4.23604 -4.97122,6.35406 -0.35509,2.11803 -1.06526,3.88304 -5.68139,6.35407 -4.61615,2.47102 -9.7523,2.26423 -9.7523,5.08827 0,2.82403 -1.25542,5.48409 0.16492,7.60212 1.42036,2.11801 1.50281,2.34621 4.34351,5.17025 2.8407,2.82403 4.69861,4.02559 4.69861,6.8496 0,2.82404 1.61052,12.00214 1.61052,13.76715 0,1.76502 -2.06961,9.55251 -1.71453,12.72954 0.35509,3.17704 1.35943,8.09767 4.20013,8.80367 2.8407,0.70602 5.6814,0 7.45683,2.82404 1.77544,2.82403 2.06591,6.22925 1.71082,10.8183 -0.35509,4.58905 4.02863,12.15645 -0.22955,10.65068 -4.83424,-1.70949 -4.67705,0.77025 -2.90161,6.4183 1.77544,5.64806 4.49059,4.6747 2.71515,8.91074 -1.77543,4.23605 -6.62111,6.62143 -5.20077,8.03344 1.42036,1.412 4.46838,0.31569 6.97621,0.34932 3.1066,0.0416 3.58841,-2.26306 6.61743,-1.57596 3.02022,0.6851 7.04082,3.24127 7.75099,7.47731 0.71018,4.23604 0.14339,7.72325 -1.63205,11.25329 -1.77544,3.53004 -4.54593,4.31595 -7.4999,7.40939 -0.71611,0.74992 1.2971,7.43212 -1.699,7.06403 -1.44368,-0.17738 -0.8132,-5.68462 -2.44696,-6.09066 -2.84071,-0.706 -9.67972,9.93021 -8.35718,11.51391 6.33317,7.58392 1.71082,2.13577 3.84134,3.54777 2.13052,1.41202 5.46671,3.81618 4.49429,5.75146 z M 211.75748,518.92576 c 0,0 -12.65189,7.05433 -17.30154,12.40165 -2.1811,2.50837 -4.61614,6.35406 -4.61614,8.82509 0,2.47102 -6.02127,30.66599 -6.02127,30.66599 m 71.35737,-47.25717 c -6.0261,0.70539 -15.62385,6.35407 -17.0442,6.35407 -1.42035,0 -10.87988,1.51446 -14.91367,-1.41202 -2.18444,-1.58477 0.35509,-7.06007 -3.19579,-7.41307 -3.55088,-0.353 -5.45114,0.99722 -7.10176,-0.70601 -3.94953,-4.0754 -4.77088,-12.64833 -1.06526,-16.94417 2.55314,-2.95979 7.79711,-1.15889 11.7179,-1.05901 6.69339,0.1705 14.25303,6.42397 19.8849,2.82404 1.76418,-1.12768 2.64498,-4.10363 1.77542,-6.00107 -1.29553,-2.82695 -7.10174,-4.23604 -8.52209,-3.88304 -1.42034,0.35301 -7.41918,5.3407 -9.58736,2.82403 -1.61871,-1.87889 1.13076,-5.32671 3.19578,-6.70707 1.77075,-1.18366 4.25999,-0.25631 6.39158,-0.353 3.31281,-0.15028 7.56638,1.94683 9.94246,-0.353 1.35953,-1.31593 2.84069,-4.94206 0.35508,-5.64807 -2.48561,-0.706 -7.45684,-3.53003 -9.23228,-4.58904 -1.77544,-1.05902 -8.72146,-6.1692 -7.10175,-9.88411 0.71232,-1.63376 3.77075,0.17673 5.32631,-0.706 1.8302,-1.03859 3.36533,-2.91715 3.90597,-4.94205 0.82881,-3.10422 -3.11168,-6.79469 -1.42035,-9.53109 0.97976,-1.58517 3.49423,-2.14474 5.32631,-1.76503 3.11779,0.64617 4.25526,4.93401 7.10176,6.35407 2.69711,1.34553 5.89137,1.33025 8.87717,1.76501 3.76405,0.54809 8.99669,4.02037 11.36281,1.05902 1.164,-1.45685 0,-4.94206 -1.77544,-5.29506 -1.77543,-0.353 -7.81192,-2.11801 -7.81192,-3.53003 0,-1.41202 -0.35509,-5.64806 1.77544,-4.94205 2.13052,0.706 5.42573,3.70939 8.167,2.82403 3.15398,-1.01868 2.48562,-8.11909 5.68141,-8.11909 3.19579,0 10.41894,-2.9033 12.42806,0.706 1.30812,2.35 -2.45758,4.79285 -3.90597,7.06008 -0.86307,1.35102 -6.39157,1.76502 -2.8407,3.88305 3.55088,2.11801 8.16702,2.82402 8.52211,1.059 0.35509,-1.76502 5.87363,-5.07179 8.87718,-3.88304 2.26705,0.89726 3.19579,5.29505 2.8407,6.70708 -0.35509,1.41201 -1.06526,8.47208 -0.71017,9.88409 0.35508,1.41201 3.64483,4.6548 2.8407,7.06007 -0.7875,2.35552 -4.97123,3.53003 -6.39158,3.88305 -1.42035,0.353 -6.71986,1.11721 -9.23227,3.17702 -2.00477,1.64365 -3.49738,4.15587 -3.90597,6.70707 -0.6278,3.92007 3.62044,7.84338 2.48561,11.64912 -1.09422,3.66953 -6.15628,4.85518 -8.167,8.11908 -2.40451,3.90316 -2.04865,9.04727 -4.26106,13.06115 -1.25261,2.27254 -2.42945,5.42643 -4.97122,6.00104 -3.56297,0.80548 -6.43032,-3.58688 -9.94246,-4.58904 -1.83446,-0.52346 -3.78595,-0.92789 -5.68139,-0.70601 z m 165.24076,-173.50521 76.62224,-8.61137 m -88.8203,1.73175 c 0.26403,-0.21765 -0.42744,10.35737 -2.4856,13.41414 -0.80097,1.18959 2.89817,1.16803 4.26105,0.70601 2.1403,-0.72556 2.51768,-4.10439 4.61613,-4.94206 1.87048,-0.74666 4.8104,1.94346 6.03649,0.35301 1.36607,-1.77206 -1.83606,-4.14075 -2.13052,-6.35407 -0.2643,-1.98651 2.13052,-6.35406 0.35508,-6.00106 -1.77544,0.353 -3.02194,4.1338 -5.32631,4.58905 -1.83558,0.36263 -5.32632,-1.76502 -5.32632,-1.76502 z m -43.99478,-70.23065 -46.76351,-85.95581 m 48.1478,84.87974 c -2.84404,0.46542 -1.18975,5.77029 -2.8407,8.11907 -0.96357,1.37086 -3.30358,1.61556 -3.90596,3.17703 -0.55747,1.44506 -1.06526,3.53005 0.71017,4.58905 1.77544,1.05902 3.5312,3.25142 5.32631,2.47103 2.84662,-1.23749 1.30189,-6.14191 2.8407,-8.82509 0.70593,-1.2309 2.79396,-1.76089 2.84071,-3.17702 0.0885,-2.6818 -2.30799,-6.78991 -4.97123,-6.35407 z M 267.71307,102.97881 263.34083,88.350354 m 47.58381,100.210566 c 6.52476,-1.63978 14.457,-2.74408 18.46455,-8.11909 2.91115,-3.9045 1.52335,-9.61948 1.77543,-14.47314 0.33573,-6.4642 1.85586,-13.32701 -0.35509,-19.41521 -1.02942,-2.83469 -2.9762,-5.69978 -5.68139,-7.06007 -7.8223,-3.93339 -19.14308,4.00597 -26.27648,-1.05901 -1.86021,-1.32083 -0.61804,-5.04355 -2.48561,-6.35407 -3.28918,-2.3081 -9.07057,2.31357 -12.07297,-0.353 -2.49659,-2.21733 -1.06526,-11.64911 -1.42036,-9.8841 -0.35508,1.76502 -4.15722,7.79701 -7.81192,9.8841 -3.73029,2.13027 -10.08252,5.09402 -12.78314,1.76503 -2.37425,-2.92668 1.81544,-7.45685 3.90595,-10.59012 1.3424,-2.01198 4.51144,-2.66766 5.32631,-4.94204 1.76361,-4.92238 2.51746,-13.09234 -2.13052,-15.53216 -0.70214,-0.36857 -1.65053,0.43023 -2.13053,1.05901 -2.2593,2.95964 0.57648,8.38146 -2.13052,10.9431 -1.21243,1.14733 -3.62268,1.69186 -4.97122,0.70601 -3.57425,-2.61294 2.18517,-12.03838 -2.13054,-13.06113 -1.56602,-0.37113 -1.45425,3.06956 -2.84069,3.88304 -3.28725,1.92874 -8.00074,-0.38476 -11.3628,1.41202 -1.92232,1.02735 -4.30963,2.77289 -4.26105,4.94205 0.0577,2.58001 3.19579,4.94205 5.32631,5.64806 2.13053,0.70599 14.20349,1.76501 14.20349,3.17703 0,1.41201 0.44767,4.74919 0,7.06007 -0.48215,2.48891 -1.42034,7.06007 -2.84069,7.06007 -1.42035,0 -6.03648,-1.41201 -7.81192,-4.23604 -1.77543,-2.82403 -11.3628,-6.70707 -12.78315,-6.70707 -1.42034,0 -6.74666,2.11803 -4.61614,4.23604 2.13053,2.11803 7.81193,2.82404 9.23228,4.94206 1.42035,2.11802 6.03648,5.29505 5.68139,6.70707 -0.35508,1.412 -1.06526,11.29611 -1.77544,12.70812 -0.71016,1.41202 -4.97121,1.76502 -6.74665,1.41202 -1.77544,-0.35302 -3.45426,-5.29605 -6.0365,-4.94206 -3.28517,0.45037 -7.45683,4.94206 -5.68139,8.11909 1.77543,3.17703 6.4806,3.83693 9.94245,5.29505 2.86071,1.20493 8.16701,0.706 8.87719,2.82403 0.71016,2.11802 1.42034,7.41308 2.13053,10.23711 0.71017,2.82402 6.29933,7.1448 9.58735,10.5901 2.18899,2.29369 3.74165,5.67162 6.74667,6.70707 6.64454,2.28956 16.33402,-2.11802 20.95015,-2.47102 4.61614,-0.35301 18.23833,0.0806 26.98666,-2.11802 z m 538.74509,815.84958 1.23962,-9.47638 m -18.11593,25.03478 8.6483,-6.8635 m -16.49444,15.6566 5.00336,-5.5273 m -16.93057,12.0501 8.4732,-3.0476 m 28.6696,-27.5522 c -1.88966,-1.468 -4.6573,1.7366 -6.27711,3.4945 -1.23985,1.3456 -3.26411,4.9923 -2.25977,4.9923 1.00434,0 4.6387,1.0467 6.27712,-0.2497 2.2399,-1.7723 4.51559,-6.4849 2.25976,-8.2371 z m -19.58461,14.7271 c -1.31181,0.554 -1.38235,3.3815 -0.25108,4.2434 1.05034,0.8002 3.51188,0.043 3.76627,-1.2481 0.29666,-1.5056 -2.09478,-3.5952 -3.51519,-2.9953 z m -7.53255,8.4868 c -1.45927,0.1176 -3.04366,2.5148 -2.25976,3.7441 0.90073,1.4124 4.39079,1.0511 5.02169,-0.4992 0.53453,-1.3134 -1.34132,-3.3595 -2.76193,-3.2449 z m 26.41165,-778.5813 c 1.54567,0.98426 1.36916,4.4889 -0.17754,5.47156 -1.7876,1.13572 -5.79275,-0.36304 -5.85894,-2.47104 -0.0702,-2.23537 4.14212,-4.20682 6.03648,-3.00052 z M 717.0416,124.39957 721.60659,88.201479 m -59.0474,374.023211 34.38917,11.03183 m -66.48641,-25.50024 26.67954,11.35888 m -107.59385,74.00356 -11.09668,8.85653 m 15.37823,-21.17887 -1.62641,5.59271 m 10.99729,-14.67279 10.99695,-1.88317 m -24.71233,-20.9446 24.68536,3.8816 m -62.24187,-25.39245 c 0,0 -9.38043,1.97263 -13.28399,-0.10573 -5.52512,-2.94171 -10.25835,-9.2516 -10.54555,-15.47589 -0.31062,-6.73178 9.81607,-17.70542 9.81607,-17.70542 m 6.58151,64.70086 c 0,0 -28.33013,-2.50132 -42.5104,-2.06543 -4.54516,0.13973 -9.39244,-0.31413 -13.55858,1.49767 -6.08813,2.64767 -14.56292,10.48368 -15.06508,12.97979 -0.50217,2.49612 -3.87268,7.09005 -4.01736,10.9829 -0.25044,6.73849 3.50692,13.03159 5.52386,19.46967 2.09119,6.67506 6.81535,19.84941 6.81535,19.84941 m -175.06722,80.26141 c 0,0 -14.14617,-2.49931 -19.55953,-6.75622 -3.42345,-2.69209 -4.77518,-7.26754 -7.03038,-10.98289 -5.57795,-9.18951 -9.51612,-19.42691 -16.06942,-27.95646 -7.04083,-9.16412 -14.11248,-13.05848 -24.60631,-17.97201 -6.389,-2.99152 -14.05169,-7.92372 -21.09112,-8.48678 C 119.73635,564.93145 2.5006939,558.13045 2.5006939,558.13045 m 17.0737641,493.73105 -17.0737641,0 0,-963.998623 1009.7768061,1.887144 m -863.12595,842.281799 -1.08074,10.51322 m 154.40301,-41.20701 -23.56428,-1.61789 m 47.00281,-7.59347 -15.58173,8.09599 m 46.218,-12.59877 -8.12416,3.24294 m 101.1804,10.31095 -81.63562,-11.38558 m 99.33012,-22.99129 -0.101,7.33438 m 9.27465,-43.35128 20.11164,-8.52612 m 261.17594,217.51301 -1.00125,12.0906 m -1.07945,-21.8964 -13.58069,-23.5638 m -94.36773,-91.82259 18.44516,-3.87857 m -211.70266,71.73288 -1.26876,-47.74244 m 40.34293,53.82097 31.04617,-15.12395 m -24.4436,78.4739 513.80559,0 M 437.52433,984.23322 c 0,0 -0.14598,7.09794 -1.56635,8.15699 -1.42033,1.05895 -6.74665,4.942 -6.74665,7.06 0,2.11799 -2.13055,6.70709 -1.06527,9.53119 1.06525,2.824 1.77542,7.413 2.48561,9.8841 0.71016,2.471 0.71018,6.7071 0.71018,9.8841 0,3.177 -1.06526,23.1119 -1.06526,23.1119 m -410.481137,0 c 0,0 -2.317115,-15.4246 0.355087,-22.4059 1.611759,-4.2107 5.822514,-6.909 8.877187,-10.2371 3.216046,-3.504 6.342368,-7.1242 9.942449,-10.2371 2.429428,-2.1008 6.194415,-2.8804 7.811925,-5.6481 1.076869,-1.8427 -0.247568,-4.4475 0.710175,-6.35404 1.234573,-2.45756 3.747412,-4.1095 6.036487,-5.6481 4.430859,-2.97826 9.369335,-5.41875 14.558588,-6.70705 8.280924,-2.0559 17.104091,-0.30433 25.566298,-1.41201 5.155382,-0.67475 10.683211,-0.73964 15.268761,-3.17704 7.60249,-4.04111 12.71587,-11.61642 18.46455,-18.00317 3.71042,-4.12227 6.09979,-9.43011 10.29753,-13.06115 3.20091,-2.7688 6.82769,-7.07778 11.00772,-6.35411 2.89646,0.50142 4.97123,4.58905 5.68139,6.70706 0.7102,2.11809 2.13052,6.00115 3.90597,9.53116 1.77544,3.53 7.45684,8.82505 8.87719,9.178 1.42036,0.35304 14.55859,0.70609 15.62385,2.1181 1.06526,1.412 4.59489,2.54812 7.10175,2.47105 2.43894,-0.0749 5.32631,-3.17705 6.74666,-2.8241 1.42036,0.35305 2.48563,4.58905 4.26105,6.00105 1.77547,1.4121 7.10177,4.58906 9.23228,5.29506 2.13054,0.70609 11.3628,2.47105 12.78315,2.47105 1.42034,0 7.81189,-2.824 9.23228,-3.88306 1.42032,-1.05895 4.97121,-12.7081 8.87717,-10.23705 3.90596,2.47105 8.8772,7.06011 10.29754,6.00105 1.42035,-1.05905 3.55089,-8.4721 5.6814,-6.35411 2.13055,2.11811 1.68936,6.06217 4.26105,7.06011 1.95382,0.75823 2.84068,-0.706 6.03649,-1.76505 3.19577,-1.05895 19.52981,-8.82506 21.30525,-8.82506 1.77543,0 8.167,-1.05905 10.29753,-0.706 2.13052,0.35295 14.2035,2.82401 16.68911,3.53 2.48562,0.706 14.20351,2.11801 16.33403,2.11801 2.13052,0 13.67514,-3.19552 20.59508,-2.824 4.87311,0.26169 12.42803,1.76505 14.2035,3.5301 1.77541,1.76495 5.67714,5.34068 9.23227,6.70705 3.10887,1.19484 8.16702,1.05895 9.94246,1.05895 1.77542,0 7.83344,1.01872 11.36279,-0.35295 2.18817,-0.85038 2.4856,-6.3541 5.32632,-4.58905 2.84067,1.76495 3.44637,4.69109 6.03647,5.648 2.55423,0.94374 6.7467,0.70601 8.16702,-0.35295 1.42037,-1.05905 6.03651,0 8.5221,1.05896 2.48564,1.05905 10.29754,3.5301 12.42806,3.88305 2.13054,0.35305 8.16702,1.76505 9.58736,1.76505 1.42036,0 7.10175,-4.23601 9.23228,-4.23601 2.13053,0 8.87719,-1.41209 11.71788,-1.41209 2.84071,0 6.92797,-0.0759 8.16702,2.47104 1.55043,3.18664 -6.39157,9.88411 -3.90596,9.88411 2.48561,0 4.26104,-0.35295 6.74666,-1.412 2.48561,-1.05905 12.42806,-5.29505 13.49333,-3.88305 1.06526,1.412 2.84069,3.88305 2.4856,5.29505 -0.35508,1.41201 -3.90594,4.58905 -6.03648,5.64811 -2.13051,1.05894 -8.87719,4.58903 -8.87719,6.70703 0,2.118 -1.06526,4.942 -0.71018,7.06 0.35509,2.1181 2.48561,7.4132 4.97124,8.1192 2.4856,0.706 5.3263,5.2951 6.74665,7.4131 1.42036,2.118 2.25736,4.4159 3.19578,6.707 2.33501,5.7009 6.0365,17.4639 6.0365,17.4639 z M 361.30083,884.62196 c -1.53292,-0.34856 -3.42587,0.67694 -4.26844,1.99689 -0.80722,1.26453 -1.39177,3.91979 0,4.493 2.51017,1.03389 9.65604,2.3743 11.80098,2.74572 3.92759,0.68004 -3.64616,-8.35199 -7.53254,-9.23561 z m -27.87042,5.74106 c -2.06372,1.31295 -5.78953,-0.93365 -7.28145,0.99844 -0.41087,0.53208 -0.26169,1.56087 0.25109,1.99689 2.03624,1.73151 5.68519,-1.53031 8.0347,-0.24961 3.15904,1.72202 1.98606,8.55857 5.52387,9.23561 2.62408,0.50212 4.49751,-4.59774 9.29013,-3.24494 3.03182,0.85577 -0.50216,-9.23562 -1.75759,-9.23562 -1.25542,0 -3.74815,0.83351 -5.02169,-0.24961 -1.5591,-1.32604 0.41875,-4.81141 -1.25542,-5.99066 -1.03343,-0.72787 -2.69795,-0.17703 -3.76627,0.49921 -2.09545,1.32644 -1.92495,4.90906 -4.01737,6.24029 z m -26.1128,7.48833 c -1.15572,-1.51453 -5.52387,1.99689 -4.77062,3.74417 0.75325,1.74728 2.51085,2.99534 2.76193,4.99222 0.25108,1.9969 -0.15698,4.85914 1.50652,4.74262 2.03134,-0.14238 -0.20548,-4.36221 1.00434,-5.99067 0.77829,-1.04757 3.21771,-0.47895 3.51518,-1.74728 0.6918,-2.9495 -4.01735,-5.74106 -4.01735,-5.74106 z M 710.30866,423.58999 c -1.89701,0.54728 -3.82553,2.80332 -3.5152,4.74261 0.22623,1.41371 2.25978,2.49611 3.5152,2.49611 1.25542,0 4.01735,0.74883 4.26844,-0.24961 0.25108,-0.99844 1.20972,-3.77498 0.25108,-5.24184 -0.88063,-1.3475 -2.96715,-2.19513 -4.51952,-1.74727 z m 7.78362,12.73017 c -2.36884,-1.52725 -5.64147,0.7636 -8.28579,1.74728 -1.61408,0.60043 -4.63884,0.78695 -4.51953,2.49611 0.1988,2.848 -0.83793,7.30174 -0.25109,9.98445 0.25896,1.1838 2.46552,1.61385 3.5152,0.99845 1.92365,-1.12782 -0.20195,-5.06006 1.5065,-6.4899 1.15427,-0.96603 3.16814,0.41751 4.51953,-0.24961 1.96765,-0.97135 3.73194,-2.87435 4.26844,-4.99223 0.29263,-1.15523 0.25214,-2.84634 -0.75326,-3.49455 z m -56.99624,20.46812 c -2.70388,-1.04352 -4.77135,3.64056 -6.02603,6.24028 -1.67951,3.47998 -2.2097,7.68616 -1.50651,11.48211 0.22381,1.20817 0.52188,3.23566 1.75759,3.24496 4.12137,0.031 5.03697,-6.75572 6.02603,-10.73329 0.82373,-3.31265 2.94877,-8.99913 -0.25108,-10.23406 z m -116.50333,67.89425 c 1.00434,0 3.30145,-0.60497 4.77061,0 2.51511,1.03568 4.90201,3.17761 5.77495,5.74107 0.40612,1.19261 0.51308,2.9914 -0.50217,3.74416 -1.29051,0.95684 -3.76627,0 -4.77061,-0.74883 -1.00434,-0.74884 -6.86299,-8.7364 -5.27278,-8.7364 z m 10.29447,-26.45879 c -2.88616,0.29806 -4.04694,2.87684 -5.27277,5.49145 -1.49549,3.18977 -2.00868,8.23717 -0.75326,9.73484 1.25542,1.49766 3.51519,7.48834 5.52386,7.48834 2.00868,0 5.03472,-0.20519 6.7793,-1.74728 2.41593,-2.13552 2.03845,-5.77228 2.00867,-8.98601 -0.0325,-3.50725 0.004,-7.27506 -2.51084,-9.73483 -1.47356,-1.44118 -3.71891,-2.45884 -5.77496,-2.24651 z M 933.27193,102.83955 c -1.00434,0.24961 -4.21842,1.67489 -5.27278,3.49455 -1.33943,2.31164 -1.25543,5.99068 -0.50217,7.98756 0.75325,1.9969 3.76628,6.98912 5.0217,7.23873 1.25542,0.24961 5.11432,-0.18086 6.77928,-2.74573 2.65125,-4.08421 -0.75325,-13.97823 -1.75759,-14.47744 -1.00434,-0.49922 -2.21914,-2.00699 -4.26844,-1.49767 z M 821.96119,732.30542 c 0,0 11.36392,-7.60114 16.40069,-12.17729 3.23747,-2.94137 6.61243,-5.949 8.78798,-9.73484 2.61288,-4.54689 3.2641,-14.22783 4.7706,-14.97667 1.50651,-0.74883 11.45813,-9.50085 17.57593,-13.72862 8.29748,-5.73404 20.64606,-7.12106 25.86174,-15.72551 6.88204,-11.35345 -0.73999,-26.83265 2.51084,-39.68818 1.61614,-6.39107 8.28581,-16.97357 8.28581,-17.97201 0,-0.99844 -0.11022,-19.82413 -0.11022,-19.82413 M 479.31067,832.45321 c -0.81898,-1.50975 -3.61876,-2.2466 -5.02169,-1.24806 -0.81946,0.58319 0.50216,2.74573 -0.25109,2.99534 -0.75325,0.24961 -7.65014,0.67864 -10.04339,3.24495 -2.16675,2.32337 -1.70603,6.11547 -2.25976,9.23561 -0.65841,3.70992 -2.77481,7.78138 -1.25543,11.2325 0.79199,1.79891 4.77061,2.24651 4.77061,3.49457 0,1.24805 1.88604,7.39957 4.51953,6.7395 4.32033,-1.08282 0,-12.23095 1.25543,-13.2294 1.25542,-0.99845 5.11443,-3.53519 6.27711,-6.24028 1.48022,-3.44384 -0.4213,-7.54755 0.25109,-11.2325 0.31653,-1.73471 2.59937,-3.44044 1.75759,-4.99223 z m -27.11716,102.34061 c 2.74737,0.43602 3.36084,-4.61591 5.77496,-5.99068 1.56772,-0.8928 3.46646,-1.20981 5.27277,-1.24805 2.6421,-0.0559 5.77848,3.209 7.78364,1.49767 3.24117,-2.76619 -3.2548,-9.48274 -0.50217,-12.73018 3.84648,-4.53793 0.36653,-14.3834 3.76627,-20.46811 0.34724,-0.62144 2.11167,-0.0449 2.00867,-0.74884 -0.86414,-5.90191 -3.15829,-16.41323 -5.27277,-20.46812 -1.33716,-2.56421 -5.876,0.58768 -8.53689,1.74728 -3.02078,1.31635 -4.86123,4.84765 -8.03472,5.74106 -2.26054,0.63641 -5.1668,-1.92151 -7.03037,-0.49923 -1.75768,1.34152 -1.5893,4.31209 -1.25542,6.4899 0.58676,3.82724 4.99221,4.3658 5.02169,8.23717 0.0207,2.71647 -2.90717,6.5423 -3.2641,9.23562 -0.3581,2.70208 1.87153,5.26439 1.75759,7.98755 -0.0946,2.26148 -1.8678,4.23081 -2.00867,6.48989 -0.17879,2.86714 0.62199,5.75204 1.50651,8.48678 0.71043,2.19659 0.7211,5.87655 3.01301,6.24029 z m -333.66317,-39.2298 c 0,0 1.98019,-3.95294 3.4867,-5.94984 1.50651,-1.99688 14.76342,-8.28969 18.0781,-15.47589 2.26758,-4.91604 -2.62599,-11.48831 0,-16.22474 0.90788,-1.63754 4.77062,-1.24805 4.77062,-2.99533 0,-1.74728 0.72607,-8.82206 0.50217,-13.22939 -0.18328,-3.60778 -4.02541,-8.12964 -1.50651,-10.73329 1.74919,-1.80808 5.08401,1.35529 7.53254,0.74883 2.63533,-0.65268 5.04131,-2.41822 6.77929,-4.493 6.23794,-7.4466 4.67588,-19.83749 11.5499,-26.70842 3.54171,-3.54011 11.00214,-1.8507 13.80966,-5.99066 1.7317,-2.55356 2.51085,-8.48679 0.25108,-9.23562 -2.25976,-0.74884 -4.76602,-6.44347 -8.28579,-7.98757 -3.75901,-1.64904 -8.35787,0.39176 -12.30315,-0.74882 -3.48921,-1.00874 -7.76993,-2.08767 -9.54123,-5.24184 -0.85772,-1.52736 1.48199,-3.99183 0.25109,-5.24184 -2.22562,-2.26013 -6.38838,-0.17403 -9.54122,0.24961 -3.37288,0.45321 -9.91216,2.43631 -9.91216,2.43631 m 141.4136,4.18004 c 0,0 -0.68628,6.86266 0.31807,7.6115 1.00433,0.74883 4.51952,5.49144 5.77494,6.24027 1.25543,0.74884 5.77813,5.1687 9.03905,7.23873 6.05704,3.84498 12.15092,9.72221 19.33353,9.48523 1.83646,-0.0606 3.02198,-2.18459 4.77061,-2.74573 1.6009,-0.51373 3.38295,-0.87708 5.02169,-0.49922 2.78282,0.64166 4.87912,2.95632 7.28146,4.493 5.83677,3.7336 11.17015,8.2929 17.32485,11.48214 1.83305,0.94982 3.83496,1.537 5.77495,2.2465 2.65002,0.96919 8.00824,2.74533 8.00824,2.74533 m 15.75055,-56.12582 c 0,0 -3.9506,6.12175 -7.18719,6.95279 -1.8479,0.47446 -3.64206,-1.18126 -5.52387,-1.49768 -2.39884,-0.40336 -6.02603,-1.49767 -7.28145,-0.49922 -1.25543,0.99845 -4.63864,5.80431 -6.52821,8.98601 -1.69404,2.85246 -2.416,6.23257 -4.26844,8.986 -2.07513,3.08443 -4.9567,5.55161 -7.53254,8.23717 -2.77714,2.89542 -8.53689,8.48678 -8.53689,8.48678 M 339.27197,650.0112 c 0.10178,-0.29481 11.19195,1.55736 16.75608,0.97462 3.45296,-0.36163 6.83701,-1.42145 10.04339,-2.74573 1.8694,-0.77208 3.33424,-2.41575 5.27278,-2.99533 3.69468,-1.10462 7.85196,-1.84262 11.5499,-0.74883 2.80768,0.83047 4.38177,3.99784 7.03037,5.24183 3.1936,1.49997 6.92351,1.4477 10.29448,2.49611 2.22512,0.69205 4.50202,1.34948 6.5282,2.49612 2.09879,1.18772 5.6886,4.4604 5.6886,4.4604 m -73.49541,-28.40066 c 0,0 1.39584,11.66167 0.76718,17.45036 -0.31596,2.90946 -3.01302,6.24029 -3.2641,7.23874 -0.25108,0.99844 -1.97104,9.11286 -2.00869,13.22939 -0.0203,2.22006 1.25544,4.493 1.50652,6.48989 0.25109,1.99689 1.71272,6.60317 2.00868,9.98445 0.3048,3.48238 0.0429,7.00036 -0.25109,10.48368 -0.44278,5.24706 -2.27375,15.63393 -2.27375,15.63393 m -31.08923,-6.44692 c 0,0 6.02171,-0.0301 9.00776,0.29821 3.13255,0.34438 6.24228,0.94981 9.29014,1.74728 4.27443,1.11841 8.84874,1.848 12.55423,4.24339 2.4827,1.60492 4.13081,4.22768 6.02604,6.48989 1.07124,1.27868 1.58267,3.12936 3.01301,3.99378 1.30506,0.78872 3.19173,-10e-4 4.51953,0.74884 2.47822,1.40029 3.65619,4.34907 5.52387,6.48988 1.98097,2.27069 3.48634,5.10863 6.02603,6.73951 2.357,1.51356 5.68731,0.96789 8.03471,2.49611 1.3898,0.9048 3.08365,2.1024 3.2641,3.74417 0.24814,2.25759 -2.84156,3.75884 -3.2641,5.99067 -0.24961,1.31847 -0.50216,2.49611 0.50217,3.99378 1.00434,1.49767 3.22343,4.16738 4.01736,8.48678 0.13623,0.74117 1.28605,4.9016 1.75759,5.49145 1.78268,2.22998 5.67179,1.02821 8.53689,0.99845 3.04177,-0.0317 6.28093,0.0275 9.03904,-1.24806 2.04188,-0.94428 4.77062,-2.99533 5.0217,-4.493 0.25109,-1.49767 0.25109,-6.98911 0,-9.23562 -0.25108,-2.2465 -1.6113,-11.36849 1.7576,-15.22628 1.30419,-1.49346 3.7937,-1.31869 5.77494,-1.49767 4.51331,-0.40773 8.811,1.41888 13.05641,2.99533 2.55386,0.94833 7.05726,2.86527 7.05726,2.86527 m -6.45085,-99.23471 c 0,0 -0.11548,7.19703 -1.35966,10.50317 -0.95164,2.52879 -3.48545,4.24292 -4.51953,6.73951 -1.49366,3.60619 -0.34422,8.07871 -2.25976,11.48211 -1.38828,2.46663 -3.74299,4.45954 -6.27712,5.74107 -1.14113,0.57707 -2.64597,0.13274 -3.76627,0.74883 -3.73001,2.05126 -5.07527,7.15352 -8.78797,9.23562 -1.71577,0.96221 -4.09612,0.22347 -5.77495,1.24806 -2.48418,1.51607 -2.94372,5.39107 -5.52387,6.73949 -2.75003,1.43721 -6.65904,-0.89375 -9.29013,0.74884 -2.38259,1.48746 -3.64969,4.51028 -4.26844,7.23872 -0.8499,3.74775 2.04321,7.78173 1.00434,11.48212 -0.72453,2.58074 -3.06823,4.41269 -4.77062,6.48989 -2.28301,2.78568 -4.48805,5.70735 -7.28145,7.98756 -0.37717,0.30788 -1.25542,0.74883 -1.25542,0.74883 m 90.86297,-72.51562 c 0,0 -8.08494,-6.16278 -12.52453,-8.60802 -4.62382,-2.54672 -10.16911,-3.3187 -14.56292,-6.24028 -3.68971,-2.45343 -6.20716,-6.32217 -9.54122,-9.23562 -4.25097,-3.71469 -8.47197,-7.5597 -13.30748,-10.48368 -5.54029,-3.35012 -17.74085,-7.93563 -17.74085,-7.93563 m 36.5029,-19.48095 c 0,0 2.0379,4.41533 3.83557,5.95002 2.50143,2.13551 5.90629,2.97153 9.03906,3.99378 3.33797,1.08921 7.46748,0.17291 10.29446,2.2465 2.32227,1.70337 3.40704,4.75011 4.26845,7.48834 0.55187,1.75425 -0.35775,3.86432 0.50217,5.49145 1.39914,2.64742 6.93748,5.73814 6.93748,5.73814 m 29.70231,-67.29524 c 0,0 0.33391,5.9427 0.0186,8.88913 -0.20841,1.94739 -0.82057,3.83098 -1.25542,5.74105 -0.64531,2.8345 -1.17196,5.70218 -2.00868,8.48678 -1.04582,3.48052 -3.75327,10.23876 -3.75327,10.23876 m -16.46369,112.92421 c 0,0 0.1244,-6.36933 1.1345,-9.34024 0.52858,-1.55463 2.35667,-2.60953 2.51085,-4.24339 0.32392,-3.43261 -3.51518,-9.73484 -3.51518,-9.73484 l 0,0 c 0,0 -4.59135,-7.18144 -7.53255,-10.23406 -0.7414,-0.76948 -2.04655,-1.03652 -2.51085,-1.99689 -1.81278,-3.74959 -0.99374,-8.43937 0,-12.48056 0.56004,-2.27746 2.60265,-3.98987 3.2641,-6.24028 1.31977,-4.49019 2.28846,-9.41441 1.25542,-13.97823 -0.36238,-1.601 -2.28776,-2.61741 -2.51084,-4.24339 -0.35119,-2.55964 1.25205,-5.01693 2.00868,-7.48834 0.90166,-2.94516 1.62615,-5.98384 3.01301,-8.73639 0.99805,-1.98088 2.89908,-3.45059 3.76628,-5.49145 1.79479,-4.22387 -0.31519,-10.06333 2.76193,-13.47901 1.64221,-1.8229 4.76813,-1.28191 7.03037,-2.24649 1.92757,-0.8219 3.42681,-2.95813 5.52387,-2.99535 1.30983,-0.0233 2.79306,0.66067 3.51518,1.74729 1.52526,2.2951 -0.30956,5.60744 0.50217,8.23717 0.77059,2.49642 2.58311,4.5518 4.01736,6.73949 3.14492,4.79707 5.74684,10.16479 10.04339,13.97824 1.92836,1.71153 4.51467,2.50483 6.77929,3.74416 1.83737,1.00554 3.77254,1.84804 5.52387,2.99534 1.24427,0.81514 2.71422,1.49652 3.51518,2.74572 1.88177,2.9349 2.39562,10.16599 2.39562,10.16599 m 33.47822,-18.94247 c 0,0 -2.59408,-10.89605 -2.47957,-16.43425 0.0455,-2.20247 0.81955,-4.32999 1.25543,-6.48989 1.12681,-5.58379 3.04021,-11.04851 3.51518,-16.72395 0.34724,-4.14918 -1.13957,-8.36555 -0.50217,-12.48056 0.33845,-2.18504 1.85847,-4.0658 2.25977,-6.24029 0.88561,-4.79867 0.25538,-14.63408 0.25538,-14.63408 m 10.56203,67.00331 3.49442,10.03358 2.25977,7.73795 1.03603,10.8327 m 37.63101,-43.53177 c 0,0 -3.95838,3.51284 -6.27711,4.74261 -2.7322,1.44906 -5.82037,2.11568 -8.78797,2.99534 -4.55197,1.34929 -9.34598,1.87984 -13.80966,3.49455 -2.35688,0.85259 -4.34961,2.62652 -6.77929,3.24495 -3.08529,0.78531 -6.36743,0.23615 -9.54122,0.49922 -2.9382,0.24355 -6.15229,-0.31524 -8.78796,0.99844 -1.74665,0.87058 -2.36228,3.21106 -4.01737,4.2434 -4.0136,2.50346 -9.10932,2.62362 -13.55858,4.24339 -2.64187,0.96178 -5.43936,1.69847 -7.78362,3.24495 -4.58627,3.02549 -6.99674,8.81176 -11.80099,11.48211 -2.1084,1.17192 -4.67634,1.20862 -7.03036,1.74728 -3.16732,0.72476 -6.42678,1.07313 -9.54123,1.99689 -5.51059,1.63447 -8.20095,2.74349 -12.05207,6.98912 -1.68613,1.85887 -4.77061,5.24183 -6.02603,6.48989 -1.25542,1.24805 -4.46865,7.6324 -7.03038,11.23251 -2.16643,3.04458 -4.13544,6.36458 -7.03037,8.73639 -1.53114,1.25446 -5.27277,2.74572 -5.27277,2.74572 m 191.9067,-16.64196 c 0,0 -6.83721,-7.97153 -11.62784,-9.31761 -3.16677,-0.88979 -7.00549,2.98797 -9.79231,1.24806 -2.01718,-1.2594 -1.05603,-4.6961 -2.25976,-6.73951 -2.51504,-4.26941 -9.03603,-7.81696 -13.05641,-10.73327 -5.0527,-3.66514 -8.0639,-9.7547 -14.06075,-7.98757 -2.0925,0.61661 -1.36602,5.11371 -3.51518,5.49145 -3.11553,0.5476 -6.52821,-5.74106 -7.53255,-5.74106 -1.00434,0 -3.97993,1.24947 -5.27278,2.74573 -1.84536,2.13568 -1.54889,4.98809 -3.76627,6.73949 -1.91049,1.50903 -3.92133,1.36475 -6.27712,1.9969 -2.74849,0.73752 -5.02062,2.81273 -7.78362,3.49455 -3.90665,0.96403 -8.04598,1.13818 -12.05208,0.74884 -1.63654,-0.15905 -3.18325,-1.67469 -4.7706,-1.24806 -3.54208,0.95198 -6.74443,4.23961 -7.78364,7.73795 -0.67878,2.28503 0.25109,5.74106 1.50651,6.98912 1.25542,1.24806 3.8979,6.05071 6.27713,8.73639 2.03543,2.29761 5.77494,5.49145 6.77928,6.24027 1.00434,0.74884 3.73677,1.86974 5.27278,3.24496 2.43819,2.18294 3.37546,5.81516 6.02604,7.73794 1.58268,1.14811 3.89674,0.91192 5.52386,1.9969 1.65579,1.10409 4.02396,4.39939 4.02396,4.39939 m 92.3926,-36.84886 c 0,0 -3.48066,1.44485 -4.77062,2.74572 -1.68355,1.6978 -1.43049,5.06191 -3.51519,6.24029 -2.7657,1.5633 -6.86783,-1.96432 -9.54122,-0.24961 -1.44984,0.92993 -1.83662,3.03587 -2.00868,4.74261 -0.30097,2.98552 1.78778,8.82422 1.78778,8.82422 M 594.59533,566.91991 c 0,0 0.40962,7.40846 1.46976,10.92982 0.71912,2.38865 2.58254,4.33999 3.2641,6.73951 1.12022,3.94393 1.14881,8.13417 1.25542,12.23094 0.0434,1.6656 -0.25109,4.99223 -0.25109,4.99223 0,0 11.58957,0.458 17.32485,1.24806 2.87782,0.39642 5.67413,1.25476 8.53689,1.74727 4.15187,0.71429 12.51768,1.7495 12.51768,1.7495 0,0 1.28804,5.97349 2.5474,8.73418 1.02602,2.24914 2.9809,3.99587 4.01736,6.24027 1.0937,2.36837 0.51159,4.92878 1.00434,7.48835 0.3632,1.88665 1.12461,3.92614 1.7576,5.74105 1.0494,3.00893 3.27984,5.49423 5.27277,7.98756 1.58361,1.98121 3.51053,3.6654 5.27278,5.49144 2.25382,2.3354 6.7793,6.98912 6.7793,6.98912 0,0 4.97042,-3.20832 7.78362,-3.24494 1.61628,-0.0211 3.22814,0.7808 4.51953,1.74727 1.7653,1.32116 1.9909,4.36618 4.01735,5.24184 1.54281,0.66666 2.52525,-1.71492 3.99897,-2.5214 2.1414,-1.17187 3.49712,-2.38785 5.54225,-3.71888 2.24185,-1.45905 5.2929,-3.28021 7.53255,-4.74262 3.19042,-2.08323 3.68477,-4.96951 7.28145,-6.24027 2.10432,-0.74349 5.77496,0.49922 6.52821,1.49767 0.75325,0.99844 5.52386,4.493 6.5282,5.49144 1.00434,0.99844 4.21144,3.44394 6.77929,3.99378 2.9636,0.63458 6.1998,0.0579 9.03905,-0.99844 2.47878,-0.92221 5.77496,-3.24495 6.52821,-4.493 0.75325,-1.24806 3.43861,-4.19341 5.77494,-3.99378 3.54034,0.3025 4.59678,7.48434 7.00224,8.64887 2.93459,1.42068 5.65984,2.88373 8.06285,5.07974 1.56851,1.43339 2.80109,3.24098 4.51952,4.493 1.90221,1.38591 4.26643,2.01973 6.27713,3.24495 1.8415,1.12212 3.96848,2.03263 5.27278,3.74417 3.27734,4.30062 3.46851,10.23274 5.52387,15.22628 2.46517,5.9892 8.15256,17.64092 8.15256,17.64092 M 672.01789,684.42852 c 0,0 5.60262,-0.44664 8.1606,-1.49246 2.06105,-0.84266 3.29727,-3.65119 5.52386,-3.74417 2.20924,-0.0923 3.5638,3.25993 5.77494,3.24495 2.32541,-0.0158 3.7725,-2.9241 6.02604,-3.49457 2.75882,-0.69836 5.9046,-0.82831 8.53688,0.24962 3.28507,1.34524 4.49801,5.89486 7.78363,7.23873 5.42021,2.21694 12.50802,-2.42766 17.57594,0.49922 1.94859,1.12537 1.83122,4.25226 3.51518,5.74105 1.65112,1.45977 4.32605,1.3425 6.02604,2.74573 1.33991,1.10601 1.64902,3.16688 3.01302,4.24339 2.26407,1.78689 5.88319,1.32554 8.0347,3.24495 1.83944,1.64099 1.93623,4.59971 3.5152,6.48989 2.12945,2.54915 5.23401,4.106 7.78362,6.24028 4.16846,3.48941 12.27937,10.72935 12.27937,10.72935 m -154.38732,12.18786 c 0,0 7.40231,-4.50472 10.53953,-7.44131 3.20704,-3.00194 4.88236,-7.45406 8.2858,-10.23406 3.06604,-2.50441 8.13308,-2.35925 10.54556,-5.49145 1.87645,-2.43623 2.07282,-6.77248 3.51519,-9.48523 2.62864,-4.94384 5.15119,-8.97182 10.04339,-11.73173 2.38439,-1.34514 5.77057,-0.21044 8.03471,-1.74728 1.4953,-1.01496 3.16235,-2.69916 3.01301,-4.493 -0.15139,-1.81858 -2.37804,-2.79994 -3.76626,-3.99378 -2.54612,-2.18959 -5.0467,-4.82879 -8.2858,-5.74105 -4.27469,-1.20395 -8.93701,1.54323 -13.30749,0.74882 -1.62172,-0.29476 -2.92405,-2.40956 -4.51953,-1.99688 -1.61997,0.41901 -1.42648,3.46321 -3.01302,3.99378 -1.73252,0.57938 -3.65312,-0.65528 -5.27277,-1.49767 -2.108,-1.09637 2.316,0.54091 0,0 -4.76343,-1.11251 -15.13394,0.0989 -19.83571,-1.24805 -1.70601,-0.48876 -2.00944,-3.48928 -3.76627,-3.74417 -3.48325,-0.50538 -6.4971,2.86224 -9.29013,4.99222 -3.38219,2.57928 -6.56629,5.61901 -8.78797,9.23562 -1.61717,2.63254 -3.0943,8.72763 -3.0943,8.72763 m 149.47672,247.12391 c 0.65739,-2.10373 4.42124,0.56572 6.5282,1.24806 1.49515,0.48423 2.9654,1.12184 4.26845,1.99688 1.32499,0.88982 2.51085,2.99533 3.51519,3.24494 1.00433,0.24962 4.01735,0.49923 4.51952,1.49767 0.50217,0.99845 1.35808,4.45517 2.51084,6.24029 1.61895,2.50699 4.56919,2.63849 6.02604,5.24183 0.57109,1.02051 1.7576,3.24495 0.25109,3.49456 -1.50651,0.24961 -3.76628,-0.49922 -4.51953,-1.74728 -0.75326,-1.24806 -2.24384,-3.28628 -3.2641,-4.99223 -1.16745,-1.95205 -1.43445,-4.63088 -3.2641,-5.99066 -2.02143,-1.50236 -5.28361,-0.20798 -7.40601,-1.56576 -2.4271,-1.55269 -2.89177,-5.13201 -5.14823,-6.92103 -1.14275,-0.90598 -4.45098,-0.35963 -4.01736,-1.74727 z m 71.30808,91.35774 c -1.00434,0.9985 -3.52332,4.42 -6.02604,5.4914 -3.23678,1.3856 -7.15319,-0.2003 -10.54556,0.7488 -2.63044,0.736 -4.5922,3.2623 -7.28146,3.7442 -2.738,0.4907 -7.28145,-0.4992 -8.2858,-0.9984 -1.00434,-0.4993 -7.7901,-0.4821 -11.29881,-1.9969 -1.91919,-0.8286 -3.0367,-3.0864 -5.0217,-3.7442 -2.8584,-0.9472 -6.65796,1.8354 -9.03904,0 -2.39026,-1.8425 -3.92051,-6.2232 -2.25976,-8.7363 0.88394,-1.3376 3.64063,0.3912 4.7706,-0.7489 1.24617,-1.2572 -0.98228,-4.8697 0.75326,-5.2418 1.06671,-0.2288 1.42505,1.7124 1.75759,2.7457 0.48525,1.5078 -1.01142,3.7778 0.25108,4.7426 1.2884,0.9846 3.31842,-1.7235 4.77061,-0.9984 1.07086,0.5347 0.51138,2.5813 1.50652,3.245 1.60007,1.0671 4.51952,0.2496 5.77494,0.2496 1.25543,0 8.03471,-1.7473 9.29014,-1.7473 1.25543,0 3.76627,-1.4977 4.77061,0.4992 1.00434,1.9969 6.02603,0.7488 7.03037,0.7488 1.00434,0 7.53255,1.2481 8.2858,2.2465 0.75326,0.9985 4.01736,1.9968 5.02169,1.4976 1.00434,-0.4991 7.70176,-3.6627 5.77496,-1.7472 z m 18.00444,-175.03701 -19.76204,0.30912 -8.53688,4.493 -3.01301,5.74105 3.01301,4.74261 1.25542,6.24029 -2.25976,6.7395 -4.9942,5.781 m -68.82473,-85.15737 c 0,0 -5.85846,4.44228 -6.77928,7.73794 -0.38667,1.38395 0.42882,2.84378 0.75325,4.24339 0.5473,2.36103 2.00869,5.74106 2.00869,6.98912 0,1.24806 1.00434,5.24184 2.51084,5.74106 1.50651,0.49922 5.49536,1.87138 6.5282,4.24339 0.57396,1.31814 0.75326,4.2434 -0.75325,4.2434 -1.50651,0 -3.51519,-0.24962 -6.02603,-0.99845 -2.51085,-0.74884 -4.02103,1.06195 -4.51953,2.74572 -0.76099,2.5704 2.21825,4.88998 3.51519,7.23873 0.99472,1.80139 2.28892,3.42986 3.2641,5.24183 1.99657,3.70973 4.27532,7.39329 5.27278,11.48212 0.41471,1.69995 0.99429,3.6563 0.25108,5.24184 -0.93329,1.99109 -3.51012,2.66914 -5.27278,3.99378 -1.66913,1.25435 -4.6236,1.70204 -5.02169,3.74416 0.36584,4.70807 3.44226,3.5338 6.0757,6.89207 m -7.7036,-94.62731 c 0,0 0.0473,6.97413 1.37682,10.10613 0.95039,2.23887 3.1563,3.72402 4.51952,5.74108 1.88155,2.78406 3.51519,8.48678 5.02169,8.73639 1.50651,0.24961 6.7793,0.99845 7.28147,0 0.50217,-0.99845 1.38288,-5.02877 3.51518,-5.49145 1.65571,-0.35924 4.01735,1.74728 4.26844,2.74573 0.25108,0.99845 1.25542,4.493 2.51084,4.74261 1.25543,0.24962 7.53255,-0.99844 9.03906,-0.99844 1.50651,0 16.32051,0.74883 17.57593,0.99844 1.25543,0.24962 4.42868,0 7.28147,-0.99844 4.13368,-1.44266 9.29013,-6.73951 11.2988,-7.23873 2.00869,-0.49922 6.00785,-3.24725 9.29014,-3.24495 3.01767,0 7.28147,2.99534 8.53689,2.99534 1.25542,0 7.53254,0 9.03904,0 1.50651,0 12.36796,5.10664 12.36796,5.10664 M 665.93197,793.05472 c 0,0 -1.40663,0.61974 0.7812,1.22808 1.94949,0.54206 6.2832,0.0601 8.19253,0.7287 2.3748,0.83157 4.54385,-2.3524 7.03038,-2.74572 2.81513,-0.4453 8.28579,1.99689 10.29447,2.49611 2.00868,0.49922 10.04339,-1.74727 11.29881,-0.99844 1.25543,0.74884 5.52388,4.99223 6.7793,5.24184 1.25542,0.2496 6.95043,-1.5185 9.7923,-3.49457 2.14261,-1.48984 5.0217,-4.99222 5.0217,-5.99066 0,-0.99845 3.17757,-5.96673 5.77495,-7.98757 3.54935,-2.76148 8.13842,-4.09496 12.55424,-4.99221 3.60891,-0.73331 7.53253,-0.24961 11.04773,-0.24961 3.51518,0 13.30749,-0.74884 14.31183,-0.74884 1.00434,0 9.73059,1.78308 14.06075,0 4.81151,-1.98131 10.79664,-9.98445 11.04772,-10.9829 0.25108,-0.99845 1.24795,-12.72037 0.25108,-13.47901 -5.41124,-4.11811 -2.68391,-4.45645 -9.03904,-10.48366 -1.88211,-1.78501 -7.78772,-1.65677 -8.03472,-2.74573 -1.16649,-5.14279 -3.24129,-9.8344 -1.00434,-12.23095 1.74634,-1.87094 5.52386,-1.24806 7.28147,-2.49611 1.75759,-1.24806 4.40097,-5.87796 5.77494,-9.23561 1.6146,-3.94569 -0.69082,-9.9581 2.76193,-12.48057 1.55703,-1.1375 4.51953,-0.74883 5.77496,0.49922 1.25542,1.24806 8.00706,6.19149 11.29881,9.98445 3.5939,4.1411 8.2858,12.73017 9.03905,13.72862 0.75326,0.99845 3.15828,5.12368 5.02169,8.73639 1.08619,2.10586 3.20561,4.66403 2.76193,6.98911 -0.4762,2.4956 -2.00867,4.99223 -2.00867,6.4899 0,1.49767 1.50651,5.99067 2.51084,7.73795 1.00435,1.74728 2.00869,7.73795 2.00869,8.986 0,1.24806 -1.00434,4.99223 1.75759,5.99067 2.76193,0.99845 6.14586,1.96148 9.29013,1.74729 4.71058,-0.32091 13.42867,-4.48069 13.42867,-4.48069 m -171.87984,89.76936 c 0,0 3.19639,3.08311 4.03404,5.07061 1.04302,2.47485 0.79924,5.31213 1.00434,7.98755 0.45809,5.9757 -1.06832,12.18603 0.50217,17.97201 0.54641,2.01307 1.47045,4.07865 3.01302,5.49145 2.19684,2.01197 8.19155,3.61158 8.19155,3.61158 m 73.90744,-2.3734 c 0,0 -1.87054,-9.6945 -5.76922,-12.9699 -2.58561,-2.17222 -7.03037,-2.99534 -9.03905,-2.99534 -2.00868,0 -6.31178,2.78487 -9.54123,3.99379 -2.47687,0.92724 -4.92554,2.04221 -7.53253,2.4961 -3.29865,0.57431 -7.11006,1.71544 -10.29448,2.74572 -4.062,1.31426 -6.26417,3.33522 -10.29448,4.74262 -3.32497,1.16109 -7.10917,-0.028 -10.54555,0.74883 -3.33409,0.75383 -8.57632,0.90959 -10.79665,3.49456 -1.50321,1.75008 -0.25109,5.49145 -0.25109,6.98912 0,1.49766 -2.25976,7.23872 -2.76193,8.23717 -0.50217,0.99845 -14.02086,15.05206 -14.02086,15.05206 M 590.34729,726.54453 c 0,0 3.67726,1.24153 5.7178,3.31844 2.04053,2.07692 3.34046,7.04974 5.27277,9.48523 1.93232,2.43548 1.94007,4.58457 5.77496,5.24184 3.83487,0.65727 11.14599,-6.82215 14.31183,-5.99068 3.16585,0.83148 2.51085,0.49923 2.51085,3.24495 0,2.74573 1.00433,12.73018 1.5065,14.47745 0.50217,1.74728 2.76193,5.99068 4.26844,7.23872 1.50651,1.24806 5.38669,3.92157 8.03472,4.74262 2.64803,0.82106 4.92461,-0.6871 7.28145,0.49922 2.35684,1.18634 5.0217,4.493 5.52387,6.4899 0.50217,1.99688 0,6.98911 1.00434,7.98756 1.00434,0.99844 3.2641,2.4961 4.51953,2.99533 1.25542,0.49922 10.05414,5.17114 10.79664,8.48678 0.74251,3.31565 -4.01735,1.74728 -3.01301,5.99067 1.00434,4.24339 1.75759,7.23875 2.25976,8.23719 0.50217,0.99845 0.75325,5.74106 0.25108,6.73951 -0.50217,0.99845 -4.51953,5.24184 -4.26844,6.48989 0.25108,1.24806 1.25543,2.74573 0.25108,3.74416 -1.00434,0.99845 -4.01735,1.9969 -3.76627,3.99379 0.25109,1.99689 2.2768,5.08427 4.01735,7.23872 1.74057,2.15444 6.02605,4.49301 6.27713,5.49145 0.25108,0.99844 3.35188,4.78136 4.51952,6.48989 1.16765,1.70854 1.28031,2.80983 2.51085,3.74417 1.23053,0.93434 3.63931,0.28356 4.51953,1.49767 0.88022,1.21411 0.72159,3.36835 0,4.24339 -0.72159,0.87504 -1.00434,0.24961 -2.51084,0.49922 -1.50652,0.24961 -5.02171,0.99845 -6.52821,-0.49922 -1.50651,-1.49767 -2.06669,-3.49675 -4.01736,-3.74417 -1.95066,-0.24741 -2.46308,2.95969 -3.76627,4.493 -1.3032,1.53332 -3.65352,3.97581 -3.65352,3.97581 M 487.01611,707.25902 c 0,0 0.22438,-5.08789 1.5847,-7.09978 0.73823,-1.09184 2.76193,-3.24496 3.2641,-2.24651 0.50217,0.99845 3.40625,5.3775 5.52386,7.73795 2.91919,3.25397 8.78797,8.7364 9.79231,8.7364 1.00434,0 4.29995,-1.41247 6.5282,-1.74728 2.23593,-0.33596 5.27278,-0.74884 6.77929,-0.24961 1.50651,0.49922 7.39482,3.59991 11.29882,3.24494 3.16828,-0.28807 5.36902,-3.9507 8.53687,-4.24339 3.03347,-0.28028 6.01096,1.25062 8.78798,2.49612 2.26442,1.01558 4.01129,5.00629 6.27711,3.99378 1.46838,-0.65617 2.00868,-2.24651 0.75325,-4.74262 -1.25542,-2.49612 -2.27203,-4.9183 -2.00867,-7.48834 0.24657,-2.40618 2.00867,-6.48989 3.2641,-6.48989 1.25542,0 6.80336,-2.24109 10.04339,-3.74417 2.00376,-0.92956 3.77166,-4.17551 5.77495,-3.24494 4.92023,2.28556 11.1016,1.70653 16.06943,2.99533 1.77609,0.46078 3.26275,2.23898 3.76627,3.99378 0.7024,2.44789 -1.06766,4.98045 -1.50651,7.48833 -0.39152,2.23742 -1.00434,5.49145 -1.00434,6.73951 0,1.24805 0.5957,8.95328 -0.25108,13.47901 -0.53393,2.85366 -1.43462,5.24208 -3.76628,6.98911 -2.04482,1.53214 -4.51952,2.49612 -6.02603,2.49612 -1.50651,0 -8.2858,0.24961 -9.29014,0.49921 -1.00434,0.24961 -7.38742,-1.31997 -9.29013,1.9969 -1.15538,2.01408 0.3038,6.81448 0.3038,6.81448 m -117.29689,2.84934 c 0,0 1.99993,-7.90981 -0.2635,-10.66227 -1.90185,-2.31275 -6.64754,-1.0547 -9.54122,-0.24961 -3.81885,1.06248 -3.86182,7.07412 -7.78362,6.48989 -1.88929,-0.28144 -2.67759,-3.09491 -2.76195,-4.99222 -0.10093,-2.27033 1.75761,-5.99068 2.76195,-6.24029 1.00433,-0.24961 6.36189,-5.66107 9.03904,-7.98755 7.16585,-6.2272 11.49901,-13.80673 18.0781,-20.21851 1.60927,-1.56834 3.76628,1.24805 5.0217,1.74727 1.25543,0.49923 6.5282,-1.74727 8.03471,-1.74727 1.50651,0 13.80101,-0.89318 19.33354,2.49611 2.66793,1.63441 5.02169,6.48989 5.27277,7.73794 0.25109,1.24806 5.52386,10.48368 6.02603,11.73174 0.50217,1.24806 9.03906,5.49145 10.54557,6.98911 1.5065,1.49767 3.11608,2.87566 3.01301,4.74261 -0.18371,3.32774 -6.2688,7.81834 -6.2688,7.81834 m -0.12338,18.69447 c 0,0 4.84259,-3.8204 7.39652,-3.04935 1.44374,0.43587 1.22196,2.96434 2.51085,3.74417 1.94224,1.17513 4.65326,1.55006 6.77929,0.74883 4.4326,-1.67049 7.26503,-6.34989 9.54122,-10.48367 0.91642,-1.66429 0.33966,-3.99002 1.50651,-5.49145 2.77356,-3.56886 7.30771,-6.11809 11.80099,-6.7395 3.7597,-0.51996 7.26568,2.42339 11.04772,2.74572 2.25767,0.19241 4.74331,-1.48802 6.77929,-0.49922 1.89799,0.92177 3.13576,3.17603 3.51519,5.24183 0.40114,2.18406 -0.75326,4.99223 -1.50651,6.4899 -0.75325,1.49766 0.13896,4.98092 -0.75325,7.23872 -0.63083,1.59635 -3.114,4.10985 -3.114,4.10985 m -109.31876,33.5568 c 0,0 -8.9552,-8.10057 -10.59878,-12.45591 -1.44321,-3.82436 1.37946,-8.73969 -0.75325,-12.23095 -0.75996,-1.24403 -3.04493,-0.97995 -3.76628,-2.2465 -0.74226,-1.30327 -0.77147,-3.20661 0,-4.493 1.80266,-3.00584 8.10578,-1.69674 9.29014,-4.99223 1.85637,-5.16536 -8.62464,-10.26238 -6.27712,-15.22629 1.19385,-2.52442 5.2454,-2.19268 8.03471,-2.49611 3.92446,-0.42691 8.14127,2.47037 11.80099,0.99845 4.01427,-1.61453 4.20845,-7.61666 8.53688,-7.48834 6.02394,0.17858 5.96886,8.75613 11.04773,11.98134 1.59129,1.01051 3.68625,1.67984 5.52386,1.24805 2.9514,-0.69348 4.77062,-5.49144 7.03038,-5.74105 2.25976,-0.24961 9.79231,-0.74883 9.79231,-1.74728 0,-0.99845 7.78362,-2.49611 7.78362,-0.49922 0,1.99689 -2.96596,7.69597 -3.01302,11.73173 -0.0259,2.22 0.24393,3.64847 -0.50216,5.74105 -1.45426,4.07876 -5.52892,5.38753 -8.28581,8.73639 -2.13349,2.59163 -4.13485,5.65903 -4.51952,8.98601 -0.54994,4.7564 3.36081,13.96917 3.36081,13.96917 m 74.46826,79.12905 c 0,0 -4.21011,4.95968 -6.52099,7.24552 -2.06254,2.04012 -5.28796,4.97346 -5.28796,4.97346 m 7.76534,-36.0231 c 0,0 -4.80207,2.87412 -6.74582,4.84046 -1.67443,1.69386 -4.09242,5.84889 -4.09242,5.84889 m -36.79698,-9.52757 c 0,0 4.02344,-3.17265 5.73753,-5.05771 2.97514,-3.27191 3.98748,-8.45045 7.78363,-10.73329 2.60228,-1.56486 9.03235,-1.2825 9.03235,-1.2825 m -50.70306,-35.18713 c 0,0 1.90904,-3.82818 3.7569,-4.21702 3.15107,-0.66308 5.8194,2.75143 8.78797,3.99378 5.78743,2.42206 16.82268,5.24184 17.57594,6.73951 0.75325,1.49768 16.40307,14.72258 22.34654,20.21852 2.12731,1.96714 -2.00868,7.48835 -1.7576,8.48678 0.25109,0.99845 3.71279,4.02553 4.77062,6.4899 2.06847,4.8188 -0.0723,11.05887 2.76193,15.47589 1.64831,2.56871 5.23812,3.22179 7.53254,5.24184 4.96918,4.37508 9.23819,7.94622 14.06075,12.48056 6.7045,6.30379 15.62171,11.90337 20.84004,19.46968 3.1283,4.53583 4.51952,14.72706 5.02169,15.7255 0.50217,0.99845 4.42104,7.3223 8.03472,9.23562 1.73286,0.91747 5.84684,0.7068 5.84684,0.7068 m -23.92495,45.22167 c 2.06135,4.14464 -4.37251,1.08301 -7.03037,11.98134 -1.16767,4.78794 -0.91924,9.81182 -1.25543,14.72706 -0.22171,3.24175 1.33287,7.04612 -0.50216,9.73479 -1.24058,1.8178 -3.83579,3.0359 -6.02604,2.7458 -2.5918,-0.3434 -4.66813,-2.7709 -6.02604,-4.99225 -1.82452,-2.98465 1.27542,-5.35536 -1.5065,-7.48834 -3.25013,-2.49191 -9.22242,-0.78977 -13.05641,-2.24649 -3.81482,-1.44945 -5.20779,-6.53343 -8.78797,-8.4868 -4.4491,-2.42741 -11.31863,0.16345 -14.814,-3.49455 -2.87176,-3.00532 -4.16542,-8.54399 -2.25977,-12.23095 0.71868,-1.39044 2.72041,-1.72232 4.26845,-1.99689 1.90221,-0.33737 3.91383,1.01562 5.77495,0.49922 2.59597,-0.72027 5.77494,-5.99066 6.5282,-4.74261 0.75325,1.24806 -0.55548,8.58313 2.51085,10.48367 2.25713,1.39893 5.16214,-1.29968 7.78363,-1.74728 4.90088,-0.83679 13.80966,-1.99689 14.814,-1.74727 1.00434,0.24961 6.15686,2.46375 9.29014,1.99688 2.37162,-0.35335 3.92356,-3.03717 6.27711,-3.49455 1.32446,-0.2574 3.41922,-0.70341 4.01736,0.49922 z M 916.44925,740.84587 c -1.65887,0.79872 0.49276,3.81492 -0.25108,5.49144 -2.38836,5.38302 -10.28948,7.04502 -12.55424,12.48057 -0.54448,1.30679 -0.9931,3.23048 0,4.24339 2.27904,2.32451 6.62435,-0.53661 9.7923,0.24961 2.72363,0.67593 5.98056,1.41871 7.53255,3.74417 2.87478,4.3075 -2.63796,11.78656 1.00434,15.47589 2.1178,2.14516 6.28946,1.9989 9.03905,0.74884 5.55679,-2.52633 5.56571,-11.58757 10.79664,-14.72707 2.96893,-1.78189 7.2372,0.12991 10.29448,-1.49766 1.98526,-1.05688 2.59562,-3.82857 4.51952,-4.99223 3.39912,-2.05593 8.95727,0.005 11.5499,-2.99534 2.63191,-3.04589 3.89644,-8.94324 1.25543,-11.98133 -1.31454,-1.51218 -4.18945,-1.06258 -6.02604,-0.24962 -2.87811,1.27401 -2.88591,6.98429 -6.02604,7.23874 -7.74532,0.62759 -13.09364,-15.09196 -17.57593,-15.22629 -1.30675,-0.0391 -1.45514,1.21168 -1.25542,2.4961 0.75903,4.88127 6.7563,4.48774 9.29014,8.73641 1.24076,2.08046 4.26474,5.3129 2.51085,6.98911 -2.7918,2.66812 -8.70196,1.36077 -11.54991,-1.24806 -1.6296,-1.49278 0.29487,-4.91584 -1.25542,-6.48989 -1.67671,-1.70243 -5.35263,0.20376 -7.03037,-1.49767 -1.84998,-1.8761 1.05143,-8.39794 -1.50652,-7.73794 -3.75533,0.96894 -9.81906,-0.56811 -12.55423,0.74883 z m 65.78421,264.08873 c -1.83064,-0.2795 -8.6649,4.2675 -12.80532,6.7395 -2.94526,1.7585 -5.2813,4.6501 -8.53688,5.7411 -4.28936,1.4374 -10.26427,-2.3373 -13.55858,0.7488 -1.59422,1.4935 0.332,4.5983 -0.75325,6.4899 -1.50938,2.6308 -5.82279,2.8325 -7.28147,5.4915 -1.56746,2.8572 -1.6242,5.5005 0.75326,7.7378 4.16914,3.9235 9.75503,1.1997 15.56725,-0.2496 2.0697,-0.516 1.17919,-4.3183 2.76193,-5.741 1.64952,-1.4826 4.66962,-0.7188 6.27713,-2.2465 1.11226,-1.057 0.50088,-3.3607 1.75759,-4.2434 2.73767,-1.9228 8.42859,2.421 10.04339,-0.4992 1.3903,-2.5142 -6.03674,-2.6324 -6.27712,-5.4914 -0.1632,-1.941 2.91048,-5.8813 4.01735,-7.4884 2.01052,-2.9192 11.5522,-6.4521 8.03472,-6.9891 z M 893.35442,872.33 c 0,0 -0.70336,5.07101 -0.25605,7.54934 1.32579,7.34557 6.52934,13.52663 8.53688,20.71774 0.88317,3.16357 1.9285,6.4786 1.50651,9.73484 -0.34966,2.69809 -2.81284,4.80521 -3.26411,7.48833 -0.94239,5.60328 1.32864,16.99204 1.32864,16.99204 m 158.24331,-53.19365 c 0,0 -5.6177,0 -8.67,0.75682 -3.3149,0.82052 -3.3715,4.47982 -6.7793,4.24339 -10.7511,-0.74584 -21.0145,-2.7003 -29.3769,0.24961 -16.91437,5.9666 -25.79004,26.27108 -42.43333,32.94868 -5.22834,2.09774 -11.21436,2.32249 -16.82268,1.74728 -2.18529,-0.22415 -4.10885,-1.64544 -6.27712,-1.99689 -6.11328,-0.99075 -12.68133,-2.12738 -18.58027,-0.24961 -7.81181,2.48673 -12.10291,11.75749 -19.8357,14.47745 -5.05526,1.77813 -10.70721,0.78698 -16.06943,0.74883 -4.10861,-0.029 -8.23122,-1.29438 -12.30315,-0.74883 -3.59354,0.48145 -6.67426,3.69874 -10.29447,3.49455 -3.51353,-0.19809 -6.02274,-4.56169 -9.54122,-4.493 -4.15455,0.0809 -6.96434,4.97565 -11.04774,5.74106 -5.29511,0.99256 -11.39957,0.92536 -16.06942,-1.74727 -1.71187,-0.97978 -1.78436,-3.79639 -3.51519,-4.74261 -5.24734,-2.86864 -17.92154,-1.24527 -17.92154,-1.24527 m 257.29726,-13.60241 15.979,0.35295 29.8274,3.5301 2.1305,0 7.4569,-4.2361 13.8483,1.05905 8.1671,2.824 10.4466,-0.35295 m -98.8244,-73.88193 c 0,0 3.1326,21.53286 0.6712,31.87446 -1.1095,4.66114 -6.4616,7.92665 -6.7467,12.7081 -0.097,1.63605 4.4636,4.95738 5.3263,6.3541 3.4204,5.53778 6.3284,7.07489 9.5873,12.70812 1.549,2.67742 3.4405,4.25946 2.1305,7.0601 -3.67,7.84638 -15.2572,8.68737 -23.4357,11.64905 -5.1351,1.85961 -10.889,2.22864 -15.6238,4.94211 -4.5733,2.62092 -8.904,6.15012 -11.7179,10.59011 -1.3175,2.07875 -1.2861,4.751 -2.1305,7.06009 -2.2195,6.06916 -7.6955,17.79888 -7.6955,17.79888 m 71.5592,-145.52334 c 0,0 4.9395,7.26348 7.8639,10.5272 3.5646,3.97821 9.9425,10.5902 11.7179,10.94315 1.7755,0.35306 5.6208,-1.75675 7.812,-0.35305 2.679,1.71623 1.1578,6.73262 3.5508,8.82516 2.8454,2.48813 7.2363,3.19064 11.0078,2.82401 3.2667,-0.31761 5.603,-4.46505 8.8771,-4.23601 2.98,0.20848 8.0561,0.95401 11.0077,1.412 6.3842,0.99046 15.0871,-1.76515 15.0871,-1.76515 M 759.79777,618.55936 c 0,0 13.27574,-8.30928 20.59507,-10.94311 13.75122,-4.94831 28.81745,-5.14516 42.96558,-8.82508 7.93089,-2.06282 15.45513,-5.54963 23.43579,-7.41308 12.82543,-2.99468 25.88786,-6.26488 39.05962,-6.00106 6.15018,0.12317 11.98858,4.13883 18.10946,3.53003 5.22738,-0.51993 9.35244,-5.3015 14.55859,-6.00107 8.51102,-1.14365 18.8526,8.50166 25.5663,3.17703 3.71948,-2.94991 -0.38111,-9.74207 1.42035,-14.12013 3.21937,-7.82399 7.64858,-18.07254 15.97893,-19.7682 7.88507,-1.60503 12.52987,10.17086 19.52982,14.12015 8.77411,4.95026 16.58569,10.10055 26.63162,9.17809 4.2577,-0.39096 6.5766,-3.65765 10.6526,-4.94205 6.0181,-1.89643 18.8196,2.11801 18.8196,2.11801 m -288.68613,10.94312 c 0,0 6.04675,9.20883 7.10176,14.47315 0.76459,3.81517 -1.58314,7.85699 -0.71018,11.64911 0.75658,3.28658 4.20894,5.53981 4.97122,8.82509 0.93266,4.01954 0.79576,8.5113 -0.71017,12.35513 -0.61053,1.55835 -3.79587,1.74919 -2.13053,7.06007 1.76691,5.63476 -2.84069,14.12015 -2.84069,14.12015 m -34.4435,-90.72193 7.10176,4.23604 4.61614,8.11909 17.04419,9.8841 m -55.9406,-78.32332 c 0,0 3.29125,2.46623 6.11485,5.67117 3.94576,4.47865 7.63402,12.631 11.83139,16.87758 2.99108,3.02615 10.64881,0.0532 11.36279,4.23604 1.40966,8.25822 1.79813,20.31999 -2.13052,29.2993 -0.90194,2.06148 -2.68874,3.76634 -4.61613,4.94205 -5.87561,3.58411 -13.41999,3.26923 -19.8849,5.64806 -4.51988,1.66313 -8.33169,5.64947 -13.13824,6.00106 -2.95108,0.21587 -5.58423,-2.82243 -8.5221,-2.47103 -7.05481,0.84384 -13.8413,5.22581 -18.46454,10.5901 -2.55997,2.97032 -1.92876,7.79294 -4.26105,10.94312 -3.04619,4.11443 -12.07298,9.5311 -12.07298,9.5311 m 89.1428,-189.92241 c 0,0 5.06218,8.41756 9.21643,10.59658 9.27153,4.8632 21.47787,-0.24797 31.24771,3.53003 6.00155,2.32081 11.41049,6.45477 15.62385,11.29613 4.9883,5.73181 7.63187,13.16219 10.65261,20.12119 1.73518,3.99741 3.83053,6.56117 4.26106,12.35513 0.30822,4.14797 -6.11233,12.33342 -7.45684,18.70919 -1.41879,6.72802 0.11455,13.64902 -0.71018,20.47422 -1.30802,10.82471 -4.4786,21.58865 -3.90596,32.47632 0.13943,2.6511 2.97181,5.39271 1.77544,7.76609 -2.61135,5.18039 -11.12487,3.85233 -15.97894,7.06006 -2.99683,1.98042 -8.02212,7.53709 -11.5215,10.79838 -7.24883,6.75562 -12.62445,11.79386 -12.62445,11.79386 M 1084.7028,342.51054 c 0,0 -14.6726,0.0611 -19.1748,0.35301 -7.9687,0.51661 -11.5311,-1.44494 -17.7543,3.53004 -7.1826,5.74191 -15.5768,10.57837 -24.501,13.06113 -6.3922,1.77835 -13.3549,-0.12535 -19.8849,1.05902 -7.69655,1.39594 -15.3302,3.66803 -22.37052,7.06007 -12.3486,5.94956 -21.00925,18.81756 -34.0884,22.94523 -11.50928,3.63223 -24.81292,-3.23505 -36.21893,0.706 -7.58031,2.61919 -14.93836,7.69731 -19.17473,14.47315 -5.6001,8.95704 -0.51726,22.0578 -6.03648,31.06432 -2.58709,4.22173 -3.55948,7.09965 -8.5221,7.41307 -5.51022,0.348 -11.88137,-6.89997 -17.39928,-6.70706 -4.33172,0.15145 -7.68354,4.27384 -10.65263,7.41307 -6.3687,6.73369 -7.64628,17.47003 -14.55859,23.65125 -3.89689,3.48473 -9.07185,3.52798 -14.2035,4.58904 -6.95681,1.43844 -21.30524,1.41201 -21.30524,1.41201 M 952.7273,166.04541 c 0,0 6.59648,11.82052 11.60087,16.20151 2.82165,2.47017 6.32904,4.26233 9.94243,5.29506 5.01684,1.43384 10.57941,-0.27566 15.62385,1.05901 4.45059,1.17754 7.93976,4.97476 12.42805,6.00105 1.0382,0.23738 2.1726,-0.29454 3.1958,0 14.257,4.10377 21.4919,9.68165 33.0231,19.0622 7.4289,6.04328 6.1015,14.71053 6.0365,33.18234 -0.01,1.79995 4.6161,15.17915 4.9713,16.59117 0.355,1.41201 13.4592,12.75555 16.3339,21.18021 1.7111,5.0144 -1.324,10.75631 0,15.88517 3.055,11.83415 14.0688,20.46802 17.7544,32.12332 0.9996,3.16105 0.8023,6.58087 1.0653,9.88409 0.3647,4.58076 -0.4236,9.31246 0.7102,13.76715 1.3506,5.30653 5.233,9.67728 7.1017,14.82616 3.1079,8.56353 6.2605,17.38423 6.7466,26.47526 0.1777,3.32345 -0.5116,6.6809 -1.4203,9.8841 -2.8349,9.99301 -10.1582,18.45866 -12.428,28.59329 -0.8493,3.79196 -0.533,7.76833 -0.3551,11.64912 0.2224,4.85509 2.3544,9.64722 1.7754,14.47314 -0.3593,2.99485 -4.6198,5.61516 -6.7466,7.76608 -3.3898,3.42825 -7.8412,1.67155 -9.9425,6.00107 -4.4771,9.22501 -11.3938,19.9298 -13.8484,30.0053 -1.6719,6.86265 -0.3551,16.94418 -0.3551,19.0622 0,2.11803 4.0654,11.11495 2.8408,16.59117 -2.7506,12.29896 -21.6604,31.06431 -21.6604,31.06431 l 8.5221,15.17916 c 1.1333,2.01867 2.0896,6.43857 3.1958,8.47209 8.6031,15.81574 6.1094,9.17636 10.6526,12.00212 4.5098,2.805 7.1512,-0.81876 11.0077,2.82403 5.5323,5.22577 7.9475,13.34888 9.2322,20.82721 0.2599,1.51231 -1.0792,3.23429 -0.355,4.58905 3.2589,6.09595 11.9912,6.97182 18.1094,10.2371 9.9341,5.30169 19.3647,12.02007 30.1825,15.17915 3.3109,0.96688 7.9931,1.15447 11.0078,2.82404 3.6072,1.99771 7.4993,9.70703 10.7646,12.21959 3.9033,3.0036 9.7104,1.55012 9.7104,1.55012 M 762.99356,171.48031 c 0,0 -2.25618,11.23507 -0.17755,16.23816 1.80528,4.34515 8.06017,5.65232 10.12,9.88411 2.41118,4.95362 0.73317,11.97062 0.71017,17.47367 -0.0171,4.0867 -0.75936,7.05269 -0.35508,11.11961 1.38224,13.90517 9.05323,26.46733 12.96069,39.88941 1.32482,4.55076 1.71632,9.39476 3.55088,13.76714 3.63764,8.66976 11.98657,15.1417 14.55858,24.18076 4.02748,14.15414 3.24352,29.66488 0.53263,44.12544 -0.40873,2.18027 -1.35767,4.2641 -2.48561,6.17755 -3.80857,6.4609 -8.72238,2.34133 -14.2035,17.47369 -1.18962,3.28433 -4.66757,9.38819 -4.66757,9.38819 M 683.94476,173.60433 c 0,0 1.01703,-10.53618 4.48042,-12.11886 6.25703,-2.85931 10.10891,9.62594 16.86666,10.9431 9.11989,1.77758 20.35896,1.70938 26.8091,-4.94204 4.20248,-4.33361 -3.00044,-10.89497 1.06528,-15.35565 4.52105,-4.96025 14.48199,-6.3372 20.41753,-3.17704 7.05595,3.75668 9.40981,22.52647 9.40981,22.52647 0,0 3.76177,-7.27341 8.30712,-12.91444 2.19862,-2.7286 6.21261,-3.72322 6.96164,-5.90549 1.09927,-3.20272 0.16264,-6.95017 0.16264,-6.95017 M 561.73293,420.9186 c 0,0 4.08096,4.49915 6.21066,3.66983 2.1101,-0.82169 1.0586,-7.27497 5.43011,-22.45596 2.83959,-9.86108 7.73068,-20.27275 5.5483,-29.63938 -0.82674,-3.54829 8.69949,-12.48871 9.10837,-15.05008 1.08297,-6.78418 -3.02492,-11.60707 -3.41575,-19.23146 -0.76442,-14.91276 1.04479,-32.53505 10.19504,-42.42251 4.55592,-4.923 11.47649,1.41434 12.93087,-5.11703 1.87877,-8.4372 6.49135,-15.60389 11.95443,-24.99106 4.75157,-8.16462 -1.84438,-13.42688 8.08341,-22.9457 3.92073,-3.75922 8.28818,-8.27306 10.84149,-14.44557 2.88308,-6.96975 1.0901,-8.85995 2.21197,-15.83915 0.39964,-2.48618 3.32627,-2.83617 4.6302,-6.5876 1.0993,-3.16267 0.53687,-9.86201 1.44772,-11.04164 3.09725,-4.01124 7.82861,1.24917 12.30087,-2.52115 3.1688,-2.67145 -0.61549,-3.73652 2.73297,-7.78272 1.994,-2.40951 12.23606,-0.54396 16.19786,-3.02156 3.35681,-2.09926 3.98483,-7.88633 5.80331,-7.89153 10.09371,7.19909 15.67188,12.06882 26.99161,20.09371 4.00532,2.8395 3.09472,10.49194 4.22576,17.16857 2.91765,17.22299 1.85026,40.07419 1.85026,40.07419 m -59.40936,-92.55173 -4.82847,-0.39278 c -5.6898,-0.46286 1.58442,3.79963 -1.20395,7.71195 -3.33349,4.6772 -7.64933,5.80718 -7.54804,10.1931 0.12749,5.52096 13.47087,5.18858 11.35062,8.72474 -3.37755,5.63307 -16.62347,-1.9296 -18.41851,2.21723 -3.32186,7.67412 3.53603,3.86142 0.15397,9.62304 -5.44816,9.28139 -9.0588,5.02254 -10.85786,10.12595 -4.5286,12.84632 10.6957,0.93911 5.99169,8.93773 -6.58728,11.20089 -10.26524,-1.99715 -15.53329,5.45066 -7.74104,10.94407 -5.3637,1.6343 -9.03959,9.68885 -4.9808,10.91385 12.56791,3.42608 8.67689,11.80167 -2.11639,4.55564 -9.06113,-2.64555 -9.88293,2.22887 -1.8614,11.04077 2.97327,3.65659 1.11342,6.89952 -3.11457,5.43074 -11.88921,-4.15657 -12.64066,2.79783 -0.65741,6.08403 5.19853,5.83931 2.4943,9.80935 -4.31939,6.34128 -12.55483,0.73877 -14.88094,5.03715 -3.78096,6.98681 4.03706,2.15314 2.6284,5.52435 -5.32212,12.73689 1.58545,7.62224 -3.38794,10.80044 -5.14123,3.28545 -0.44183,-12.00446 -5.83443,-5.67301 -0.32922,0.38653 -5.62032,4.26477 -10.36156,8.21917 -2.9571,2.46638 -5.70032,4.96236 -6.89238,6.65932 -3.60155,5.12692 3.2614,4.91923 2.86071,5.4754 -7.2e-4,0.001 4.03427,-6.89203 7.50345,-7.26495 4.03588,-0.43385 8.74741,-0.64327 10.24294,0.48228 2.23603,1.68285 -6.73447,7.84762 -5.38112,9.33061 2.3762,2.60383 -0.24,2.87562 -0.66208,4.38186 -0.81339,2.90276 -14.15455,-0.59308 -14.75784,0.0709 -1.54239,1.69759 -1.72164,-6.99862 -2.95657,-6.76299 -2.3646,0.45117 -2.28146,-4.77368 -3.74914,-3.45841 -1.78083,1.5959 1.63897,5.29833 0.1162,6.2608 -3.65434,2.30974 -4.58006,0.23584 -7.02856,2.80451 -3.48984,3.6611 0.7971,6.14616 -2.43801,7.75866 -3.9168,1.95229 -3.92205,-7.77291 -6.9124,-6.34771 -6.72159,3.20346 -4.77112,1.48955 -8.6956,4.39317 -5.79851,4.2902 5.27416,5.17826 1.02266,7.1903 -7.66957,3.6297 -3.70083,-6.88303 -8.31909,-3.56179 -7.30712,5.25494 3.75775,6.83629 -0.69328,9.70397 -3.06153,1.97248 -5.36332,-1.48744 -6.72998,0.86915 -5.60913,9.67197 -13.07788,-3.46735 -13.77403,-0.25419 0,0 -0.35668,4.14519 -1.5282,18.20186 -0.54032,6.48315 11.92658,7.94873 10.63957,12.65446 -0.78033,2.85315 -12.90547,-8.02408 -15.00829,4.56197 -0.97224,5.81914 6.29456,5.06321 8.29472,7.7749 4.74712,6.4359 13.123,-0.60728 13.6137,4.93164 0.85629,9.66565 -16.06274,4.7505 -17.2385,14.07144 -1.11299,8.82323 -8.30184,-3.53719 -9.09362,0.79413 -1.97367,10.79671 0.4182,2.09806 -0.22493,8.39842 -0.17198,1.68469 10.84826,3.39839 10.68821,8.3706 -0.21635,6.72156 -15.03007,10.63607 -14.25695,13.64392 1.98753,7.7325 7.00249,1.56754 9.63784,6.83699 4.14381,8.28563 3.51118,10.7307 12.80533,11.23251 5.997,0.32378 21.99738,-4.40191 27.50115,-14.90319 5.07959,-9.69191 10.62852,-4.35499 13.83832,-8.22172 7.51819,-9.05686 0.98554,-16.28167 7.89504,-15.50871 1.67552,0.18744 2.33746,15.20301 3.99546,16.1686 2.26656,1.32002 2.40713,3.71446 1.73359,6.45356 -1.55993,6.34383 -7.48666,14.53645 -1.4825,15.51223 7.34113,1.19308 1.91475,1.91352 4.06614,7.7452 5.11538,13.86605 8.0527,35.13455 9.33169,43.27839 3.36731,21.44083 -5.23938,21.47655 9.45088,32.84579 3.96249,3.0667 3.98433,-1.54196 8.03471,-4.49301 5.38021,-3.91995 -0.86068,-10.80711 4.51953,-14.72706 5.13048,-3.738 15.45438,-0.51094 20.58894,-4.24339 8.98168,-6.52902 12.92566,-23.46454 13.80303,-35.65916 0.95098,-13.21781 -1.26181,-21.78229 7.2881,-30.23821 3.97848,-3.93474 14.09479,-0.20806 14.814,-5.74106 1.49313,-11.48695 -8.35179,-3.46704 -14.14618,-7.10419 -3.1041,-1.94845 -1.03511,-4.94332 -4.25061,-5.02418 -7.28459,-0.18317 -7.45416,-5.91918 -7.34919,-7.1456 0.0291,-0.33976 7.21769,-1.10086 8.85172,3.58419 1.09568,3.14145 7.247,-2.81815 10.16942,-1.67041 7.09366,2.78598 9.65534,8.76047 9.89826,8.09202 2.48157,-6.82878 7.58687,-15.54031 3.76743,-19.42696 -2.76004,-2.80861 -3.86259,-6.73998 -5.43434,-11.24267 -1.64035,-4.69921 -9.15033,-0.93818 -13.11608,-4.68011 -3.62332,-3.41882 5.08075,-6.60021 3.32377,-10.79578 -2.25972,-5.39609 -1.84696,-10.08324 3.37519,-14.73518 3.90636,-3.47983 -3.45334,-23.52109 -1.86868,-23.95456 6.52148,-1.78392 13.2207,-4.61853 20.80595,-9.53717 4.76457,-3.08959 -2.03217,-10.46371 4.67799,-10.53015 5.90019,-0.0584 18.4022,-16.48756 21.71999,-22.86581 2.5256,-4.85529 -4.70726,-18.70859 0.62466,-23.01455 6.66411,-5.38181 5.75526,-15.95527 6.40572,-17.9217 1.36454,-4.12519 8.98928,1.36093 13.72989,2.5586 5.95129,1.50352 11.2615,1.09886 15.39594,4.68013 5.82729,5.04761 10.34432,17.03672 7.28146,18.72085 -3.41452,1.87749 -4.94376,5.9348 -8.27283,10.42743 -2.69998,3.64367 -7.63173,6.63414 -9.51936,11.595 -5.01751,13.18647 -15.98911,7.41238 -15.7286,14.14536 0.32433,8.38287 -7.09023,16.08317 -9.4147,22.49084 -3.07597,8.47925 4.72025,16.66113 3.09789,27.25847 -2.03216,13.2742 -1.59138,24.91029 -1.59138,24.91029 0.75497,1.02095 6.80075,-0.52823 8.90197,1.63799 2.95536,3.0468 2.55762,9.36245 4.83299,8.0623 3.07644,-1.75787 6.14579,-2.45577 6.82933,-0.82974 4.78069,11.37243 -4.76021,8.55549 -3.74161,13.59446 0.66924,3.31073 6.91322,-5.1026 12.8477,-9.24975 7.6034,-5.31343 16.28937,0.31182 25.64156,-6.21649 5.18935,-3.62244 11.14308,-5.0906 17.99719,-4.28623 8.92261,1.04712 11.06799,-11.0152 19.59223,-3.71099 11.51449,9.86649 13.75934,2.90899 16.57159,9.48523 0.69994,1.63672 -9.81489,9.64679 -17.61845,8.17928 -7.62623,-1.43416 1.86264,10.39875 -12.26063,12.28883 -10.29075,1.37719 -15.52252,-10.43245 -25.61065,-7.98755 -1.82197,0.44156 0.67174,5.24936 -0.73651,6.26328 -1.88945,1.36037 -7.8396,-0.91316 -9.75544,0.75018 -8.62517,7.48843 -11.73492,1.64362 -13.61218,6.46554 -1.44251,3.70523 2.82852,5.02801 1.93327,10.00141 -1.37101,7.61638 -0.54962,9.81743 0.82866,11.71477 2.93999,4.0472 11.74896,-2.1607 13.55858,2.49611 1.59935,4.11576 -4.16433,7.13428 -2.96181,17.22729 0.81054,6.80305 2.35158,14.2439 -1.30664,16.71984 -4.5049,3.04898 -12.66502,-0.30968 -17.07377,-3.49455 -3.39344,-2.45144 -1.96018,-12.20346 -6.02603,-13.2294 -6.57043,-1.65793 -13.61664,4.02971 -15.56725,10.48367 -2.75995,9.13179 -7.48123,16.99464 -7.28146,26.45879 0.12949,6.13546 5.99435,14.57605 4.26844,20.46812 -2.25031,7.68232 -15.15552,8.17772 -17.82702,15.72551 -1.68628,4.76427 3.88684,2.13154 3.24357,7.70974 -0.2229,1.93285 -3.44201,0.51709 -3.44417,2.02518 -0.006,4.31815 0.30171,5.69496 -1.11841,6.53766 -3.30183,1.95931 -2.92997,-2.52222 -4.48426,-3.98301 -1.41765,-1.33235 -4.81754,0.43565 -6.49988,0.19099 -8.44536,-1.22818 2.63506,-5.29131 -5.77495,-6.7395 -9.61722,-1.65607 -19.56107,-5.16391 -31.88777,3.24494 -20.01803,13.65563 -21.9854,6.98897 -25.32532,9.99605 -7.28407,6.55816 1.01887,10.22651 -5.06714,14.09044 -5.07175,3.21998 -2.42239,-9.71952 -11.78978,-5.11603 -5.5175,2.7115 -4.95847,-15.83309 -11.04772,-16.72395 -18.03759,-2.63896 -23.6425,7.63117 -32.13886,4.493 -3.20428,-1.18352 -0.84972,-5.76107 -4.07321,-8.10892 -5.09712,-3.71254 -7.95333,-7.3566 -9.71009,-11.00417 -1.50603,-3.127 -2.48304,-6.91148 -2.03504,-10.09143 0.47807,-3.39342 2.97736,-0.14867 6.02604,-1.74727 3.31064,-1.73599 8.70348,8.3692 10.04338,-4.99223 0.14463,-1.44221 0.98631,-4.9599 -0.65868,-5.58092 -2.4915,-0.94058 -7.99633,1.27879 -9.95407,-0.32887 -1.61778,-1.3285 0.81965,-5.27313 0.56937,-7.06999 -0.49456,-3.55066 3.30964,-6.3792 6.02603,-8.73639 3.11967,-2.70716 8.02327,3.05703 10.79665,0 1.58544,-1.74761 0.8229,-7.27864 0,-9.48523 -1.23711,-3.31724 -9.64425,0.23336 -10.29448,-3.24496 -1.31334,-7.02554 6.81265,-8.03946 8.53688,-14.97666 0.64245,-2.58479 3.13123,-11.75486 0.75326,-12.97979 -6.1853,-3.18614 -7.5805,5.43042 -13.55858,8.98601 -1.97863,1.17683 -17.97525,2.09009 -21.7577,5.43243 -0.29299,0.25889 -1.17786,7.88969 0.75896,8.7302 1.27245,0.55219 4.90448,-5.51515 6.70753,-5.55752 6.93714,-0.16302 16.20121,-3.23316 15.75658,-1.04832 -0.70517,3.46511 -11.411,6.67961 -10.83142,7.73395 0.67327,1.22476 -10.57764,-0.72668 -11.85104,-0.0486 -4.94178,2.63143 -7.59899,-2.1875 -6.15115,0.98261 3.06411,6.70904 -1.80684,14.28143 -2.25976,23.96269 -0.19251,4.115 8.16381,3.88212 6.80081,9.05426 -2.47871,9.40593 1.16501,15.62009 0.12997,22.09173 -0.55159,3.44879 -3.55379,2.80122 -2.91343,5.04764 2.02779,7.11362 -5.69384,19.33981 -12.55424,20.2185 -4.51617,0.57844 -1.14864,-11.22631 -13.30749,-8.23717 -1.82946,0.44976 -0.47206,10.1025 -4.44772,9.84153 -4.87657,-0.32012 -3.88776,-6.05933 -5.59567,-5.84775 -5.02725,0.6228 -13.14045,-3.42251 -15.56725,0.99845 -8.15994,14.86511 8.13555,9.87102 3.2641,16.97356 -1.52054,2.21693 -11.3787,7.40619 -13.80967,6.24029 -3.96593,-1.9021 2.84371,-16.29562 -1.5065,-16.97358 -3.9943,-0.62249 -4.0591,6.31366 -6.12446,10.93949 -2.14113,4.79554 -6.22591,7.33198 -7.18304,9.27903 -2.28088,4.63991 5.23037,6.70999 4.149,11.24253 -0.60068,2.5177 -10.15848,-1.07163 -11.43046,-0.50925 -28.47925,12.59157 -31.08528,3.04849 -39.16922,7.98756 -3.38859,2.07034 -6.7203,19.37836 -14.20829,23.40419 -7.89887,4.24673 -19.726,-2.82045 -18.18164,1.05771 1.61984,4.06769 3.52414,8.12748 -5.06557,8.9722 -11.82848,1.16322 -8.8649,-3.77735 -13.28067,-3.66921 -4.11643,0.10082 -4.4046,2.62265 -6.76224,0.68768 -2.0396,-1.67395 -1.68398,-19.29802 -11.04773,-15.97512 -3.16867,1.12446 -0.57098,5.41951 -1.00434,8.73639 -1.09173,8.35603 5.74255,17.80778 -2.00868,21.21696 -3.3739,1.48393 -5.20248,-4.49141 -18.4605,-7.31529 -4.4507,-0.94796 -2.54297,-6.4369 -5.11733,-8.19553 -3.87688,-2.64844 -3.99201,3.82803 -7.80776,2.53104 -7.94469,-2.70045 -12.99928,-4.75665 -18.83136,1.24805 -2.64013,2.71827 5.61439,2.47166 5.9455,4.75418 0.43219,2.97928 -6.27393,8.51093 -3.68574,12.71861 2.02148,3.28634 7.72402,0.67544 10.92843,2.51941 4.78134,2.75141 7.38807,9.60484 11.16703,13.95493 11.96579,13.77427 3.84196,17.34181 6.56402,22.82034 4.59824,9.25462 10.41488,11.45153 10.25866,20.11279 -0.23452,13.00147 -12.67599,26.6571 -11.29264,30.45447 3.13184,8.59714 -3.23831,11.65519 -5.90993,18.26641 -2.97975,7.37373 -7.48014,15.55658 -13.68086,17.17649 -3.46725,0.90581 -17.04274,-6.97032 -24.88638,-6.46524 -4.23243,0.27255 -9.50583,-7.06299 -13.21722,-8.65276 -4.32422,-1.85228 -5.62133,5.632 -12.54052,-4.85123 -2.85446,-4.32475 -9.85128,-3.2487 -15.24813,-4.89049 -4.56315,-1.38818 -0.67439,-7.53927 -5.61437,-7.55763 -5.53993,-0.0206 -17.76133,-0.8037 -21.05421,-3.28685 -5.07094,-3.82399 -1.54842,-11.36308 -9.88176,-10.47387 -11.54826,1.23224 -6.10627,6.46509 -11.85468,7.41756 -4.40891,0.73052 -12.2249,-7.16495 -15.26246,-4.17262 -3.636,3.58184 -8.07006,8.28353 -3.34414,10.84409 4.48537,2.43023 3.47772,8.1061 2.84197,10.37286 -0.70876,2.52707 -9.03375,12.98833 -10.22166,20.44005 -0.98857,6.20133 1.76633,9.99283 0.0503,14.58674 -1.85336,4.96155 -5.39857,-2.71254 -7.52124,4.88816 -1.56491,5.60355 6.41942,-1.3972 4.93385,2.69521 -3.75523,10.34487 -9.19067,11.66064 -14.86057,21.04074 -7.66182,12.67546 -8.92511,5.12083 -10.50877,7.5767 -2.45592,3.80866 -2.76404,9.67423 -4.09557,11.50148 -3.961989,5.43703 -3.628451,-3.02419 -4.980275,4.63488 -0.227409,1.2884 3.514717,1.35659 4.197725,3.57244 1.49582,4.85295 5.2309,7.07688 7.76101,8.86899 3.39683,2.40595 -10.258947,7.385 -7.34796,19.82003 2.03268,8.68307 -14.060369,7.65787 -9.63247,14.16623 3.161584,4.64707 6.915879,-4.77965 16.06984,6.98602 5.8225,7.48375 20.82149,-1.99439 26.1124,2.49921 11.04235,9.3784 2.24808,28.53985 14.56292,36.19363 3.63284,2.25788 6.27818,-1.79471 13.40125,-3.30805 8.97377,-1.90653 17.67389,0.80794 27.99299,-1.11636 14.64338,-2.73085 15.99084,12.41377 30.66709,8.91742 7.21496,-1.71883 9.26453,-9.72796 17.3651,-12.78339 7.54637,-2.84638 9.24638,2.62421 16.78467,-0.44062 3.66024,-1.48808 2.80775,-8.58023 7.1103,-12.22686 5.73325,-4.85933 16.33544,-6.69846 17.49377,-10.99238 2.06847,-7.66795 -9.66142,-4.12158 -8.53689,-11.98133 1.15885,-8.0997 9.16858,-13.79182 17.79255,-21.21796 7.25777,-6.24976 2.37059,-3.93837 9.15842,-8.61359 7.24735,-4.99172 25.97633,-16.76019 27.28334,-16.59615 25.86173,3.24495 26.40752,-4.57118 31.3856,-11.48211 5.92805,-8.22979 -1.54292,-18.43968 5.27278,-25.95961 6.74161,-7.43812 16.32607,-7.40013 26.29036,-5.94479 7.0893,1.03543 6.15625,3.69841 9.13868,5.91005 7.10919,5.27192 2.48868,-4.73937 19.05635,10.26884 10.56914,9.57429 19.97451,-11.84407 24.61017,-10.22933 12.57233,4.37933 28.74655,-17.28305 37.15669,-12.98455 4.18381,2.13839 13.64889,8.37006 16.48098,14.51871 4.09605,8.89286 1.06648,18.35522 4.11806,27.24807 3.2634,9.51019 4.63149,-6.25366 11.03763,16.14306 1.40265,4.90386 7.63181,-4.69819 10.76211,4.97715 1.21324,3.74995 2.89259,5.10285 10.34214,11.46265 4.26346,3.63973 5.21175,10.16027 12.43885,14.38209 14.34256,8.37836 19.926,8.84033 26.07675,16.00149 10.15028,11.81759 7.1913,13.50496 15.19273,20.83275 9.71858,8.90043 3.6781,-3.29257 9.55191,8.47529 17.96943,36.00083 -10.87889,38.64682 -4.01735,43.18276 18.99017,12.55374 3.28965,0.32618 11.12745,-0.91748 8.44452,-1.33991 8.64233,-17.03866 8.70824,-18.30259 0.13484,-2.58568 13.97361,3.30105 10.79665,-11.23251 -1.17679,-5.38341 -7.67357,-4.38168 -10.29448,-9.23562 -3.20213,-5.93036 7.53254,-25.21073 14.56292,-24.21228 2.60694,0.37022 -3.30082,8.81856 2.83848,7.94771 14.71296,-2.08704 15.30615,15.94687 16.74612,10.27391 0.38728,-1.52573 5.87506,-7.52149 2.76194,-9.23562 -15.77686,-8.68717 -2.61636,-10.725 -19.10829,-16.28503 -8.66082,-2.91986 -17.74238,-10.74637 -27.82514,-18.70607 -4.30094,-3.39541 6.53269,-9.64808 0.7415,-9.70908 -18.11432,-0.1908 -22.45418,-7.42923 -30.37658,-13.13145 -12.7631,-9.18629 -3.89505,-24.7232 -11.56225,-33.27648 -5.7937,-6.46332 -13.62152,-7.19149 -18.54739,-13.0918 -3.00228,-3.59622 -3.82185,-11.15328 -5.65218,-17.18145 -1.7996,-5.92691 3.97165,-2.99174 4.11279,-6.91884 0.094,-2.61602 -6.73502,-12.41691 2.00868,-12.97979 5.14693,-0.33133 9.14859,-10.01078 18.0781,-4.74261 8.42813,4.97236 0.25115,19.11207 9.54123,22.2154 3.34006,1.11573 -0.81997,-9.47131 2.63441,-13.16206 1.74246,-1.86171 7.35143,-3.50559 10.17091,-1.3154 1.64664,1.27913 4.06394,12.478 7.05503,20.45901 2.13518,5.6972 7.57054,8.82451 5.94936,13.03775 -2.10546,5.47178 5.1866,13.24188 10.3465,19.17124 6.89602,7.92436 7.17515,3.59141 17.02993,6.20175 10.43422,2.76379 3.5129,5.53377 3.35008,8.52472 -0.28296,5.19821 2.84914,10.96981 15.17134,7.63461 7.87168,-2.13058 17.17681,11.35292 19.43621,13.08372 23.83509,18.25926 -0.9908,43.75365 8.2858,49.17341 6.2889,3.67418 10.54382,11.684 14.56474,18.22033 1.76465,2.86862 11.04624,7.46417 13.58223,14.64389 1.32586,3.75365 -11.74438,2.12049 7.25598,12.31542 11.55371,6.19935 36.77065,-0.47227 35.15187,12.48056 -0.71276,5.70322 -8.39197,0.66936 -17.44707,-1.80439 -8.32094,-2.27326 -18.03808,-2.03533 -19.4624,3.05245 -3.35545,11.98603 2.45055,-2.44859 7.68366,13.50606 3.66243,11.16601 -0.61078,11.91504 2.61082,15.94805 0.90415,1.1318 5.40887,4.5944 5.66183,2.1211 0.51348,-5.02037 3.61552,-8.51323 5.60802,-7.55313 4.32233,2.08266 6.52666,15.37583 6.52666,15.37583 3.83896,2.2432 0.67455,-7.6364 3.25899,-8.131 3.2215,-0.6163 11.62125,7.4058 10.07901,2.6802 l -5.91116,-18.11258 c -1.54573,-4.73632 5.89208,0.74215 10.10841,-6.75487 1.74837,-3.10876 -4.24055,-8.18226 -1.82362,-11.03013 1.59468,-1.87897 5.08941,-0.87173 7.41868,-0.0459 2.96749,1.05207 5.27278,5.99067 5.27278,5.99067 5.55767,4.57248 2.62511,-9.27056 -7.94724,-18.81709 -5.78548,-5.22417 -16.95106,-5.1399 -20.42534,-9.38898 -1.50654,-1.84252 -0.45927,-2.67443 4.54436,-5.55434 2.44165,-1.40541 -3.12017,-6.63667 -1.53135,-7.17583 5.66369,-1.922 9.67801,7.3207 11.29882,0.49922 1.14858,-4.83397 -3.1946,-2.46885 -7.43455,-7.10023 -6.31757,-6.90086 -11.66411,-19.65659 -6.12403,-24.60039 7.47813,-6.67321 11.18466,20.82247 19.33353,14.97667 9.01881,-6.46982 13.81906,-4.19287 13.80966,-7.98755 -0.0147,-5.92558 -13.41354,-5.69793 -9.03905,-10.73329 6.74413,-7.76301 11.15364,0.29684 17.82148,-4.06237 7.7959,-5.09667 14.85055,-2.66056 19.08798,-2.17792 9.88904,1.12635 4.64348,7.56014 14.56292,6.73951 10.52146,-0.87034 20.52046,-12.76551 29.69498,-18.28512 5.15144,-3.09927 11.86855,2.64817 12.73834,-3.18144 0.9971,-6.6828 -5.87182,-5.5238 -12.45687,-9.48214 -6.0331,-3.62655 -2.70821,-12.35026 -12.65161,-18.47432 -5.6164,-3.45911 -1.95062,-4.44009 2.52179,-11.47523 3.94016,-6.19795 -3.32456,-8.33972 11.28788,-23.71996 3.58083,-3.76902 -1.46448,-27.99221 1.83637,-34.79628 4.19099,-8.6389 6.49114,12.56186 15.99064,-7.63765 0.97818,-2.07998 -10.09127,-15.17483 -6.45723,-19.34207 3.06203,-3.5113 8.843,9.10726 8.90058,5.46914 0.12778,-8.07403 3.64378,-11.99679 5.34029,-16.33003 0.60499,-1.54528 -8.77531,-3.46892 -4.39208,-7.85657 4.15927,-4.16347 3.10424,2.88477 6.12351,0.76814 2.56457,-1.79788 -5.08849,-8.24072 -2.20851,-10.65121 3.02661,-2.53321 6.28895,6.2019 8.76287,7.25598 3.44927,1.46962 3.41577,-7.30777 6.25154,-6.52092 8.35319,2.31778 7.44336,-6.19278 11.3244,-6.20927 1.89827,-0.008 6.66349,12.40308 2.47911,13.25313 -14.72561,2.99148 -0.89812,6.16143 0.53391,7.71422 5.22313,5.6636 16.2749,0.26255 23.85304,-1.24805 4.24978,-0.84714 1.05568,-5.11812 4.57535,-6.02659 2.92505,-0.75499 12.58415,1.9706 15.76252,0.28552 1.22961,-0.65189 6.91041,-7.61259 9.0311,-7.19846 1.74649,0.34105 -0.13348,4.84851 1.62526,4.31337 4.71526,-1.43475 8.86452,-6.98554 11.47502,-11.17515 6.42489,-10.31121 8.2937,-3.81578 23.38676,-16.80699 6.28883,-5.41306 14.47606,-6.45152 19.47016,-8.89998 5.6959,-2.79251 7.918,-6.4431 10.3371,-3.41553 0.5325,0.6664 -1.5173,6.31229 -5.8579,7.24757 -5.11223,1.10155 -3.7506,10.3249 -5.14913,11.55223 -4.54393,3.98763 -9.50435,-2.35308 -13.29295,0.67749 -4.78936,3.83108 0.70573,3.56699 1.4513,7.48073 0.97506,5.1184 13.27888,-3.18569 13.80968,1.99689 1.1784,11.50524 -2.62125,3.09869 -5.62581,5.35744 -3.0765,2.31284 12.17141,6.55128 -5.47217,11.71112 -5.75819,1.68398 -2.6817,7.97335 -4.94608,9.91865 -4.51411,3.87804 -10.09099,3.85498 -8.06009,9.20641 2.1778,5.73857 8.74716,-1.78396 12.09155,2.85664 3.92003,5.43936 15.8565,4.8512 23.0603,6.8782 28.2066,7.93678 21.6127,16.71083 33.074,21.73917 9.3915,4.12026 16.4218,-0.4969 22.4157,2.47313 9.6811,4.79708 1.283,4.70176 12.8053,10.73327 7.1156,3.72475 6.3048,17.16778 1.0044,23.96271 -5.0367,6.45684 -12.4405,18.7446 -21.9244,22.77822 -6.9872,2.97167 -15.2002,-0.46308 -20.5089,2.43251 -13.0028,7.09206 -36.0739,7.91618 -41.68009,0.49922 -1.84782,-2.44469 -9.15882,5.10186 -11.81252,3.76683 -4.27886,-2.15264 -4.82387,-11.05867 -8.35319,-8.97811 -17.7187,10.44543 -11.59451,-9.23412 -16.74375,-5.27238 -8.70421,6.69696 -46.65797,9.72185 -48.71045,16.22472 -2.33831,7.40846 -6.6805,11.39944 -15.06508,15.47589 -7.51513,3.65382 -21.46683,6.81569 -33.14551,6.89297 -7.93918,0.0529 -16.6943,-3.44543 -13.30518,1.0946 6.41216,8.58972 24.87284,3.49575 20.84005,8.48678 -7.22589,8.94277 -16.37692,-3.66239 -17.35185,3.88146 -1.35865,10.51302 -7.49153,4.25137 -10.72865,7.33217 -9.50749,9.04871 -11.72293,-7.66166 -12.34415,-0.23074 -0.99098,11.85375 -15.9566,3.31644 -17.82702,6.73951 -2.97817,5.45031 -12.41867,13.15391 -11.5499,20.21851 0.32189,2.61752 7.78676,-4.40424 10.35475,-2.49242 2.79679,2.08215 0.83397,13.07204 1.9484,15.72181 7.29516,17.34538 6.05656,12.141 -1.25542,17.97201 -2.40762,1.92001 -3.29943,-8.86669 -5.52387,-6.7395 -2.69753,2.57958 -1.87809,7.67305 0.25108,10.73328 1.728,2.48364 10.21172,0.91168 13.00637,2.70919 2.59308,1.66789 -0.54976,6.72262 2.3098,8.52332 12.27353,7.72886 4.24402,19.81763 9.54123,17.7224 6.01501,-2.3791 19.61173,-7.94622 20.33786,-2.24651 1.0165,7.97908 -25.3879,5.02288 -18.83135,9.73484 5.08187,3.65213 20.98311,-2.4344 23.71136,-6.00205 2.0985,-2.74413 3.70054,2.67044 5.88955,3.04077 1.25694,0.21267 7.08619,-0.79656 6.55529,1.71322 -1.65976,7.84629 6.97092,9.58879 22.09546,8.48679 5.52678,-0.4027 -2.01934,-15.19833 3.51519,-15.4759 46.7027,-2.34216 33.49691,21.5266 42.25595,12.7598 9.55597,-9.56428 8.01333,-3.57031 15.49355,-4.77224 2.89375,-0.46498 13.1452,1.70714 13.59971,-1.70414 1.09932,-8.25076 9.55926,-20.72533 13.8273,-19.80356 7.26101,1.56826 8.70073,10.20651 12.82842,5.88484 8.63076,-9.03623 9.85966,-17.93817 16.74076,-11.58477 3.5352,3.26403 -0.2538,9.121 -5.2646,12.47268 -3.3471,2.23901 0.1535,6.34352 0.7452,10.99078 4.5938,36.08351 9.9556,24.41741 10.3837,33.96601 0.3372,7.5239 -2.7944,15.5132 -0.8426,25.1914 l 143.8716,-0.706 0,-961.763698 -147.2218,0.358189 c 0.8046,8.064155 -17.6846,8.240801 -15.24264,15.385049 5.49644,16.08053 -4.64611,3.74454 -5.1776,7.16511 -0.63474,4.08515 2.41705,8.99386 1.10715,12.40197 -2.64187,6.87368 -6.73719,8.76498 -5.15203,12.02444 5.87889,12.0884 14.26452,30.02561 8.10151,25.73861 -3.65164,-2.54013 -12.70635,-11.08069 -15.91299,-19.64397 -3.00888,-8.03516 4.15488,-19.10628 2.91229,-24.19766 -2.48379,-10.17692 3.25445,-8.29199 -4.08351,-21.007114 -2.12904,-3.689185 -4.78917,0.140641 -4.44879,7.883714 0.27436,6.24142 3.44444,12.88211 1.87445,16.57397 -1.28915,3.03146 -5.47847,-8.20139 -7.40813,-6.20364 -2.04917,2.12147 -7.88686,11.88687 -9.52221,18.96127 -1.11098,4.80608 -10.53956,4.01635 -8.10965,6.4595 3.70547,3.72566 3.6392,8.04218 1.87228,8.31007 -7.07439,1.07261 2.81432,9.92954 -0.36032,16.44407 -1.08314,2.22266 -5.56581,-1.8066 -10.23853,-0.66429 -6.0088,1.46895 -13.26026,2.03537 -16.39008,1.90627 -4.6771,-0.19292 -3.22611,-8.86665 -2.45197,-11.25241 1.4522,-4.47548 10.68924,-3.00783 3.3124,-9.55529 -3.42077,-3.03619 -6.58071,-7.91185 -12.27486,-7.33173 -5.93819,0.60499 -14.71094,-2.38411 -16.60728,2.8742 -1.81739,5.03938 6.88096,3.46508 10.52981,12.18022 1.95102,4.65996 0.94944,15.86251 1.99919,17.60182 3.01302,4.99223 10.62744,5.7697 12.87364,10.91194 2.93668,6.72297 6.27287,20.78963 -1.00433,21.96579 -5.16271,0.83441 -3.7733,-16.59662 -17.07377,-4.99223 -4.89671,4.27228 -6.98045,10.79482 -10.21571,16.56519 -2.7322,4.87315 -6.60214,10.62194 -5.02169,15.97513 2.49214,8.44113 15.08498,6.89285 17.51615,15.35154 1.07604,3.74389 10.60046,3.21631 13.26127,4.91813 3.26635,2.08911 -0.71721,3.25757 0.40756,3.99064 8.20344,5.34665 -21.72375,-3.2983 -32.29428,-2.07694 -9.61215,1.11062 -17.56185,-6.93055 -27.88946,-7.73101 -9.02678,-0.69964 -3.69283,12.1139 0.6945,14.56829 11.07437,6.19532 22.82627,13.76826 14.41583,15.3193 -5.67129,1.04589 -9.52902,1.27893 -21.39174,-3.35936 -2.24337,-0.87715 -4.48639,-1.75517 -6.72976,-2.63231 -6.89871,-2.69737 -13.67314,-5.06699 -15.2377,-34.16039 -0.49069,-9.12454 -8.81736,-5.82661 -11.00742,-9.95289 -3.64405,-6.86571 -15.79257,0.62482 -22.84042,-15.37465 -1.38989,-3.15522 2.79183,-7.38027 6.06802,-6.2752 2.37131,0.79985 3.32907,6.86995 5.71656,7.61082 17.00391,5.27646 34.55856,9.53631 53.37039,7.23162 8.82249,-1.08088 17.46621,-1.00232 24.15984,-19.9689 3.75273,-10.63349 0.7072,-29.59184 -10.81449,-28.94971 -24.61019,1.3716 -44.39729,-19.6201 -58.2597,-19.66967 -18.29329,-0.0654 -17.43483,20.49116 -24.23221,13.73858 -3.63443,-3.61047 5.66801,-11.41745 4.48241,-12.09629 -4.00481,-2.29303 -20.69571,-2.01047 -14.63862,-5.07357 13.37657,-6.76463 -1.86202,-13.51509 -5.07217,-7.9166 -1.34306,2.3423 -0.56868,5.07401 -1.70519,6.41993 -2.08241,2.46612 -6.39507,2.36003 -12.32429,1.38397 -0.86606,-0.14257 -6.38253,-0.12673 -6.67498,-0.94958 -0.7119,-2.00303 0.49651,-4.22001 0.74476,-6.33001 0.25534,-2.1703 5.7285,-0.15966 8.94282,-1.92806 2.56094,-1.40894 2.28442,-4.74586 2.5157,-7.75356 0.18751,-2.43848 -2.783,-5.4876 -7.64027,-6.75243 -6.43308,-1.67516 -14.45176,2.30512 -14.2181,0.56468 0.43479,-3.23848 1.42596,-6.66446 -1.76885,-8.55706 -0.78442,-0.4647 -6.08205,-0.33858 -7.93183,3.15638 -2.29351,4.33333 -1.15641,13.28603 -3.26506,13.91735 -2.72581,0.81611 -1.61615,-4.66243 -3.50413,-7.37879 -2.83464,-4.07838 -7.97296,-5.91493 -7.40383,-2.71583 2.891,16.25046 -8.48253,29.61014 -7.05934,22.20096 1.89485,-9.86453 8.05722,-23.86083 -2.97465,-20.19406 -3.9235,1.3041 -2.23163,5.81946 -1.83978,11.96621 0.18292,2.86936 -6.09788,-0.44092 -7.79806,4.18021 -3.22726,8.77185 -1.4201,-0.14382 -9.4446,-0.17131 -2.27387,-0.008 -4.54774,-0.0156 -6.8216,-0.0234 -4.2607,-0.0146 4.42626,11.21503 -4.61079,10.10814 -2.77208,-0.33953 -5.79749,-2.21857 -8.31626,-1.01861 -1.72239,0.82058 -2.18576,3.13325 -3.01653,4.84297 -1.59753,3.28776 -0.5776,8.43644 -3.73229,10.30617 -2.35845,1.39782 -5.74953,0.11059 -8.14484,-1.22388 -2.09558,-1.16748 -4.63831,-5.4832 -4.63831,-5.4832" />
  </g>
</svg>
