<?xml version="1.0" encoding="UTF-8" standalone="no"?>
<!-- Created with Inkscape (http://www.inkscape.org/) -->

<svg
   xmlns:dc="http://purl.org/dc/elements/1.1/"
   xmlns:cc="http://creativecommons.org/ns#"
   xmlns:rdf="http://www.w3.org/1999/02/22-rdf-syntax-ns#"
   xmlns:svg="http://www.w3.org/2000/svg"
   xmlns="http://www.w3.org/2000/svg"
   xmlns:sodipodi="http://sodipodi.sourceforge.net/DTD/sodipodi-0.dtd"
   xmlns:inkscape="http://www.inkscape.org/namespaces/inkscape"
   width="50"
   height="50"
   id="svg2"
   version="1.1"
   inkscape:version="0.48.1 r9760"
   sodipodi:docname="map_graphics.svg"
   inkscape:export-filename="/home/luca/Projects/flappy/UserClient/Assets/supply_centre-sm1.png"
   inkscape:export-xdpi="22.5"
   inkscape:export-ydpi="22.5">
  <defs
     id="defs4">
    <inkscape:perspective
       sodipodi:type="inkscape:persp3d"
       inkscape:vp_x="0 : 25 : 1"
       inkscape:vp_y="0 : 1000 : 0"
       inkscape:vp_z="50 : 25 : 1"
       inkscape:persp3d-origin="25 : 16.666667 : 1"
       id="perspective4117" />
  </defs>
  <sodipodi:namedview
     id="base"
     pagecolor="#ffffff"
     bordercolor="#666666"
     borderopacity="1.0"
     inkscape:pageopacity="0.0"
     inkscape:pageshadow="2"
     inkscape:zoom="0.88125"
     inkscape:cx="-405.88379"
     inkscape:cy="-77.934103"
     inkscape:document-units="px"
     inkscape:current-layer="layer1"
     showgrid="false"
     inkscape:window-width="1710"
     inkscape:window-height="1023"
     inkscape:window-x="1920"
     inkscape:window-y="24"
     inkscape:window-maximized="0" />
  <metadata
     id="metadata7">
    <rdf:RDF>
      <cc:Work
         rdf:about="">
        <dc:format>image/svg+xml</dc:format>
        <dc:type
           rdf:resource="http://purl.org/dc/dcmitype/StillImage" />
        <dc:title></dc:title>
      </cc:Work>
    </rdf:RDF>
  </metadata>
  <g
     inkscape:label="Layer 1"
     inkscape:groupmode="layer"
     id="layer1"
     transform="translate(0,-1002.3622)">
    <g
       id="g6105"
       transform="translate(-97.891662,-155.66379)">
      <path
         transform="matrix(0.25796974,0,0,0.25796974,64.985308,1095.7242)"
         d="m -100.25,-212.5 c -19.1252,19.94485 11.207309,28.99972 -14.09463,40.10746 -25.30195,11.10774 -11.43768,-17.34984 -39.06438,-16.77026 -27.6267,0.57958 -12.58113,28.43066 -38.32667,18.39385 -25.74553,-10.03682 4.18053,-20.35585 -15.76432,-39.48105 -19.94485,-19.1252 -28.99972,11.20731 -40.10746,-14.09463 -11.10774,-25.30195 17.34984,-11.43768 16.77026,-39.06438 -0.57958,-27.6267 -28.43066,-12.58113 -18.39385,-38.32667 10.03682,-25.74553 20.35585,4.18053 39.48105,-15.76432 19.1252,-19.94485 -11.20731,-28.99972 14.09463,-40.10746 25.30195,-11.10774 11.43768,17.34984 39.06438,16.77026 27.6267,-0.57958 12.58113,-28.43066 38.32667,-18.39385 25.745532,10.03682 -4.18053,20.35585 15.76432,39.48105 19.94485,19.1252 28.999716,-11.20731 40.107458,14.09463 11.107742,25.30195 -17.349836,11.43768 -16.770255,39.06438 0.579581,27.6267 28.430659,12.58113 18.393844,38.32667 -10.036816,25.74553 -20.355848,-4.18053 -39.481047,15.76432 z"
         inkscape:randomized="0"
         inkscape:rounded="0.65"
         inkscape:flatsided="false"
         sodipodi:arg2="1.1571213"
         sodipodi:arg1="0.76442222"
         sodipodi:r2="101.13852"
         sodipodi:r1="75.853889"
         sodipodi:cy="-265"
         sodipodi:cx="-155"
         sodipodi:sides="8"
         id="path6101"
         style="fill:#000000;fill-opacity:1;stroke:none"
         sodipodi:type="star" />
      <path
         sodipodi:type="star"
         style="fill:#ff0000;fill-opacity:1;stroke:none"
         id="path6103"
         sodipodi:sides="8"
         sodipodi:cx="-155"
         sodipodi:cy="-265"
         sodipodi:r1="75.853889"
         sodipodi:r2="101.13852"
         sodipodi:arg1="0.76442222"
         sodipodi:arg2="1.1571213"
         inkscape:flatsided="false"
         inkscape:rounded="0.65"
         inkscape:randomized="0"
         d="m -100.25,-212.5 c -19.1252,19.94485 11.207309,28.99972 -14.09463,40.10746 -25.30195,11.10774 -11.43768,-17.34984 -39.06438,-16.77026 -27.6267,0.57958 -12.58113,28.43066 -38.32667,18.39385 -25.74553,-10.03682 4.18053,-20.35585 -15.76432,-39.48105 -19.94485,-19.1252 -28.99972,11.20731 -40.10746,-14.09463 -11.10774,-25.30195 17.34984,-11.43768 16.77026,-39.06438 -0.57958,-27.6267 -28.43066,-12.58113 -18.39385,-38.32667 10.03682,-25.74553 20.35585,4.18053 39.48105,-15.76432 19.1252,-19.94485 -11.20731,-28.99972 14.09463,-40.10746 25.30195,-11.10774 11.43768,17.34984 39.06438,16.77026 27.6267,-0.57958 12.58113,-28.43066 38.32667,-18.39385 25.745532,10.03682 -4.18053,20.35585 15.76432,39.48105 19.94485,19.1252 28.999716,-11.20731 40.107458,14.09463 11.107742,25.30195 -17.349836,11.43768 -16.770255,39.06438 0.579581,27.6267 28.430659,12.58113 18.393844,38.32667 -10.036816,25.74553 -20.355848,-4.18053 -39.481047,15.76432 z"
         transform="matrix(0.18057882,0,0,0.18057882,52.989715,1075.2156)" />
    </g>
    <g
       id="g6168"
       inkscape:export-filename="/home/luca/Projects/flappy/UserClient/Assets/fleet-big2.png"
       inkscape:export-xdpi="180"
       inkscape:export-ydpi="180"
       transform="matrix(2.0000002,0,0,2.0000002,-38.013737,-1196.4776)">
      <g
         transform="matrix(0.04599004,0,0,0.04599004,21.384176,955.21115)"
         id="g6133">
        <path
           style="fill:#000000"
           d="m -460.43728,1858.4901 c -0.36105,-3.9875 -1.07588,-9.5 -1.5885,-12.25 -1.78027,-9.5504 -2.95635,-27.0957 -2.95718,-44.1165 l -8.4e-4,-17.1165 7.25,0.4454 c 3.9875,0.245 22.72539,1.7599 41.63976,3.3665 l 34.38975,2.9211 89.36025,0 89.36024,0 0,-5.0497 c 0,-2.7773 -0.62262,-6.2648 -1.3836,-7.75 -0.76098,-1.4851 -1.70665,-5.9628 -2.10149,-9.9503 l -0.71789,-7.25 -3.69851,0 c -2.03418,0 -4.15805,-0.4595 -4.71971,-1.0212 -1.04167,-1.0417 -30.04099,-6.9684 -34.1288,-6.9751 -2.43457,0 -2.82352,-1.8861 -1.62658,-7.8708 0.72973,-3.6486 -0.17596,-3.6827 22.59111,0.8497 7.543,1.5016 13.84533,2.3378 14.00518,1.8583 0.1649,-0.4947 2.29435,-0.4976 4.92194,-0.01 4.58279,0.8561 4.64801,0.8301 6.22864,-2.4845 l 1.59735,-3.3494 30.01618,0 30.01618,0 0,14.3785 0,14.3786 -5.5,4.6988 c -5.41282,4.6243 -5.5,4.7847 -5.5,10.1214 l 0,5.4227 8.5,0 8.5,0 0,-25.5 0,-25.5 -4,0 -4,0 0,-22 0,-22 5.5,0 5.5,0 0,-11.5 0,-11.5 7,0 7,0 0.0677,10.25 c 0.0536,8.1195 0.29323,9.7823 1.15281,8 0.92144,-1.9106 1.87854,-2.25 6.34443,-2.25 l 5.25928,0 0.57848,-3.75 c 0.51488,-3.3379 7.597296,-64.6773 7.597296,-65.7989 0,-0.2481 3.15,-0.4511 7,-0.4511 l 7,0 0,35 0,35 16,0 16,0 0,-54.1208 0,-54.1208 12.11362,-12.8792 c 6.6625,-7.0836 12.67299,-12.8792 13.35666,-12.8792 0.68366,0 2.94928,3.7125 5.03469,8.25 l 3.79167,8.25 0.4754,39.25 0.4754,39.25 2.37628,0 c 2.04908,0 2.37628,-0.4819 2.37628,-3.5 0,-1.925 0.45,-3.5 1,-3.5 0.58333,0 1.0000002,-3.3333 1.0000002,-8 l 0,-8 6.5,0 6.5,0 0,8 c 0,4.6667 0.41667,8 1,8 0.55,0 1,1.575 1,3.5 0,2.4444 0.45238,3.5 1.5,3.5 1.28205,0 1.5,2.8333 1.5,19.5 l 0,19.5 18.9999998,0 19,0 0,8 c 0,6.4444 0.29167,8 1.5,8 1.31729,0 1.5,-7.5944 1.5,-62.3497 l 0,-62.3497 9.5,-27.3006 c 5.225,-15.0153 9.5,-27.4579 9.5,-27.6502 0,-0.1924 1.7388,-0.3498 3.864,-0.3498 3.36909,0 4.21348,0.5043 6.59259,3.9374 3.35361,4.8392 8.01192,22.5262 9.69554,36.8126 0.66436,5.6375 1.47717,10.25 1.80624,10.25 0.32907,0 2.0799,-15.1875 3.89074,-33.75 4.48988,-46.0248 3.41584,-41.25 9.278704,-41.25 l 4.87219,0 0,-23 0,-23 10,0 10,0 0,59 0,59 4,0 4,0 0,5 0,5 -4,0 -4,0 0,18 0,18 8,0 8,0 0,19 0,19 2.5,0 c 1.375,0 2.50895,-0.3375 2.51988,-0.75 0.0109,-0.4125 0.67699,-6.825 1.48012,-14.25 0.80313,-7.425 1.46919,-19.2375 1.48012,-26.25 l 0.0199,-12.75 3.96146,0 c 4.44222,0 3.6374,-1.5798 7.9815,15.6666 1.62418,6.4482 2.05704,11.3406 2.05704,23.25 l 0,15.0834 5.5,0 5.5,0 0,-7 0,-7 9.5,0 9.5,0 0,7 0,7 4,0 4,0 0,13 0,13 -4,0 -4,0 0,15.7722 c 0,12.9106 0.63706,20.0321 3.51116,39.25 1.93113,12.9128 3.76689,24.7153 4.07945,26.2278 0.55391,2.6803 0.7436,2.75 7.48885,2.75 l 6.92054,0 0,-2.9011 c 0,-2.3015 -1.23996,-3.9752 -6,-8.0989 l -6,-5.1979 0,-13.901 0,-13.9011 29.97432,0 29.97432,0 1.55136,3 c 1.82273,3.5248 1.48671,3.4509 5.96928,1.3133 3.36222,-1.6034 3.60352,-1.596 4.87958,0.1491 1.41058,1.9291 1.65854,1.8992 33.77119,-4.0767 2.09978,-0.3907 2.74244,-0.031 3.23635,1.8134 1.30131,4.8584 0.78559,6.8009 -1.80564,6.8009 -2.165,0 -13.28561,1.937 -29.30076,5.1037 -4.00609,0.7921 -5.25,1.4649 -5.25,2.8394 0,1.3193 -1.03934,1.9675 -3.88393,2.4224 -3.88002,0.6204 -3.88466,0.6268 -4.60189,6.3673 -0.39487,3.1605 -1.5721,7.4206 -2.61607,9.4669 -1.04396,2.0464 -1.89811,4.8636 -1.89811,6.2605 l 0,2.5398 9.5,0 9.5,0 0,12 0,12 9.5,0 9.5,0 0,-5.4227 c 0,-5.3367 -0.0872,-5.4971 -5.5,-10.1214 l -5.5,-4.6988 0,-13.3786 0,-13.3785 29.97695,0 29.97694,0 1.63807,2.5 c 2.05817,3.1412 5.11776,3.2142 24.07789,0.5746 24.0605,-3.3496 23.03191,-3.3153 23.70873,-0.7907 1.24134,4.6303 0.73588,6.7159 -1.62858,6.7198 -5.07585,0.01 -33.14772,6.0463 -34.71821,7.4675 -0.9291,0.8409 -2.83663,1.5288 -4.23896,1.5288 -2.3094,0 -2.70683,0.6256 -4.21724,6.6386 -0.91716,3.6512 -2.32187,7.9039 -3.12158,9.4503 -0.7997,1.5465 -1.45401,5.0841 -1.45401,7.8614 l 0,5.0497 23.25,0.013 c 22.08568,0.012 24.00117,-0.1417 38.25,-3.0693 8.25,-1.6951 18.6,-4.1566 23,-5.4699 4.4,-1.3134 12.725,-3.7361 18.5,-5.3838 11.36143,-3.2415 141.6572,-32.0896 144.9366,-32.0896 2.5307,0 3.6523,-2.1606 4.5421,-8.75 l 0.709,-5.25 8.002,0 8.0021,0 -0.3935,13.75 c -0.4381,15.3059 0.3667,12.6612 -13.3142,43.75 -8.5322,19.3887 -13.138,33.9783 -17.0475,54 -1.933,9.9 -3.7307,19.0125 -3.9947,20.25 l -0.48,2.25 -523.379464,0 -523.379456,0 -0.65646,-7.25 z"
           id="path6131"
           inkscape:connector-curvature="0" />
      </g>
      <g
         id="g6136"
         transform="matrix(0.04599004,0,0,0.04599004,22.23524,977.33881)">
        <path
           inkscape:connector-curvature="0"
           id="path6138"
           d="m 56.34375,1117.4062 c -3.230252,40.8628 7.491127,83.2767 -5.96875,122.9376 -8.701502,15.7905 -35.797199,12.1709 -40.9375,-4.5938 -18.4141277,-0.1288 -39.898484,-7.9794 -46.25,-26.7188 -1.403271,-4.4295 -1.377291,-9.2985 -1.40625,-13.8124 -2.23648,-0.165 -6.322414,-4.8615 -5.375,-0.5 0.843801,14.5908 -5.172215,30.4133 -19.0625,36.8437 -15.677864,8.7499 -36.691309,6.9844 -50.75,-3.6563 -6.25599,5.0572 -15.26022,5.2513 -22.375,6 -2.37403,10.7198 1.43038,21.5392 6,31.0626 3.87451,17.7477 3.09509,36.907 -2.84375,53.9687 -5.83815,13.2608 -21.35852,22.6551 -35.8125,17.8125 -14.17568,-3.3568 -27.4903,-15.2466 -28.28125,-30.4375 -1.63536,14.6843 -12.85894,27.5297 -27.65625,29.9063 -19.0083,4.0757 -38.4993,-1.3313 -57.71873,0.5202 -58.67743,-0.1648 -117.46231,0.7237 -176.00002,-4.0828 -0.0696,9.3169 -1.15646,20.1102 5,27.7188 12.06599,-0.038 23.98899,-3.8598 36.09375,-1.8122 320.843753,0.042 641.68758,0.1402 962.53125,-0.1566 4.8107,-22.9038 16.00308,-43.8659 23.5625,-65.8437 -51.43715,14.888 -104.66611,22.4975 -156.18263,37.1634 -27.59074,5.8096 -57.04577,11.3373 -84.69237,3.3053 -8.94729,-4.2791 -16.01517,-12.6903 -19.4375,-21.5624 -3.10031,19.3206 -26.58783,30.8121 -44.0625,22.6874 -11.35094,-4.1153 -19.94221,-13.7884 -25.375,-24.125 -8.24246,-2.6958 -14.60578,-9.7515 -18.65625,-16.8124 -5.34145,16.1875 -27.13319,23.7816 -41.34375,14.0312 -19.91323,-10.9161 -31.76902,-34.6884 -28.46163,-57.2775 -1.33742,-16.3455 1.54077,-32.8028 4.27413,-48.66 -7.34804,1.4707 -14.70514,-2.5773 -20.75,-5.8125 -17.05792,5.6248 -37.568,-9.5438 -35.03125,-27.9062 0.392756,-7.0473 -1.927018,-14.2484 -7.40625,-18.9063 -6.096397,-8.7773 -10.052804,-19.0098 -10.96875,-29.6563 -7.846137,3.8362 -17.680672,2.153 -24.5625,-2.875 l -0.07479,0.9972 -0.01896,0.2528 z m 161.75,150.5626 c 1.34707,3.356 1.176,-1.9507 0,0 z M -189.25,1286.875 c -3.1621,1.1682 -10.68106,0.049 -7.84375,5.1875 0.86497,3.4397 0.85823,8.5357 0.78125,11.0937 1.38698,-6.0246 5.7454,-10.6697 7.84375,-16.4062 l -0.78125,0.125 z m 494.625,1.8438 c 1.01046,2.1446 1.68636,5.6411 2.1875,1.4687 1.81243,-2.0377 -2.53318,-2.471 -2.1875,-1.4687 z"
           style="fill:#ff0000" />
      </g>
    </g>
    <g
       id="g6200"
       transform="translate(115.17686,-57.872318)"
       inkscape:export-filename="/home/luca/Projects/flappy/UserClient/army-big2.png"
       inkscape:export-xdpi="179.99998"
       inkscape:export-ydpi="179.99998">
      <path
         inkscape:connector-curvature="0"
         id="path6185"
         d="m -44.181203,948.20837 c -0.35934,-0.1642 -0.65459,-0.3858 -0.65612,-0.4924 -0.002,-0.1067 0.96505,-2.0479 2.14794,-4.3139 2.11148,-4.0447 2.15998,-4.1223 2.659,-4.2519 13.82062,-3.5897 40.78229993,-10.5094 40.94846993,-10.5094 0.15282997,0 0.27858997,-0.1942 0.38007997,-0.587 0.0834,-0.3229 0.18326,-0.6959 0.22187,-0.829 0.0832,-0.2868 0.13184,-0.3029 -2.15233997,0.7126 -0.87024003,0.3869 -1.69092003,0.7034 -1.82373003,0.7034 -0.24945,0 -0.35495,-0.27 -0.6893,-1.7641 -0.0923,-0.4126 -0.23429,-0.7754 -0.31545,-0.8063 -0.0811,-0.031 -1.25966,0.4105 -2.6189,0.9809 -1.35924,0.5703 -2.58394,1.037 -2.72157,1.037 -0.2648,0 -0.47217,-0.5295 -0.62746,-1.6022 -0.0593,-0.4093 -0.0297,-0.5873 0.10661,-0.6424 0.66009,-0.2671 10.13260003,-4.4073 10.17066003,-4.4454 0.10694,-0.107 -0.4522,-1.8741 -0.59298,-1.8741 -0.0842,0 -0.92169,0.3108 -1.86103003,0.6907 -1.86506,0.7542 -2.15537,0.8118 -2.26349,0.4489 -0.18541,-0.6222 -0.9135,-3.9509 -0.9135,-4.1763 0,-0.1901 0.27012,-0.3567 1.07051,-0.6603 0.58878,-0.2234 3.83655003,-1.4518 7.21728,-2.7298 3.38073,-1.278 6.19023,-2.3594 6.24333,-2.4031 0.0531,-0.044 -0.24215,-0.5444 -0.65612,-1.1126 -0.41396,-0.5683 -0.75266,-1.1349 -0.75266,-1.2592 0,-0.1499 0.26766,-0.3226 0.79424,-0.5125 1.5465401,-0.5577 1.4177801,-0.5956 2.2415201,0.6591 0.40389,0.6152 0.78645,1.1508 0.85014,1.1901 0.0637,0.039 3.48881,-1.1706 7.61137,-2.6889 4.12257,-1.5182 7.66262,-2.8013 7.86677,-2.8513 0.41967,-0.1028 0.34844,-0.3106 0.78242,2.2829 0.20441,1.2216 0.28013,1.4438 0.48003,1.4091 0.13053,-0.023 4.50528,-1.6872 9.72166,-3.6988 5.21637,-2.0116 9.63094,-3.6942 9.81013,-3.7392 0.2094,-0.053 0.44369,-0.3144 0.65572,-0.7328 0.32191,-0.6353 0.38134,-0.6751 2.44965,-1.6411 1.90722,-0.8908 2.45732,-1.1006 2.45732,-0.9371 0,0.029 0.24863,1.2174 0.55252,2.6406 0.30388,1.4232 0.55106,2.6891 0.54928,2.8132 -0.002,0.1604 -0.61489,0.4754 -2.11781,1.089 -1.16301,0.4748 -2.25242,0.8633 -2.42089,0.8633 -0.16848,0 -0.48594,-0.093 -0.70547,-0.2064 -0.39036,-0.2019 -0.58856,-0.1272 -9.00611,3.3931 -4.73383,1.9797 -8.66281,3.6545 -8.73107,3.7216 -0.0732,0.072 -0.002,0.6934 0.17266,1.5157 0.32926,1.5463 0.36175,1.9357 0.1615,1.9357 -0.19425,0 -14.13686,5.7996 -14.28331,5.9414 -0.0703,0.068 0.29488,1.9548 0.86001,4.4438 1.14523,5.0439 1.25874,5.7436 1.26188,7.7789 0.003,2.229 -0.22925,3.7946 -0.83913,5.6456 -0.77127,2.3409 -1.54105,3.581 -3.29072,5.3012 -0.79205,0.7787 -1.54146,1.4158 -1.66536,1.4158 -0.12391,0 -0.53271,0.202 -0.90845,0.4489 l -0.68316,0.449 -2.48633,0 -2.4863401,0 -0.68316,-0.449 c -0.37574,-0.2469 -0.76981,-0.4489 -0.87572,-0.4489 -0.29741,0 -2.32293,-1.892 -3.0249,-2.8255 -0.82438,-1.0963 -1.89745,-3.2526 -2.1237,-4.2676 -0.0991,-0.4445 -0.2517,-0.8357 -0.33912997,-0.8692 -0.1168,-0.045 -36.07399993,6.1994 -38.33123993,6.6565 -0.19114,0.039 -1.49646,1.0629 -2.90073,2.2759 -2.79127,2.4111 -2.76792,2.3998 -3.89719,1.8838 z"
         style="fill:#000000" />
      <path
         sodipodi:nodetypes="cccccccccccccccc"
         inkscape:connector-curvature="0"
         id="path6187"
         d="m 28.308466,909.26007 c -1.708811,-1.68077 -2.090044,-3.5957 -4.874851,-1.52238 -4.032259,0.82765 -8.511805,4.41857 -12.187649,3.49113 -2.0921744,3.07303 -6.5161877,2.97143 -9.5312499,4.78125 -0.887496,0.25546 -5.599191,0.96936 -3.59375,2.09375 4.3263609,-2.55061 7.5304177,5.71518 1.827393,5.87199 -3.617256,0.98268 -0.757079,2.39094 1.110107,1.15926 4.6761036,0.29588 1.8996096,7.20653 -2.21441,5.97962 -12.5095921,3.5087 -25.5164251,6.1447 -37.7543401,10.0516 -2.015153,2.9068 -2.609911,3.6116 0.21875,1.25 13.246498,-2.8629 26.796908,-4.8392 40.1875001,-7.1875 2.7313341,4.0773 5.3096094,11.2248 11.6249999,8.6563 7.686159,-4.7712 5.28534,-14.67615 3.25,-21.84377 0.893735,-5.41507 7.766558,-5.14398 11.59375,-7.5625 2.689495,-0.1247 3.790848,-2.10793 1.65625,-4.21875 z"
         style="fill:#ff0000" />
    </g>
    <g
       id="g4137"
       inkscape:export-filename="/home/luca/Projects/flappy/UserClient/Assets/Spring.png"
       inkscape:export-xdpi="90"
       inkscape:export-ydpi="90">
      <path
         inkscape:export-ydpi="92.059341"
         inkscape:export-xdpi="92.059341"
         inkscape:export-filename="/home/luca/Projects/flappy/UserClient/Assets/Spring.png"
         sodipodi:nodetypes="csccccsccccscscccccssc"
         inkscape:connector-curvature="0"
         id="path3790"
         d="m -48.80067,958.1318 c -0.61773,0.7738 0.0495,-0.4148 1.40652,-2.5059 l 0.65252,-1.0054 2.27767,0 2.27766,0 0.44982,0.6509 c 1.55113,2.2445 2.64023,4.428 3.3478,6.712 0.68702,2.2177 0.7052,3.5927 0.0723,5.4758 m 0,0 c -0.27779,0.8266 -0.55056,1.4841 -0.50058,1.2066 l 6e-4,0 c 0.0154,-0.085 0.0635,-0.3357 0.107,-0.5569 0.10259,-0.5216 0.10104,-2.6258 -0.003,-3.403 -0.0516,-0.3875 -0.17443,-0.8514 -0.36048,-1.3613 -0.49667,-1.3611 -0.77348,-1.8103 -1.60255,-2.6006 -0.44924,-0.4283 -1.64348,-1.2796 -1.88284,-1.3422 -0.0677,-0.018 -0.35713,0.2424 -0.87073,0.7824 l -0.76934,0.8089 -0.42422,-1.0672 c -0.2333,-0.5869 -0.6004,-1.4151 -0.81574,-1.8405 -0.44403,-0.8771 -1.09839,-1.9181 -1.20578,-1.9181 -0.2366,0 -1.52612,1.1746 -2.15663,1.9645"
         style="fill:#c43e7b;fill-opacity:1;stroke:#000000;stroke-width:0;stroke-miterlimit:4;stroke-opacity:1;stroke-dasharray:none;stroke-dashoffset:10" />
      <path
         inkscape:export-ydpi="92.059341"
         inkscape:export-xdpi="92.059341"
         inkscape:export-filename="/home/luca/Projects/flappy/UserClient/Assets/Spring.png"
         sodipodi:nodetypes="ssccssss"
         inkscape:connector-curvature="0"
         id="path2996"
         d="m -45.1945,972.329 c -3.66352,0.1323 -6.28201,-5.4631 -5.54955,-10.1589 0.40268,-2.5815 2.08897,-5.2165 3.81709,-7.7844 l 4.57864,0 c 2.18237,3.0777 3.31725,5.4243 4.04619,8.1614 0.3805,1.4287 0.50507,2.9787 -0.14814,4.7702 -0.89357,2.4507 -1.68568,5.0007 -4.90756,5.0424 -0.57334,0.01 -1.1282,-0.056 -1.83667,-0.031 z"
         style="fill:none;stroke:#000000;stroke-width:1;stroke-linecap:butt;stroke-linejoin:miter;stroke-miterlimit:4;stroke-opacity:1;stroke-dasharray:none" />
      <path
         inkscape:export-ydpi="92.059341"
         inkscape:export-xdpi="92.059341"
         inkscape:export-filename="/home/luca/Projects/flappy/UserClient/Assets/Spring.png"
         sodipodi:nodetypes="cccccc"
         inkscape:connector-curvature="0"
         id="path2998"
         d="m -49.56579,958.7276 c 0.87357,-1.0529 1.72984,-2.1578 2.76258,-2.7332 1.40205,1.988 1.78583,3.3649 2.41307,4.888 l 1.60871,-1.6706 c 3.28489,1.9252 3.12709,3.2428 3.77428,4.7024 0.99535,6.5542 -2.02133,7.7442 -2.92881,8.2271"
         style="fill:none;stroke:#000000;stroke-width:1;stroke-linecap:butt;stroke-linejoin:miter;stroke-miterlimit:4;stroke-opacity:1;stroke-dasharray:none" />
      <path
         inkscape:export-ydpi="92.059341"
         inkscape:export-xdpi="92.059341"
         inkscape:export-filename="/home/luca/Projects/flappy/UserClient/Assets/Spring.png"
         sodipodi:nodetypes="cc"
         inkscape:connector-curvature="0"
         id="path3000"
         d="m -44.32946,960.8194 c 0.21385,4.6659 -1.06006,8.7704 -0.928,11.5113"
         style="fill:none;stroke:#000000;stroke-width:1;stroke-linecap:butt;stroke-linejoin:miter;stroke-miterlimit:4;stroke-opacity:1;stroke-dasharray:none" />
      <path
         inkscape:export-ydpi="92.059341"
         inkscape:export-xdpi="92.059341"
         inkscape:export-filename="/home/luca/Projects/flappy/UserClient/Assets/Spring.png"
         sodipodi:nodetypes="cccc"
         inkscape:connector-curvature="0"
         id="path3002"
         d="m -50.56671,966.4344 c -0.53609,-1.305 -1.09327,-2.6242 -2.11448,-4.2527 -0.12291,2.3166 0.12434,4.5098 0.98998,6.4968 2.12427,4.2063 4.24853,3.0855 6.37278,3.6528"
         style="fill:none;stroke:#000000;stroke-width:1;stroke-linecap:butt;stroke-linejoin:miter;stroke-miterlimit:4;stroke-opacity:1;stroke-dasharray:none" />
      <path
         inkscape:export-ydpi="92.059341"
         inkscape:export-xdpi="92.059341"
         inkscape:export-filename="/home/luca/Projects/flappy/UserClient/Assets/Spring.png"
         sodipodi:nodetypes="ccsc"
         inkscape:connector-curvature="0"
         id="path3004"
         d="m -41.15445,971.645 c 3.61689,-0.7085 6.01219,-0.2113 8.14903,0.5603 -0.40605,1.2914 -2.38794,2.384 -5.44487,2.2893 -1.63338,-0.05 -3.13074,-0.7663 -3.59537,-2.3193"
         style="fill:#d48fae;fill-opacity:1;stroke:#000000;stroke-width:0.5;stroke-linecap:butt;stroke-linejoin:miter;stroke-miterlimit:4;stroke-opacity:1;stroke-dasharray:none" />
      <path
         inkscape:export-ydpi="92.059341"
         inkscape:export-xdpi="92.059341"
         inkscape:export-filename="/home/luca/Projects/flappy/UserClient/Assets/Spring.png"
         sodipodi:nodetypes="csssc"
         inkscape:connector-curvature="0"
         id="path3006"
         d="m -43.95538,972.3484 -2.16721,2.5174 c -0.63514,0.7378 -2.21175,0.8042 -3.40305,0.6188 -1.0044,-0.1564 -1.2164,-1.0373 -0.74249,-1.2375 l 4.58042,-1.935"
         style="fill:none;stroke:#000000;stroke-width:1;stroke-linecap:butt;stroke-linejoin:miter;stroke-miterlimit:4;stroke-opacity:1;stroke-dasharray:none" />
      <path
         inkscape:export-ydpi="92.059341"
         inkscape:export-xdpi="92.059341"
         inkscape:export-filename="/home/luca/Projects/flappy/UserClient/Assets/Spring.png"
         sodipodi:nodetypes="ccscsc"
         inkscape:connector-curvature="0"
         id="path3784"
         d="m -45.14293,977.8009 10e-4,-4.0217 0.55546,-0.6371 c 0.54051,-0.6199 0.55546,-0.6315 0.55531,-0.4331 0.0638,1.1089 0.19175,3.5067 0.20071,5.1789 0.003,0.5904 -0.73096,0.5307 -1.31267,-0.087 z"
         style="fill:#586d20;fill-opacity:1;stroke:#000000;stroke-width:0.5;stroke-miterlimit:4;stroke-opacity:1;stroke-dasharray:none;stroke-dashoffset:10" />
      <path
         inkscape:export-ydpi="92.059341"
         inkscape:export-xdpi="92.059341"
         inkscape:export-filename="/home/luca/Projects/flappy/UserClient/Assets/Spring.png"
         inkscape:connector-curvature="0"
         id="path3786"
         d="m -45.36561,971.1739 c 0.0212,-0.5778 0.12614,-1.6295 0.25748,-2.5833 0.52374,-3.8019 0.58723,-4.4417 0.63478,-6.3971 l 0.0382,-1.571 0.74809,-0.7669 0.74807,-0.7668 0.61006,0.4024 c 0.93411,0.6162 1.49769,1.1138 1.94079,1.7136 0.33096,0.448 0.52175,0.8349 0.88013,1.7845 0.36112,0.9568 0.45822,1.6284 0.46099,3.1883 0.005,2.8496 -0.90333,4.6355 -2.86173,5.626 -0.50909,0.2575 -1.11008,0.3448 -2.3752,0.3448 l -1.11753,0 0.0358,-0.9745 0,0 z"
         style="fill:#ce7295;fill-opacity:1;stroke:#000000;stroke-width:0.5;stroke-miterlimit:4;stroke-opacity:1;stroke-dasharray:none;stroke-dashoffset:10" />
      <path
         inkscape:export-ydpi="92.059341"
         inkscape:export-xdpi="92.059341"
         inkscape:export-filename="/home/luca/Projects/flappy/UserClient/Assets/Spring.png"
         inkscape:connector-curvature="0"
         id="path3788"
         d="m -45.83379,971.6427 c -0.79898,-0.1259 -1.50293,-0.5332 -2.26342,-1.3098 -1.39948,-1.4293 -2.311103,-3.7097 -2.511293,-6.2822 -0.0838,-1.0777 -0.0246,-1.9731 0.19554,-2.9533 0.17285,-0.7697 0.5909,-1.9382 0.943203,-2.6363 0.29459,-0.5838 2.05756,-2.4781 2.60916,-2.8036 l 0.2277,-0.1344 0.37073,0.5718 c 0.51547,0.795 1.02565,1.8161 1.50683,3.0158 0.2252,0.5615 0.455,1.1115 0.51067,1.2222 0.0888,0.1768 0.0961,0.3768 0.0595,1.6397 -0.0476,1.6448 -0.1646,2.8234 -0.5664,5.7076 -0.19177,1.3765 -0.29645,2.3694 -0.32128,3.0472 -0.0422,1.1524 0.0489,1.0427 -0.76102,0.9152 z"
         style="fill:#e996db;fill-opacity:1;stroke:#000000;stroke-width:0.5;stroke-miterlimit:4;stroke-opacity:1;stroke-dasharray:none;stroke-dashoffset:10" />
      <path
         inkscape:export-ydpi="92.059341"
         inkscape:export-xdpi="92.059341"
         inkscape:export-filename="/home/luca/Projects/flappy/UserClient/Assets/Spring.png"
         inkscape:connector-curvature="0"
         id="path3792"
         d="m -47.43367,972.0356 c -0.5407,-0.056 -1.18695,-0.236 -1.66502,-0.4646 -0.4213,-0.2016 -0.62241,-0.3508 -1.05627,-0.7838 -1.31899,-1.3164 -2.11399,-3.1744 -2.41294,-5.6394 -0.096,-0.7915 -0.14656,-2.4222 -0.0803,-2.5924 0.054,-0.1385 0.0767,-0.1155 0.33987,0.3408 0.75154,1.3029 1.57644,3.1147 1.8219,4.0015 0.32572,1.1769 0.8919,2.4104 1.493,3.2528 0.54024,0.7571 1.45507,1.5673 2.07295,1.836 l 0.19846,0.086 -0.24748,-0.01 c -0.1361,0 -0.34496,-0.018 -0.46407,-0.03 l 0,0 z"
         style="fill:#b8959b;fill-opacity:1;stroke:#000000;stroke-width:0.5;stroke-miterlimit:4;stroke-opacity:1;stroke-dasharray:none;stroke-dashoffset:10" />
      <path
         inkscape:export-ydpi="92.059341"
         inkscape:export-xdpi="92.059341"
         inkscape:export-filename="/home/luca/Projects/flappy/UserClient/Assets/Spring.png"
         inkscape:connector-curvature="0"
         id="path3794"
         d="m -49.30107,975.4854 c -0.7527,-0.1057 -1.2767,-0.5576 -1.13003,-0.9747 0.056,-0.1592 0.26942,-0.2623 2.41112,-1.1646 l 2.34971,-0.99 0.7991,0.031 0.79908,0.031 -1.09148,1.2684 c -1.15854,1.3463 -1.38373,1.5386 -1.99398,1.7026 -0.42589,0.1143 -1.6296,0.1686 -2.14352,0.096 z"
         style="fill:#b67561;fill-opacity:1;stroke:#000000;stroke-width:0.5;stroke-miterlimit:4;stroke-opacity:1;stroke-dasharray:none;stroke-dashoffset:10" />
    </g>
    <g
       id="g4151"
       inkscape:export-filename="/home/luca/Projects/flappy/UserClient/Assets/Summer.png"
       inkscape:export-xdpi="90"
       inkscape:export-ydpi="90">
      <path
         sodipodi:nodetypes="ccccccccccccccccccccccccccccc"
         inkscape:connector-curvature="0"
         id="path3851"
         d="m -15.89554,959.3678 c 0.60932,-0.6373 0.53063,-2.779 2.85204,-3.4163 1.41456,-0.3264 2.6615,-1.8861 2.89805,-2.9193 0.7219202,0.9775 1.2413802,3.5948 0.3277202,4.3386 -0.3371602,0.9271 -1.4025002,2.6507 -0.3690702,3.5778 0.9869502,-0.4995 3.2128302,-0.9095 4.1997802,0.2303 1.02302,1.061 2.79261,0.053 3.58493,-0.2706 -0.4096,0.7319 -1.4376,2.4198 -2.95435,2.9303 -1.39047,0.3352 -2.86675,1.2202 -3.1057,2.016 1.38791,0.8879 3.18994,1.5989 3.18468,2.4869 -0.45816,1.3219 1.39583,2.2854 1.99041,3.1863 -0.97534,-0.029 -3.67421,0.9494 -4.43718,-0.1413 -1.01633,-0.8268 -2.6521402,-1.581 -3.6684702,-0.9926 0.1968,1.0232 1.4851702,2.5773 0.50448,3.6004 -0.72165,0.8732 -0.70111,2.7706 -1.29263,3.8609 -0.58186,-1.1611 -3.01901,-2.3367 -2.94131,-3.2625 0.29836,-1.2267 -0.0431,-2.9093 -0.92657,-3.4468 -0.72872,0.6979 -2.12,2.4255 -3.77407,2.4294 -0.86479,-0.1019 -2.76304,0.7441 -3.86248,1.5808 -0.11072,-0.9377 0.32521,-3.1144 1.61266,-4.0522 1.15512,-0.6768 2.1645,-1.8847 2.19939,-2.5616 -0.90633,-0.01 -2.87462,0.1774 -3.78095,-1.2273 -0.2932,-1.021 -3.22635,-0.7442 -4.19039,-0.8315 -0.17912,-0.2974 1.55181,-2.9207 4.35221,-2.6138 1.28549,0.4003 2.31103,0.2197 2.89831,-0.5438 -0.29897,-0.9168 -2.14297,-2.2057 -1.32732,-4.1922 -0.30376,-1.6825 -1.06032,-2.4746 -0.87895,-3.2696 1.31004,0.094 3.42309,0.8007 4.02517,1.6025 0.48427,1.3929 2.18016,1.7993 2.87961,1.9012 z"
         style="fill:#f59300;fill-opacity:1;stroke:#000000;stroke-width:1;stroke-linecap:butt;stroke-linejoin:miter;stroke-miterlimit:4;stroke-opacity:1;stroke-dasharray:none" />
      <path
         transform="matrix(0.08255928,0,0,0.08188566,-46.40367,903.54883)"
         d="m 460,752.86218 c 0,41.14522 -33.8025,74.5 -75.5,74.5 -41.6975,0 -75.5,-33.35478 -75.5,-74.5 0,-41.14521 33.8025,-74.5 75.5,-74.5 41.6975,0 75.5,33.35479 75.5,74.5 z"
         sodipodi:ry="74.5"
         sodipodi:rx="75.5"
         sodipodi:cy="752.86218"
         sodipodi:cx="384.5"
         id="path3849"
         style="fill:#f5c600;fill-opacity:1;stroke:#000000;stroke-width:6.08111382;stroke-miterlimit:4;stroke-opacity:1;stroke-dasharray:none"
         sodipodi:type="arc" />
    </g>
    <g
       id="g4155"
       inkscape:export-filename="/home/luca/Projects/flappy/UserClient/Assets/Fall.png"
       inkscape:export-xdpi="90"
       inkscape:export-ydpi="90">
      <g
         id="g3940"
         transform="translate(-149.80239,211.08152)">
        <path
           style="fill:none;stroke:#000000;stroke-width:2;stroke-linecap:butt;stroke-linejoin:miter;stroke-miterlimit:4;stroke-opacity:1;stroke-dasharray:none"
           d="m 177.86151,764.14804 -5.14425,-4.58584 c -0.67645,1.75272 -1.4217,3.59927 -3.79194,4.37789 -1.90593,0.62608 -3.95618,1.71821 -5.34353,2.55358 -0.16089,-2.0731 1.47501,-3.9436 2.88637,-6.33115 -1.66049,-0.20485 -3.32098,-0.0788 -4.98147,-1.03463 -1.39972,-1.54528 -3.2258,-1.8115 -4.92709,-2.45206 1.77428,0.0837 2.93217,-0.85982 4.24988,-1.53704 1.1755,-0.66369 2.93451,-0.37442 5.22063,-0.40347 -0.99137,-1.60502 -2.09802,-3.18698 -2.30733,-4.94841 0.37093,-2.25311 -0.70772,-3.83434 -1.07636,-6.08745 1.84246,1.4628 3.68706,2.93128 5.05279,3.12279 2.19166,1.3679 2.50642,3.35155 3.39342,4.86442 0.14383,-2.37992 1.25998,-3.39858 2.17429,-4.69982 1.44943,-0.7006 2.54264,-2.11363 3.50592,-3.78652 -0.12406,1.84504 -0.94249,3.59087 -0.0483,5.58137 0.24786,1.70998 -0.77652,4.03076 -1.45598,5.74073 2.36212,-1.73605 4.45777,-1.95729 6.16886,-1.64738 -1.19684,1.02313 -2.40389,2.02071 -3.2838,3.83617 -1.43925,1.25044 -3.73364,2.32496 -5.1729,2.44437 l 5.1775,4.51906 z"
           id="path3886-1"
           inkscape:connector-curvature="0"
           sodipodi:nodetypes="ccsccccccccccccccccccc" />
        <path
           style="fill:#fa7000;fill-opacity:1;stroke:#000000;stroke-width:0;stroke-miterlimit:4;stroke-opacity:1;stroke-dasharray:none;stroke-dashoffset:10"
           d="m 163.69372,765.87305 c 0.0433,-0.57232 0.32395,-1.41741 0.71805,-2.16205 0.16236,-0.30678 0.72327,-1.23909 1.24647,-2.07181 0.5232,-0.83272 0.94189,-1.52342 0.93042,-1.53489 -0.0115,-0.0115 -0.59549,-0.0757 -1.29782,-0.14266 -1.45852,-0.13912 -2.08433,-0.24356 -2.68617,-0.44831 -0.62758,-0.21349 -1.0479,-0.44488 -1.39547,-0.76818 -0.77625,-0.72206 -1.40893,-1.05999 -3.04934,-1.62874 -0.82289,-0.2853 -1.05261,-0.38542 -0.88993,-0.38785 0.62823,-0.009 1.52771,-0.37068 3.25156,-1.30598 1.09389,-0.59351 1.27045,-0.62226 3.69841,-0.60215 l 1.97738,0.0164 -0.1223,-0.20103 c -1.38869,-2.28274 -1.7114,-2.88267 -1.967,-3.65678 -0.23183,-0.7021 -0.26295,-0.92916 -0.25122,-1.83322 0.014,-1.0775 -0.0766,-1.65619 -0.46078,-2.94269 -0.35627,-1.19314 -0.57284,-2.00114 -0.57303,-2.13795 -1.1e-4,-0.0787 0.15309,0.0136 0.56484,0.34034 1.61316,1.28018 2.87757,2.07142 3.78294,2.36728 0.59225,0.19354 0.73878,0.27888 1.29815,0.75599 0.54107,0.46151 1.08092,1.22981 1.56924,2.23332 0.86932,1.78645 1.04879,2.13783 1.09189,2.13783 0.0242,0 0.063,-0.21302 0.0863,-0.47338 0.10785,-1.20839 0.57996,-2.30301 1.54662,-3.5859 0.53314,-0.70756 0.64168,-0.81763 1.02392,-1.03838 0.66112,-0.3818 1.72101,-1.47275 2.33984,-2.40841 0.27523,-0.41615 0.50042,-0.72271 0.50042,-0.68126 0,0.0415 -0.0851,0.57434 -0.18902,1.1842 -0.28193,1.65389 -0.24541,2.85208 0.11275,3.69884 0.12729,0.30094 0.12056,1.24436 -0.0135,1.89943 -0.16566,0.80911 -0.47232,1.7607 -0.97331,3.0202 -0.25317,0.63648 -0.44969,1.16786 -0.43671,1.18084 0.013,0.013 0.26677,-0.1399 0.56398,-0.33974 1.49756,-1.00695 2.93038,-1.47989 4.47855,-1.47823 1.12235,10e-4 1.11663,-0.0562 0.0925,0.92889 -0.95066,0.91442 -1.50344,1.59478 -1.93197,2.37789 -0.23848,0.43582 -0.32475,0.53114 -0.78703,0.86963 -1.33407,0.97685 -3.19107,1.82599 -4.29174,1.96247 -0.19361,0.024 -0.36587,0.0661 -0.38281,0.0935 -0.0169,0.0274 1.13766,1.06994 2.56577,2.31675 l 2.59655,2.26692 -0.10042,0.15327 -0.10042,0.15326 -0.21982,-0.20765 c -0.19662,-0.18574 -4.59618,-4.09655 -4.83823,-4.30075 -0.0877,-0.074 -0.12013,-0.028 -0.29763,0.42269 -0.64241,1.63097 -1.38543,2.6928 -2.31828,3.31295 -0.46102,0.30649 -0.68457,0.40958 -1.59591,0.73597 -1.20387,0.43116 -3.0484,1.30839 -4.51015,2.14497 l -0.39124,0.22391 0.0348,-0.45969 0,0 z"
           id="path3888-3"
           inkscape:connector-curvature="0" />
        <path
           style="fill:none;stroke:#000000;stroke-width:0.5;stroke-linecap:butt;stroke-linejoin:miter;stroke-miterlimit:4;stroke-opacity:1;stroke-dasharray:none"
           d="m 162.42732,756.98174 10.26159,2.44324 -5.80269,-8.67348"
           id="path3890-5"
           inkscape:connector-curvature="0" />
        <path
           style="fill:none;stroke:#000000;stroke-width:0.5;stroke-linecap:butt;stroke-linejoin:miter;stroke-miterlimit:4;stroke-opacity:1;stroke-dasharray:none"
           d="m 172.44458,759.30282 c 0,-0.36649 0.91621,-8.12376 0.91621,-8.12376"
           id="path3892-5"
           inkscape:connector-curvature="0" />
      </g>
    </g>
    <path
       style="fill:#704e00;fill-opacity:1"
       d="m 46.602507,954.7427 c 6e-4,0 0.002,0.01 0.002,0.012 0,0.039 0.0322,0.1162 0.0719,0.1729 0.0397,0.057 0.0772,0.1786 0.0826,0.2692 0.005,0.091 0.0393,0.2241 0.075,0.2968 0.0357,0.073 0.0642,0.1829 0.0642,0.2448 2e-5,0.062 0.0451,0.2286 0.0994,0.3717 0.0544,0.143 0.0851,0.2827 0.0688,0.309 -0.0323,0.052 0.60147,0.727 0.68532,0.7297 0.0965,0 0.26659,0.1812 0.29983,0.3136 0.0269,0.1072 0.0576,0.1289 0.16368,0.1178 0.075,-0.01 0.19539,0.032 0.283,0.095 0.0838,0.06 0.18803,0.1086 0.231,0.1086 0.0776,0 0.0964,0.048 0.0811,0.2035 -0.004,0.045 0.0146,0.096 0.0428,0.1132 0.0282,0.017 0.052,0.085 0.052,0.1499 0,0.065 0.0352,0.1458 0.078,0.1805 0.0428,0.035 0.15935,0.1486 0.26006,0.2524 0.17899,0.1845 0.59239,0.3733 0.81382,0.3733 0.0563,0 0.17718,0.078 0.26924,0.1728 0.14912,0.1539 0.16041,0.1836 0.10402,0.2739 -0.0404,0.065 -0.0684,0.3228 -0.078,0.7113 -0.0124,0.5018 -0.0304,0.6256 -0.10249,0.7052 -0.0751,0.083 -0.0787,0.1128 -0.0245,0.2142 0.0547,0.1022 0.0479,0.1488 -0.0474,0.3457 -0.20682,0.4272 -0.0675,0.8431 0.44974,1.3477 0.2393,0.2334 0.3285,0.292 0.41304,0.2708 0.25036,-0.063 0.52783,-0.075 0.67155,-0.031 0.0846,0.026 0.27566,0.084 0.42374,0.1285 0.14808,0.044 0.30944,0.1157 0.35796,0.1591 0.0489,0.044 0.17983,0.08 0.29371,0.083 0.33076,0.01 0.46793,0.069 0.55224,0.2462 0.0582,0.1228 0.0628,0.1871 0.0229,0.2616 -0.029,0.054 -0.052,0.1534 -0.052,0.2218 0,0.2039 -0.15118,0.3973 -0.30595,0.3917 -0.1788,-0.01 -0.31155,0.093 -0.34572,0.26 -0.0312,0.1521 -0.13161,0.2301 -0.36561,0.2815 -0.13679,0.03 -0.15756,0.022 -0.15756,-0.064 0,-0.1378 -0.079,-0.1722 -0.2004,-0.087 -0.12608,0.088 -0.22557,0.2742 -0.2677,0.4987 -0.0175,0.093 -0.0498,0.1683 -0.0719,0.1683 -0.0221,0 -0.0548,0.044 -0.0719,0.098 -0.0171,0.054 -0.0684,0.098 -0.11473,0.098 -0.0463,0 -0.18545,0.1046 -0.309,0.2325 -0.21553,0.2231 -0.29754,0.3927 -0.30901,0.6425 -0.003,0.064 -0.0546,0.1566 -0.11626,0.2065 -0.16423,0.133 -0.1245,0.3009 0.0811,0.3427 0.19456,0.04 0.18505,0.032 0.22641,0.2249 0.0423,0.1977 -0.0703,0.2686 -0.44363,0.2769 -0.14457,0 -0.26242,0.016 -0.26159,0.031 0.003,0.051 0.2392,0.2952 0.28607,0.2952 0.0264,0 0.11083,-0.025 0.18662,-0.057 0.0758,-0.031 0.19173,-0.065 0.25853,-0.077 0.0668,-0.011 0.13841,-0.045 0.15756,-0.076 0.0221,-0.036 0.0515,-0.011 0.0811,0.067 0.0257,0.068 0.0803,0.15 0.12085,0.1836 0.0405,0.034 0.13441,0.1819 0.20957,0.3304 l 0.13615,0.2708 -0.14226,0.1147 -0.1438,0.1147 -0.17898,-0.1422 c -0.12131,-0.096 -0.23567,-0.1423 -0.35337,-0.1423 -0.0955,0 -0.18682,-0.022 -0.20346,-0.049 -0.0166,-0.027 -0.0635,-0.049 -0.10402,-0.049 -0.11882,0 -0.70992,-0.3009 -0.73886,-0.3763 -0.0146,-0.038 -0.0589,-0.058 -0.0979,-0.043 -0.0591,0.023 -0.0669,-0.04 -0.0535,-0.3764 0.0154,-0.3889 0.0103,-0.4083 -0.11932,-0.5185 -0.17985,-0.153 -0.2997,-0.1656 -0.33348,-0.037 -0.024,0.092 -0.0626,0.1025 -0.34725,0.1025 -0.17775,0 -0.37562,0.03 -0.44516,0.067 -0.10864,0.058 -0.1405,0.056 -0.23864,-0.012 -0.14301,-0.1004 -0.23218,-0.1 -0.34266,0 -0.0779,0.071 -0.0947,0.071 -0.16062,0 -0.0928,-0.093 -0.37189,-0.062 -0.63179,0.07 -0.10249,0.052 -0.22455,0.083 -0.27076,0.069 -0.21389,-0.068 -0.69297,0.2358 -0.69297,0.4391 0,0.056 -0.0258,0.1283 -0.0581,0.1606 -0.0685,0.069 -0.28454,0.079 -0.28454,0.014 0,-0.085 -0.19855,0.01 -0.31818,0.1515 -0.1152,0.1369 -0.13278,0.1417 -0.40232,0.1117 -0.17435,-0.02 -0.43673,-0.1053 -0.68533,-0.2234 -0.22158,-0.1052 -0.42452,-0.1912 -0.44974,-0.1912 -0.0252,0 -0.0522,-0.017 -0.0612,-0.038 -0.009,-0.022 -0.17103,-0.1248 -0.35949,-0.228 -0.40538,-0.2218 -0.93797,-0.6091 -0.98057,-0.7128 -0.0372,-0.091 -0.16378,-0.721 -0.2111,-1.054 -0.0303,-0.2129 -0.0904,-0.3157 -0.44057,-0.7481 -0.42777,-0.5282 -0.51512,-0.603 -0.79087,-0.6853 -0.55836,-0.1667 -0.71012,-0.2043 -0.82606,-0.205 -0.17157,-10e-4 -0.24853,-0.056 -0.27536,-0.1958 -0.0285,-0.1478 -0.11042,-0.199 -0.29371,-0.1836 l -0.14685,0.012 0.005,-0.3916 c 0.006,-0.4423 0.0389,-0.6386 0.12085,-0.7374 0.0901,-0.1086 0.0692,-0.4097 -0.0337,-0.4849 -0.084,-0.061 -0.0851,-0.072 -0.009,-0.156 0.0711,-0.079 0.0732,-0.102 0.0122,-0.1851 -0.1054,-0.1437 -0.0866,-0.2053 0.10096,-0.3213 0.10121,-0.062 0.17133,-0.1454 0.17133,-0.2019 0,-0.084 0.0136,-0.088 0.11015,-0.037 0.17712,0.094 0.32796,0.2562 0.32889,0.3534 9.6e-4,0.1024 0.18526,0.2729 0.29677,0.2753 0.0409,9e-4 0.15578,-0.053 0.25547,-0.1208 0.16716,-0.1136 0.17911,-0.1393 0.16521,-0.3305 -0.008,-0.114 -0.0626,-0.315 -0.12085,-0.4451 -0.0582,-0.1301 -0.10555,-0.2436 -0.10555,-0.254 0,-0.024 -0.28701,-0.3042 -0.4834,-0.4711 -0.18833,-0.16 -0.19189,-0.2165 -0.0184,-0.2601 0.0739,-0.018 0.16201,-0.056 0.19581,-0.084 0.073,-0.061 0.0825,-0.2845 0.0122,-0.2845 -0.11052,0 -0.0389,-0.087 0.0933,-0.1132 0.10919,-0.022 0.15086,-0.063 0.17592,-0.1775 0.027,-0.1227 0.057,-0.1499 0.1698,-0.1499 0.18842,0 0.50291,-0.1374 0.47881,-0.2096 -0.0115,-0.034 -0.0856,-0.052 -0.17592,-0.043 -0.0852,0.01 -0.15395,0 -0.15297,-0.024 0.003,-0.069 0.21268,-0.294 0.33042,-0.3549 0.0948,-0.049 0.34424,-0.5034 0.46657,-0.849 0.0167,-0.047 0.0753,-0.088 0.13003,-0.092 0.18173,-0.011 0.20098,-0.017 0.24323,-0.086 0.0268,-0.043 0.0906,-0.06 0.17745,-0.043 0.0748,0.014 0.22401,0 0.33042,-0.041 0.10641,-0.037 0.25328,-0.069 0.32737,-0.069 0.15559,0 0.2386,-0.083 0.21722,-0.2157 -0.0136,-0.085 -0.10092,-0.1726 -0.17286,-0.1744 -0.016,-4e-4 -0.0691,0.042 -0.11779,0.096 -0.0565,0.062 -0.15232,0.098 -0.26464,0.099 -0.0968,9e-4 -0.21851,0.034 -0.27077,0.073 -0.0523,0.04 -0.14209,0.072 -0.19887,0.072 -0.0568,0 -0.12841,0.026 -0.16062,0.058 -0.0454,0.045 -0.0755,0.037 -0.13309,-0.037 -0.0716,-0.092 -0.081,-0.087 -0.26923,0.1255 -0.1073,0.1211 -0.19576,0.2451 -0.19581,0.2753 -2.4e-4,0.092 -0.19804,0.5079 -0.2417,0.5079 -0.0225,0 -0.0536,0.047 -0.0688,0.1056 -0.0229,0.088 -0.0391,0.096 -0.0994,0.046 -0.0401,-0.033 -0.0804,-0.1082 -0.0887,-0.1668 -0.0268,-0.1884 -0.16216,-0.1286 -0.16216,0.072 0,0.1066 -0.0431,0.2383 -0.10555,0.3228 -0.0703,0.095 -0.0963,0.1845 -0.0795,0.2723 0.0255,0.1334 -0.0534,0.1856 -0.0994,0.066 -0.0361,-0.094 -0.29562,-0.044 -0.36714,0.07 -0.0502,0.08 -0.0447,0.093 0.0382,0.093 0.10396,0 0.22148,0.1677 0.17286,0.2463 -0.0163,0.026 -0.0911,0.047 -0.16521,0.047 -0.17824,0 -0.40467,0.2312 -0.36714,0.3747 0.0149,0.057 0.003,0.1181 -0.026,0.1362 -0.0293,0.018 -0.0535,0.082 -0.0535,0.1423 0,0.06 -0.044,0.1466 -0.0979,0.1927 -0.0539,0.046 -0.0979,0.1265 -0.0979,0.179 0,0.052 -0.0225,0.1096 -0.0505,0.127 -0.028,0.017 -0.0382,0.074 -0.0214,0.1269 0.0168,0.053 0.004,0.1282 -0.0275,0.1668 -0.0903,0.1088 -0.36116,0.2305 -0.3809,0.1713 -0.009,-0.028 -0.0614,-0.051 -0.11473,-0.051 -0.0534,0 -0.14406,-0.026 -0.20193,-0.057 -0.10581,-0.057 -0.80733,0.03 -1.36549,-0.011 l 0.0346,0.096 c 0.0247,0 0.0444,0 0.0704,0 0.40582,0.017 0.69708,0.052 0.75875,0.09 0.0551,0.035 0.22667,0.075 0.38244,0.089 0.15577,0.014 0.31734,0.052 0.35796,0.086 0.0906,0.075 0.0502,0.3109 -0.0826,0.4803 -0.0657,0.084 -0.0782,0.1387 -0.0444,0.2019 0.0605,0.113 0.006,0.7214 -0.0796,0.8919 -0.0366,0.073 -0.0673,0.2104 -0.0673,0.3059 0,0.1866 -0.12209,0.2481 -0.18204,0.092 -0.0293,-0.076 -0.12112,-0.1946 -0.257,-0.3273 -0.0317,-0.031 -0.11618,-0.1145 -0.18816,-0.1851 -0.43192,-0.21 -0.35231,0.4171 -0.63388,0.3848 l -0.0346,0.481 c 0.0397,0.035 0.0678,0.083 0.0964,0.1514 0.0642,0.1537 0.086,0.1682 0.2111,0.1408 0.0961,-0.021 0.16034,-0.01 0.20346,0.046 0.0345,0.042 0.0874,0.075 0.11779,0.075 0.0303,0 0.1597,0.091 0.28759,0.2004 0.17685,0.1516 0.23252,0.233 0.23252,0.3396 0,0.1959 0.0599,0.2264 0.5094,0.2662 0.13185,0.012 0.35213,0.059 0.48952,0.104 0.34752,0.1139 0.59489,0.1912 0.91938,0.2876 0.15316,0.046 0.30492,0.1134 0.33654,0.1515 0.0316,0.038 0.0752,0.058 0.0979,0.044 0.0227,-0.014 0.0754,0.025 0.11626,0.087 0.0683,0.1043 0.0752,0.4719 0.0168,0.8934 -0.009,0.062 0.0255,0.1145 0.0948,0.1453 0.0601,0.027 0.12167,0.08 0.13615,0.1178 0.021,0.055 -0.0126,0.062 -0.1698,0.037 -0.17314,-0.028 -0.19734,-0.02 -0.19734,0.064 0,0.052 0.0606,0.1501 0.13462,0.2172 0.43592,0.3952 0.71575,0.65 0.77252,0.7037 0.0356,0.034 0.0777,0.061 0.0933,0.061 0.0156,0 0.0944,0.059 0.1744,0.1301 0.08,0.071 0.18593,0.1539 0.23558,0.1835 0.11282,0.067 0.52434,0.3353 0.71439,0.4651 l 0.14379,0.098 -0.41456,-0.01 c -0.36089,-0.01 -0.4324,0.01 -0.56447,0.104 -0.123,0.091 -0.17077,0.1018 -0.25241,0.058 -0.22807,-0.122 -0.48302,0.01 -0.32584,0.1622 0.0953,0.095 0.12928,0.097 0.44822,0.014 0.22467,-0.058 0.24782,-0.057 0.22334,0.012 -0.015,0.043 -0.0511,0.1073 -0.0795,0.1438 -0.0675,0.087 -0.1668,0.2562 -0.20345,0.3488 -0.016,0.04 -0.0595,0.1285 -0.0979,0.1958 -0.0384,0.067 -0.10295,0.1909 -0.14226,0.2738 -0.0393,0.083 -0.10521,0.1781 -0.14686,0.2126 -0.0416,0.035 -0.0641,0.082 -0.0505,0.104 0.0136,0.022 10e-4,0.053 -0.026,0.07 -0.058,0.036 -0.0668,0.2203 -0.0107,0.2203 0.039,0 0.22835,-0.2006 0.23099,-0.2448 8.1e-4,-0.013 0.0992,-0.1556 0.21875,-0.3166 0.11952,-0.1611 0.22006,-0.33 0.22334,-0.3748 0.003,-0.045 0.0408,-0.1173 0.0841,-0.1606 0.0433,-0.043 0.0935,-0.1205 0.11014,-0.1729 0.0481,-0.1516 0.32745,-0.2968 0.57365,-0.2968 0.18449,0 0.2374,0.023 0.3289,0.1423 0.12069,0.1575 0.16394,0.1621 0.35031,0.038 0.15774,-0.1049 0.25028,-0.075 0.52011,0.1698 0.1443,0.1309 0.25293,0.1881 0.35643,0.1881 0.15726,0 0.30004,0.1246 0.34266,0.2983 0.014,0.057 0.13607,0.1629 0.28148,0.2432 l 0.25699,0.1408 0.0765,-0.1178 c 0.0619,-0.094 0.0996,-0.1096 0.18663,-0.076 0.12459,0.047 0.23544,-5e-4 0.43751,-0.1882 0.13268,-0.1232 0.1602,-0.1279 0.73427,-0.13 0.51878,0 0.60521,0.01 0.66085,0.086 0.0352,0.048 0.10208,0.087 0.14991,0.087 0.0478,0 0.10345,0.016 0.12238,0.035 0.0507,0.051 0.67256,0.053 0.8123,0 0.17726,-0.063 0.46558,0 0.6226,0.1407 0.0758,0.067 0.22987,0.166 0.34266,0.2203 0.1128,0.054 0.30555,0.2053 0.42833,0.3366 0.19724,0.2108 0.22334,0.2655 0.22334,0.4619 0,0.1223 0.0197,0.2219 0.0444,0.2219 0.0549,0 0.18907,0.3713 0.19274,0.5338 10e-4,0.065 -0.0196,0.1606 -0.0474,0.2127 -0.0278,0.052 -0.0599,0.1633 -0.0704,0.2463 -0.0105,0.083 -0.0412,0.1727 -0.0688,0.2004 -0.0276,0.028 -0.0505,0.1997 -0.0505,0.3824 0,0.2938 -0.0155,0.3497 -0.13461,0.4803 -0.0975,0.107 -0.15407,0.1353 -0.20499,0.1025 -0.0611,-0.039 -0.0611,-0.057 0,-0.1315 0.0638,-0.078 0.0597,-0.083 -0.0413,-0.057 -0.0612,0.016 -0.1797,-0.01 -0.26312,-0.048 -0.11524,-0.057 -0.2468,-0.069 -0.54917,-0.049 -0.44431,0.029 -0.56907,0.065 -0.56907,0.1606 0,0.1065 -0.0899,0.1306 -0.2677,0.072 -0.15712,-0.052 -0.1681,-0.072 -0.2004,-0.3304 -0.0213,-0.1706 -0.0131,-0.3344 0.0214,-0.4299 0.0714,-0.1975 0.0699,-0.3324 -0.003,-0.4054 -0.0447,-0.045 -0.0321,-0.11 0.0551,-0.2845 0.10999,-0.2202 0.11806,-0.2258 0.29065,-0.1943 0.20787,0.038 0.23977,0.046 0.38549,0.095 0.0603,0.02 0.13005,0.024 0.15604,0.01 0.0669,-0.041 0.006,-0.1728 -0.0796,-0.1728 -0.0394,0 -0.1051,-0.033 -0.14685,-0.075 -0.0608,-0.061 -0.15245,-0.071 -0.45893,-0.049 -0.51272,0.036 -0.63019,0.084 -0.62872,0.257 6.5e-4,0.075 -0.0137,0.2088 -0.0321,0.2983 -0.0291,0.1412 -0.0215,0.1605 0.0581,0.1468 0.0788,-0.014 0.0942,0.021 0.10709,0.2463 l 0.0153,0.2631 -0.26005,-0.035 c -0.14285,-0.019 -0.29424,-0.054 -0.33502,-0.075 -0.10857,-0.057 -1.07122,-0.047 -1.27121,0.012 -0.0942,0.028 -0.2209,0.096 -0.28147,0.1515 -0.0606,0.055 -0.11014,0.082 -0.11014,0.061 0,-0.021 -0.0588,0 -0.13156,0.047 -0.0727,0.048 -0.21039,0.094 -0.30595,0.1009 -0.21737,0.016 -0.58841,0.099 -0.63025,0.1408 -0.0698,0.07 0.10444,0.1016 0.51399,0.093 0.34784,-0.01 0.47168,-0.031 0.63943,-0.1224 0.11443,-0.062 0.20805,-0.1307 0.20805,-0.1514 0,-0.021 0.0403,-0.038 0.0887,-0.038 0.0485,0 0.117,-0.028 0.15297,-0.061 0.0534,-0.05 0.0607,-0.043 0.0398,0.037 -0.0141,0.054 -0.0394,0.1316 -0.0566,0.1729 -0.0526,0.1266 0.17822,0.092 0.2983,-0.044 0.0979,-0.1114 0.1404,-0.1219 0.48951,-0.1178 0.21157,0 0.47498,0.039 0.59049,0.081 0.1148,0.042 0.22494,0.076 0.24475,0.078 0.0198,0 0.0367,0.045 0.0367,0.096 0,0.051 0.0165,0.1097 0.0367,0.13 0.0864,0.087 0.0228,0.167 -0.17133,0.2157 -0.11442,0.029 -0.26312,0.082 -0.33042,0.1178 -0.0673,0.036 -0.16104,0.06 -0.20805,0.052 -0.10385,-0.017 -0.14117,0.033 -0.0887,0.1178 0.0281,0.046 0.24011,0.067 0.77099,0.078 0.61521,0.012 0.77036,0.031 0.96373,0.1163 0.17279,0.076 0.26025,0.091 0.35031,0.057 0.13454,-0.051 0.26722,-0.018 0.26771,0.067 1.5e-4,0.031 0.0338,0.12 0.075,0.1989 0.0411,0.079 0.0817,0.178 0.0903,0.2203 0.009,0.042 0.0303,0.112 0.0489,0.1545 0.0505,0.1153 -0.0496,0.3339 -0.17592,0.3824 -0.12196,0.047 -1.12454,1.0647 -1.21461,1.233 -0.0675,0.126 -0.0232,0.5093 0.078,0.6669 0.0383,0.06 0.0704,0.143 0.0704,0.1851 0,0.042 0.0347,0.09 0.0765,0.1056 0.006,0 0.0118,0.01 0.0168,0.011 l 4.07676,0 c 0.054,-0.062 0.0887,-0.1131 0.0887,-0.1377 0,-0.1203 0.1576,-0.2482 0.27077,-0.2187 0.14875,0.039 0.28478,-0.2509 0.25546,-0.5446 -0.0213,-0.213 -0.0132,-0.2372 0.11474,-0.3106 0.12166,-0.07 0.13553,-0.099 0.11167,-0.2493 -0.015,-0.094 0.004,-0.2594 0.0413,-0.3671 0.0372,-0.1077 0.0608,-0.2981 0.0535,-0.4223 -0.0114,-0.1942 0.007,-0.2453 0.13156,-0.3671 0.0793,-0.078 0.14459,-0.1556 0.14532,-0.1728 7.5e-4,-0.017 0.0897,-0.1814 0.19734,-0.3657 0.10769,-0.1842 0.19581,-0.3952 0.19581,-0.4681 0,-0.073 0.022,-0.1455 0.0489,-0.1621 0.0713,-0.044 0.0571,-0.2313 -0.026,-0.3411 -0.0395,-0.052 -0.0725,-0.1404 -0.0734,-0.1959 -8.6e-4,-0.055 -0.0327,-0.1414 -0.0704,-0.1912 -0.0377,-0.05 -0.0577,-0.1181 -0.0444,-0.1529 0.0134,-0.035 -0.0319,-0.1207 -0.10097,-0.1897 -0.14758,-0.1476 -0.14978,-0.1688 -0.0382,-0.309 0.11614,-0.146 0.32125,-0.1693 0.34572,-0.04 0.0102,0.054 0.0473,0.1309 0.0826,0.1713 0.0353,0.04 0.0706,0.1381 0.0795,0.2172 0.0162,0.143 0.0198,0.1435 0.38244,0.1622 0.20076,0.01 0.39902,0.037 0.44056,0.058 0.0415,0.021 0.15063,0.012 0.24323,-0.02 0.17015,-0.059 0.60149,-0.024 0.81077,0.064 0.0541,0.023 0.26103,0.023 0.46198,0 0.23203,-0.028 0.41375,-0.027 0.50328,0 0.0935,0.032 0.18299,0.033 0.26924,0 0.12747,-0.048 0.12826,-0.05 0.0352,-0.1408 -0.0834,-0.081 -0.20358,-0.096 -1.02493,-0.1193 -0.51154,-0.015 -1.09647,-0.026 -1.30028,-0.027 -0.35022,0 -0.38186,-0.012 -0.56753,-0.1714 -0.19635,-0.168 -0.27404,-0.3578 -0.11932,-0.2921 0.0426,0.018 0.13064,0.044 0.19428,0.058 0.11446,0.025 0.1143,0.024 0.0306,-0.104 -0.0465,-0.071 -0.11568,-0.1328 -0.15297,-0.1362 -0.16808,-0.015 -0.4089,-0.1277 -0.42833,-0.2004 -0.12711,-0.4752 -0.0995,-0.6339 0.1851,-1.054 0.12621,-0.1862 0.1504,-0.2022 0.22028,-0.1392 0.0661,0.06 0.0928,0.062 0.16827,0.01 0.0603,-0.044 0.17233,-0.059 0.34267,-0.041 0.13917,0.014 0.36866,0 0.51093,-0.022 0.23079,-0.042 0.26378,-0.037 0.30748,0.044 0.0342,0.064 0.10397,0.091 0.23099,0.092 0.25129,0 0.41155,0.093 0.51246,0.2937 0.0478,0.095 0.12358,0.1718 0.17133,0.1729 0.13002,0 0.21376,0.07 0.19887,0.1606 -0.0228,0.1387 0.0568,0.2034 0.24782,0.2034 0.10096,0 0.22615,0.032 0.27841,0.072 0.0523,0.04 0.14441,0.073 0.20499,0.073 0.0931,0 0.11014,-0.023 0.11014,-0.1653 0,-0.1236 -0.0246,-0.1765 -0.0948,-0.1988 -0.0525,-0.017 -0.14583,-0.1116 -0.20651,-0.2111 -0.0607,-0.1 -0.15098,-0.2104 -0.2004,-0.2463 -0.0494,-0.036 -0.12682,-0.1041 -0.17286,-0.1515 -0.046,-0.047 -0.15022,-0.1206 -0.23099,-0.1621 -0.38805,-0.1997 -0.5336,-0.2845 -0.61649,-0.3595 -0.0495,-0.045 -0.19532,-0.093 -0.3243,-0.1071 -0.12898,-0.014 -0.27732,-0.055 -0.33042,-0.092 -0.0531,-0.036 -0.13817,-0.067 -0.18816,-0.067 -0.0768,0 -0.0849,-0.025 -0.0566,-0.1591 0.0184,-0.087 0.0516,-0.1771 0.0734,-0.2004 0.0218,-0.023 -0.003,-0.1388 -0.0535,-0.257 -0.0507,-0.1182 -0.0791,-0.2474 -0.0643,-0.286 0.0334,-0.087 0.23457,-0.2234 0.33043,-0.2234 0.0391,0 0.13335,-0.031 0.20957,-0.069 0.0762,-0.038 0.1987,-0.096 0.2723,-0.13 0.0736,-0.034 0.14909,-0.1074 0.16674,-0.1637 0.0177,-0.056 0.0833,-0.1503 0.14685,-0.2096 0.0706,-0.066 0.11626,-0.1634 0.11626,-0.2509 0,-0.079 0.0331,-0.1714 0.0734,-0.205 0.0404,-0.034 0.0734,-0.1106 0.0734,-0.1713 0,-0.061 0.0342,-0.1378 0.0765,-0.1728 0.0423,-0.035 0.0664,-0.1053 0.0535,-0.1545 -0.0302,-0.1156 0.0701,-0.3825 0.14379,-0.3825 0.0312,0 0.0843,-0.033 0.11779,-0.073 0.0335,-0.04 0.0903,-0.073 0.12544,-0.073 0.10932,0 0.31339,0.5067 0.33655,0.8352 0.0229,0.3242 -0.003,0.2898 0.48951,0.6899 0.095,0.077 0.0966,0.086 0.0153,0.1759 -0.0893,0.099 -0.11799,0.3549 -0.0398,0.3549 0.057,0 0.19886,0.281 0.19886,0.3932 0,0.046 -0.0467,0.1428 -0.10402,0.2157 -0.0899,0.1142 -0.0967,0.15 -0.0459,0.2616 0.054,0.1185 0.0465,0.1403 -0.0964,0.257 -0.0972,0.079 -0.14864,0.1621 -0.13767,0.2187 0.0296,0.1529 0.13803,0.1415 0.19428,-0.02 0.0555,-0.1592 0.0704,-0.1653 0.3243,-0.1514 0.18954,0.01 0.21346,-0.092 0.0581,-0.2478 -0.12154,-0.1216 -0.10687,-0.2662 0.0275,-0.2662 0.15711,0 0.15904,-0.285 0.003,-0.4895 -0.0691,-0.091 -0.12544,-0.1986 -0.12544,-0.2402 0,-0.088 0.16224,-0.1985 0.3549,-0.2432 0.2284,-0.053 0.16862,-0.1775 -0.0857,-0.1775 -0.17045,0 -0.25424,-0.03 -0.36867,-0.1315 -0.23423,-0.2087 -0.42305,-0.554 -0.4528,-0.8307 -0.032,-0.2974 -0.12084,-0.4835 -0.33042,-0.6884 -0.10585,-0.1035 -0.14177,-0.1729 -0.11321,-0.2172 0.0231,-0.036 0.0413,-0.1064 0.0413,-0.156 0,-0.1397 0.47182,-0.3781 0.97597,-0.4941 0.0793,-0.018 0.21734,-0.097 0.30595,-0.1744 0.2315,-0.2033 0.53767,-0.2785 0.71745,-0.176 0.0762,0.043 0.19738,0.079 0.26923,0.078 0.17152,0 0.49723,-0.1536 0.61649,-0.2876 0.0806,-0.091 0.12799,-0.1025 0.31818,-0.077 0.12291,0.017 0.28349,0.072 0.35644,0.1239 0.17987,0.1268 0.35572,0.1173 0.54764,-0.029 0.16855,-0.1285 0.29649,-0.1555 0.34726,-0.073 0.0166,0.027 0.0739,0.049 0.12696,0.049 0.0531,0 0.10867,0.034 0.12392,0.073 0.0366,0.095 0.24541,0.1939 0.43597,0.2157 l 0,-1.542 c -0.0506,-0.028 -0.10794,-0.075 -0.17286,-0.1423 -0.2022,-0.2086 -0.28432,-0.2129 -0.46199,-0.028 -0.0754,0.079 -0.16429,0.1326 -0.19886,0.1193 -0.0346,-0.013 -0.0785,0 -0.0964,0.028 -0.0226,0.037 -0.0643,0.035 -0.13921,-0.01 -0.0589,-0.033 -0.12636,-0.054 -0.14991,-0.047 -0.0236,0.01 -0.0837,-0.024 -0.13309,-0.069 -0.0655,-0.059 -0.12686,-0.071 -0.2264,-0.043 -0.0751,0.021 -0.15566,0.033 -0.17898,0.028 -0.0233,-0.01 -0.0938,0.024 -0.15757,0.066 -0.0876,0.057 -0.20998,0.072 -0.49869,0.057 -0.27503,-0.014 -0.40721,-10e-5 -0.47422,0.049 -0.0512,0.037 -0.19392,0.068 -0.31666,0.069 -0.12274,0 -0.27841,0.034 -0.34572,0.072 -0.0673,0.038 -0.16644,0.071 -0.22028,0.072 -0.0539,0 -0.23008,0.057 -0.39162,0.124 -0.16154,0.067 -0.34573,0.1217 -0.40997,0.1223 -0.1102,0 -0.11541,-0.011 -0.0872,-0.2172 0.0182,-0.1328 0.0101,-0.2314 -0.0214,-0.2509 -0.0297,-0.018 0.0112,-0.071 0.0979,-0.1239 0.083,-0.051 0.15145,-0.1229 0.15145,-0.1606 0,-0.038 0.0299,-0.1269 0.0673,-0.1989 0.0514,-0.099 0.0562,-0.1703 0.0183,-0.2937 -0.0286,-0.093 -0.0331,-0.2231 -0.0107,-0.3029 0.0216,-0.077 0.0406,-0.1627 0.0428,-0.1897 0.007,-0.084 0.66684,-0.1077 1.08153,-0.04 0.31352,0.051 0.41119,0.089 0.49104,0.1866 0.0994,0.122 0.28562,0.1638 0.33961,0.076 0.0395,-0.064 0.2071,-0.024 0.30288,0.072 0.0473,0.047 0.12269,0.069 0.18357,0.053 0.0566,-0.015 0.23107,0.018 0.38856,0.073 0.29299,0.1039 0.4185,0.079 0.36102,-0.07 -0.0249,-0.065 -0.0955,-0.086 -0.49411,-0.153 -0.0775,-0.013 -0.19762,-0.061 -0.26618,-0.1055 -0.0686,-0.045 -0.18153,-0.088 -0.25087,-0.095 -0.0693,-0.01 -0.29884,-0.069 -0.51093,-0.1392 -0.2121,-0.07 -0.41304,-0.1285 -0.44669,-0.1285 -0.0337,0 -0.0884,-0.031 -0.12085,-0.07 -0.0477,-0.057 -0.15377,-0.066 -0.55224,-0.041 l -0.49257,0.031 0.0291,-0.2432 c 0.0158,-0.1337 0.0104,-0.2739 -0.0122,-0.3105 -0.0285,-0.046 0.0248,-0.1334 0.17439,-0.283 0.11879,-0.1188 0.2157,-0.2534 0.2157,-0.2999 0,-0.1165 0.26144,-0.462 0.40997,-0.5415 0.0726,-0.039 0.16828,-0.1715 0.23558,-0.3289 0.0904,-0.2115 0.14074,-0.2721 0.25088,-0.2952 0.0759,-0.016 0.17323,-0.082 0.21569,-0.1469 0.0666,-0.1016 0.0669,-0.1338 0.009,-0.2417 -0.06,-0.112 -0.0559,-0.1325 0.0306,-0.1958 0.0531,-0.039 0.0989,-0.086 0.1025,-0.1055 0.029,-0.1524 0.0916,-0.2567 0.1698,-0.2815 0.10653,-0.034 0.12079,-0.1726 0.0321,-0.3228 -0.0489,-0.083 -0.0489,-0.1092 0,-0.127 0.0336,-0.012 0.0612,-0.045 0.0612,-0.075 0,-0.094 0.20936,-0.2807 0.31513,-0.2815 0.15954,0 0.21236,-0.059 0.24935,-0.2692 0.0189,-0.1077 0.0746,-0.2675 0.12543,-0.3565 0.087,-0.1523 0.14998,-0.5024 0.1438,-0.8077 -0.004,-0.1811 0.0801,-0.3289 0.18663,-0.3289 0.1297,0 0.21323,-0.1008 0.14839,-0.1789 -0.0396,-0.048 -0.0205,-0.1023 0.075,-0.2157 0.0702,-0.083 0.12697,-0.1789 0.12697,-0.2127 0,-0.075 0.44187,-0.511 0.77252,-0.7939 -0.1293,-0.1596 -0.30325,-0.2704 -0.50023,-0.3059 -0.50286,0.488 -0.78486,0.7281 -0.85359,0.7281 -0.11962,0 -0.18722,0.086 -0.21723,0.2784 -0.0238,0.1525 -0.25199,0.5048 -0.32736,0.5048 -0.052,0 -0.0979,-0.1284 -0.0979,-0.2768 0,-0.1381 -0.11056,-0.3963 -0.28147,-0.6532 -0.14584,-0.2193 -0.49879,-0.5875 -0.56295,-0.5875 -0.006,0 -0.0156,0 -0.0275,-0.01 l -0.74957,0 c 0.0384,0.036 0.1266,0.052 0.29065,0.064 0.0891,0.01 0.1855,0.04 0.21416,0.075 0.0287,0.035 0.0774,0.063 0.10862,0.063 0.13049,0 0.61576,0.6187 0.61801,0.7879 8.8e-4,0.065 0.0339,0.1603 0.0734,0.2126 0.0395,0.052 0.0719,0.179 0.0719,0.2799 0,0.101 0.0206,0.1955 0.0459,0.2111 0.0274,0.017 0.0296,0.083 0.005,0.1622 -0.0892,0.2839 -0.10312,0.6862 -0.026,0.7633 0.10231,0.1024 0.095,0.1138 -0.0979,0.1775 -0.20534,0.068 -0.23703,0.1151 -0.24935,0.3564 -0.007,0.1334 -0.0452,0.2127 -0.13462,0.283 -0.0756,0.06 -0.11651,0.1343 -0.10555,0.1912 0.01,0.052 -0.0135,0.1195 -0.052,0.1515 -0.0385,0.032 -0.0704,0.088 -0.0704,0.1254 0,0.037 -0.022,0.067 -0.0489,0.067 -0.0269,0 -0.0489,0.041 -0.0489,0.092 0,0.051 -0.0341,0.1206 -0.075,0.1545 -0.0409,0.034 -0.10945,0.1362 -0.15297,0.2279 -0.0662,0.1396 -0.35949,0.3718 -0.35949,0.2846 0,-0.015 -0.043,0 -0.0964,0.024 -0.0564,0.03 -0.0923,0.093 -0.0857,0.1514 0.008,0.072 -0.0451,0.1317 -0.1851,0.2111 -0.18024,0.1022 -0.19598,0.1284 -0.19887,0.3243 -0.002,0.1181 -0.029,0.2218 -0.0612,0.2325 -0.0319,0.011 -0.0581,0.043 -0.0581,0.072 0,0.029 -0.0362,0.094 -0.0811,0.1438 -0.0449,0.05 -0.0826,0.1563 -0.0826,0.2371 0,0.1177 -0.0171,0.1411 -0.0857,0.1194 -0.0471,-0.015 -0.0994,0 -0.11626,0.023 -0.0169,0.027 -0.10771,0.087 -0.20193,0.1316 -0.16089,0.076 -0.17394,0.075 -0.23252,0 -0.091,-0.1245 -0.24008,-0.077 -0.26159,0.084 -0.0129,0.096 0.003,0.1346 0.0566,0.1346 0.0928,0 0.0923,0.024 0.002,0.3228 -0.0401,0.1322 -0.0729,0.302 -0.0734,0.3778 -2.9e-4,0.076 -0.0232,0.1818 -0.052,0.2356 -0.0384,0.072 -0.0367,0.118 0.008,0.1714 0.0497,0.06 0.0426,0.078 -0.0398,0.099 -0.0801,0.021 -0.12597,0.1251 -0.23252,0.5232 -0.0733,0.2736 -0.15637,0.525 -0.18357,0.5583 -0.0272,0.033 -0.0353,0.1159 -0.0184,0.1836 0.0178,0.071 0.0105,0.1224 -0.0184,0.1224 -0.0274,0 -0.0505,0.044 -0.0505,0.098 0,0.054 -0.0326,0.098 -0.0734,0.098 -0.0404,0 -0.0734,0.021 -0.0734,0.046 0,0.025 -0.0661,0.059 -0.14686,0.076 -0.0808,0.018 -0.14685,0.048 -0.14685,0.066 -10e-5,0.018 -0.0827,0.1292 -0.18357,0.2463 -0.1948,0.2262 -0.3283,0.4321 -0.51094,0.7894 -0.0619,0.1211 -0.12972,0.2281 -0.14991,0.2371 -0.0202,0.01 -0.0367,0.076 -0.0367,0.1484 0,0.1736 -0.22315,0.4956 -0.34267,0.4956 -0.25509,0 -0.46885,0.4379 -0.32277,0.6608 0.0428,0.065 0.078,0.1555 0.078,0.2004 0,0.1065 -0.24157,0.3142 -0.36714,0.3152 -0.0539,5e-4 -0.14785,0.014 -0.20958,0.031 -0.0617,0.017 -0.10986,0.01 -0.10555,-0.014 0.0184,-0.1001 -0.008,-0.1351 -0.0505,-0.067 -0.0365,0.058 -0.0595,0.06 -0.10708,0.012 -0.0475,-0.047 -0.0386,-0.082 0.0413,-0.1698 0.14603,-0.1601 0.23641,-0.4631 0.16368,-0.5507 -0.078,-0.094 0.30332,-0.5155 0.46657,-0.5155 0.18288,0 0.41303,-0.3197 0.41303,-0.5737 0,-0.115 0.0208,-0.2095 0.0459,-0.2095 0.0251,0 0.0594,-0.044 0.0765,-0.098 0.0171,-0.054 0.0644,-0.098 0.10556,-0.098 0.23757,0 0.61147,-0.5392 0.50787,-0.7328 -0.0836,-0.1563 -0.0591,-0.2939 0.0612,-0.3396 0.18131,-0.069 0.52597,-0.4509 0.64555,-0.7144 0.11954,-0.2633 0.27076,-0.9156 0.27076,-1.1702 0,-0.086 0.021,-0.1771 0.0474,-0.2035 0.10796,-0.108 -0.1184,-0.6088 -0.27536,-0.6088 -0.0372,0 -0.0658,-0.052 -0.0658,-0.1193 0,-0.066 -0.022,-0.1333 -0.0489,-0.15 -0.0269,-0.017 -0.0489,-0.074 -0.0489,-0.1269 0,-0.053 -0.033,-0.1084 -0.0734,-0.1239 -0.0572,-0.022 -0.0734,-0.119 -0.0734,-0.4391 l 0,-0.4115 0.20804,0 c 0.4693,-0.013 0.54067,-0.065 0.45739,-0.3258 -0.0322,-0.101 -0.0199,-0.1102 0.15145,-0.1117 0.21777,0 0.32843,-0.073 0.3809,-0.2432 0.0207,-0.067 0.0548,-0.1444 0.075,-0.1713 0.0202,-0.027 0.0339,-0.1186 0.0306,-0.2035 -0.005,-0.1254 0.026,-0.1743 0.16521,-0.2662 0.21593,-0.1424 0.34266,-0.2679 0.34266,-0.3396 0,-0.099 -0.20148,-0.3423 -0.25547,-0.309 -0.0287,0.018 -0.1145,0.039 -0.19121,0.047 -0.13417,0.016 -0.39869,0.1426 -0.79241,0.3809 -0.26441,0.1599 -0.29638,0.2037 -0.30442,0.4008 -0.007,0.1731 -0.0862,0.255 -0.32736,0.3426 -0.0462,0.017 -0.0969,0.073 -0.11321,0.1239 -0.0452,0.1423 -0.11191,0.066 -0.19733,-0.2279 -0.0426,-0.1464 -0.10928,-0.2841 -0.14839,-0.306 -0.0487,-0.027 -0.0782,-0.154 -0.0933,-0.4038 -0.0256,-0.4236 -0.0389,-0.512 -0.11473,-0.6991 -0.0307,-0.076 -0.0566,-0.1666 -0.0566,-0.2019 0,-0.035 -0.033,-0.092 -0.0734,-0.1255 -0.13932,-0.1156 -0.0865,-0.1878 0.11626,-0.1606 0.17729,0.024 0.19233,0.016 0.24323,-0.13 0.0429,-0.1232 0.0377,-0.199 -0.023,-0.361 -0.0421,-0.1126 -0.0799,-0.3282 -0.0841,-0.4788 -0.004,-0.154 -0.0374,-0.3109 -0.0765,-0.358 -0.0989,-0.1192 -0.48198,-0.3359 -0.53541,-0.3029 -0.0247,0.015 -0.0572,-0.017 -0.0719,-0.073 -0.0147,-0.056 -0.0461,-0.091 -0.0688,-0.076 -0.0669,0.041 -0.27714,-0.1433 -0.23711,-0.2081 0.0276,-0.045 0.0524,-0.044 0.10709,0 0.0911,0.076 0.15374,0.012 0.17439,-0.1775 0.0146,-0.1337 0.035,-0.1488 0.23558,-0.1759 0.12115,-0.016 0.26877,-0.01 0.32736,0.018 0.16074,0.073 0.35145,0.01 0.38703,-0.1362 0.002,-0.01 0.005,-0.02 0.006,-0.031 l -2.35734,0 c 0.0262,0.035 0.0507,0.081 0.0841,0.1423 0.0698,0.1282 0.18331,0.2854 0.25241,0.3503 0.0691,0.065 0.12544,0.1712 0.12544,0.2356 0,0.2056 0.0901,0.3147 0.24628,0.2983 0.0923,-0.01 0.17204,0.019 0.231,0.083 0.14616,0.1574 0.15848,0.2483 0.0581,0.4451 -0.11456,0.2247 -0.12182,0.4251 -0.0184,0.511 0.0694,0.058 0.0694,0.067 0,0.1055 -0.12758,0.071 -0.0949,0.3399 0.0627,0.5125 0.18662,0.2043 0.24456,0.5745 0.1132,0.722 -0.0496,0.056 -0.11651,0.1708 -0.14992,0.2555 -0.0508,0.129 -0.0487,0.1792 0.0168,0.3059 0.043,0.083 0.0767,0.162 0.075,0.176 -0.002,0.014 0.0117,0.1016 0.0291,0.1942 0.027,0.1439 0.0611,0.178 0.23405,0.2356 l 0.20193,0.067 0.006,0.5354 c 0.006,0.5101 5e-4,0.5409 -0.11932,0.6701 l -0.12544,0.1346 0.0918,0.2723 c 0.0569,0.1673 0.15088,0.32 0.24323,0.3977 0.15607,0.1313 0.1733,0.2015 0.17898,0.7236 10e-4,0.1346 5.3e-4,0.2742 -0.002,0.3105 -0.003,0.05 -0.061,0.06 -0.23558,0.04 -0.12789,-0.014 -0.23803,-0.027 -0.24476,-0.029 -0.007,0 -0.0122,-0.036 -0.0122,-0.077 0,-0.1056 -0.12964,-0.091 -0.24935,0.029 l -0.10249,0.104 -0.15756,-0.1529 c -0.0861,-0.083 -0.19397,-0.1515 -0.24017,-0.1515 -0.0462,0 -0.12734,-0.026 -0.18051,-0.06 -0.08,-0.05 -0.12731,-0.044 -0.27383,0.035 -0.15718,0.085 -0.18283,0.086 -0.23252,0.02 -0.0867,-0.1158 -0.19062,-0.1365 -0.44668,-0.089 -0.16622,0.031 -0.25608,0.028 -0.30442,-0.012 -0.0378,-0.031 -0.15133,-0.071 -0.25088,-0.087 -0.19796,-0.033 -0.19044,0 -0.12697,-0.5018 0.0289,-0.2263 0.0252,-0.2351 -0.21263,-0.465 l -0.24324,-0.2356 -0.0275,-0.4207 c -0.0282,-0.4134 -0.0268,-0.4254 0.10555,-0.5523 0.11551,-0.1106 0.13136,-0.1591 0.1132,-0.3365 -0.0266,-0.26 -0.0244,-0.3078 0.0168,-0.5522 0.0288,-0.1708 0.0157,-0.2199 -0.0979,-0.3549 -0.11403,-0.1355 -0.1644,-0.1576 -0.36408,-0.1576 -0.16943,0 -0.27449,-0.033 -0.39621,-0.1224 -0.0912,-0.067 -0.19596,-0.1224 -0.23252,-0.1224 -0.0365,0 -0.0888,-0.063 -0.11626,-0.1422 -0.0317,-0.091 -0.10187,-0.1626 -0.19274,-0.1943 -0.0788,-0.027 -0.1438,-0.036 -0.1438,-0.02 0,0.016 -0.0441,-0.022 -0.0979,-0.084 -0.0539,-0.062 -0.0979,-0.1393 -0.0979,-0.1714 0,-0.069 -0.16856,-0.2307 -0.20345,-0.1958 -0.0132,0.013 -0.12642,-0.072 -0.25241,-0.1896 -0.22372,-0.2084 -0.29113,-0.3357 -0.16827,-0.3198 0.16059,0.021 0.18357,-0.01 0.18357,-0.2432 0,-0.1525 -0.0265,-0.2609 -0.0734,-0.2998 -0.0404,-0.034 -0.0734,-0.078 -0.0734,-0.1 0,-0.063 0.43184,-0.4866 0.50023,-0.491 0.22497,-0.015 0.29194,-0.043 0.38702,-0.1637 0.11592,-0.1473 0.47152,-0.3228 0.65626,-0.3228 0.18368,0 0.3821,-0.3806 0.20652,-0.3962 -0.15545,-0.014 -0.31337,0.02 -0.38397,0.083 -0.0425,0.038 -0.12187,0.069 -0.17745,0.069 -0.0556,0 -0.11453,0.033 -0.13003,0.073 -0.0155,0.04 -0.0512,0.073 -0.0795,0.073 -0.0283,0 -0.14464,0.061 -0.25853,0.1347 -0.11389,0.074 -0.26762,0.1611 -0.34266,0.1942 -0.12615,0.056 -0.13999,0.05 -0.18357,-0.064 -0.0697,-0.1834 -0.0588,-0.2157 0.0704,-0.2157 0.0846,0 0.12578,-0.034 0.14838,-0.1239 0.0172,-0.069 0.019,-0.1435 0.005,-0.1668 -0.0109,-0.017 0.0342,-0.082 0.10708,-0.156 l -1.02952,0 c -0.007,0.011 -0.0135,0.021 -0.0214,0.034 -0.13021,0.2073 -0.14087,0.3553 -0.0306,0.4359 0.0691,0.051 0.0721,0.083 0.0199,0.2417 -0.0333,0.1008 -0.0501,0.2405 -0.0367,0.3106 0.0245,0.128 -0.0734,0.2799 -0.18204,0.2814 -0.0298,5e-4 -0.11668,0.051 -0.19428,0.1117 -0.18691,0.1468 -0.18195,0.3489 0.0168,0.6257 0.15436,0.2149 0.18645,0.3151 0.10096,0.3151 -0.0269,0 -0.0489,-0.022 -0.0489,-0.049 0,-0.027 -0.0661,-0.049 -0.14686,-0.049 -0.0808,0 -0.14685,-0.022 -0.14685,-0.049 0,-0.027 -0.033,-0.049 -0.0734,-0.049 -0.0404,0 -0.0734,-0.034 -0.0734,-0.077 0,-0.042 -0.0206,-0.063 -0.0459,-0.047 -0.0646,0.04 -0.37612,-0.244 -0.46657,-0.4253 -0.0986,-0.1976 -0.0947,-0.234 0.023,-0.234 0.0538,0 0.0979,-0.03 0.0979,-0.067 0,-0.088 -0.1288,-0.1937 -0.18969,-0.1561 -0.0922,0.057 -0.23779,-0.2323 -0.23711,-0.4711 3.9e-4,-0.1307 -0.0347,-0.2834 -0.0796,-0.3519 -0.0435,-0.066 -0.0903,-0.1918 -0.10555,-0.2784 -0.003,-0.016 -0.008,-0.034 -0.0122,-0.052 z m 1.76073,3.3348 c -0.0285,0 -0.0381,0.022 -0.0214,0.049 0.0166,0.027 0.0401,0.049 0.052,0.049 0.0119,0 0.0214,-0.022 0.0214,-0.049 0,-0.027 -0.0235,-0.049 -0.052,-0.049 z m -6.74463,0.7695 c -0.045,0 -0.0925,0.022 -0.12697,0.06 -0.042,0.046 -0.0636,0.099 -0.0474,0.1147 0.0598,0.06 0.28812,0.01 0.30289,-0.069 0.0137,-0.071 -0.0534,-0.1108 -0.1285,-0.1056 z m -0.10555,8.7761 c -0.0269,0 -0.049,0.022 -0.049,0.049 0,0.027 0.022,0.049 0.049,0.049 0.0269,0 0.0489,-0.022 0.0489,-0.049 0,-0.027 -0.022,-0.049 -0.0489,-0.049 z m 12.62954,6.6575 c -0.0406,0 -0.0979,0.1199 -0.0979,0.2034 0,0.026 0.0192,0.036 0.0428,0.021 0.0581,-0.036 0.10426,-0.2248 0.0551,-0.2248 z"
       id="path3957"
       inkscape:connector-curvature="0"
       sodipodi:nodetypes="csssscsscssssccsscssccccsscccccscscccsssscscccscccsccccccccccssscssscsccccccssssccscscssccccccscccsssccsccscccsscscscscccssssccsssccscscscscsccscsccssscsccscccscscsccsccccccccccsccscsccccssccscscccccsccscsccccscccccssscscccccsccscccccssccccscccsccscscscsccsccccccccccsscccsssscccccscsccccccsccsscsccscccsccscccccsscsccssccccccscccccscccccccsccccccccssccsccccsccsscsccsccccsssccssssccsssccccscccsssssccssccccccccscccccccccscccsccscsccccsccccsccccccscssscccccssssccsccsccsccssscssccscsscsccssscscccscsccssssccsccsccscsccsccscccccccsssssscsscsscsccccsscssscssccscsssscsccsccscsscsssccccssssssccscsccscsscccscsscscscscscssccccccccccscccsccsscsscccccccssscsssscssscsccsscssscccsccccsscsccsssssssccssccssccsssssscccsssssssscs"
       inkscape:export-filename="/home/luca/Projects/flappy/UserClient/Assets/Autumn.png"
       inkscape:export-xdpi="90"
       inkscape:export-ydpi="90" />
    <g
       id="g4162"
       inkscape:export-filename="/home/luca/Projects/flappy/UserClient/Assets/Winter.png"
       inkscape:export-xdpi="90"
       inkscape:export-ydpi="90">
      <g
         transform="translate(-41.80239,-51.918506)"
         id="g3983">
        <path
           style="fill:#a5ffff;fill-opacity:1;stroke:#000000;stroke-width:0.5;stroke-miterlimit:4;stroke-opacity:1;stroke-dasharray:none"
           d="m 123.22297,1027.0008 c 0.0278,-1.2056 -0.001,-1.9375 -0.0772,-1.9375 -0.067,0 -0.7757,0.3937 -1.57485,0.875 -0.79915,0.4812 -1.48013,0.875 -1.51329,0.875 -0.0332,0 -0.14417,-0.1622 -0.24668,-0.3604 l -0.18638,-0.3605 1.80817,-1.2046 1.80817,-1.2047 0,-2.8724 c 0,-1.5798 -0.0357,-2.8724 -0.0794,-2.8724 -0.0857,0 -4.53598,2.6062 -4.7185,2.7633 -0.0923,0.079 -0.43005,3.0592 -0.44696,3.9432 -0.004,0.1824 -0.12242,0.3099 -0.36952,0.3961 -0.2004,0.07 -0.39728,0.094 -0.4375,0.054 -0.0402,-0.04 -0.0731,-0.8513 -0.0731,-1.8023 0,-0.9511 -0.0251,-1.7292 -0.0558,-1.7292 -0.0307,0 -0.75583,0.4219 -1.61141,0.9375 -0.85557,0.5156 -1.60759,0.9375 -1.67116,0.9375 -0.10564,0 -0.66161,-0.8764 -0.66161,-1.0429 0,-0.039 0.61822,-0.4159 1.37383,-0.837 2.23667,-1.2465 2.2085,-1.0808 0.34195,-2.0106 -0.87493,-0.4358 -1.5905,-0.8215 -1.59015,-0.8572 3.3e-4,-0.036 0.12934,-0.2257 0.28667,-0.4223 l 0.28605,-0.3574 1.90885,0.956 1.90885,0.956 1.14823,-0.649 c 2.36972,-1.3393 3.83718,-2.2571 3.77357,-2.36 -0.0828,-0.134 -2.59402,-1.5789 -3.93584,-2.2647 l -1.01201,-0.5172 -1.21375,0.5321 c -0.66756,0.2926 -1.53394,0.6926 -1.92529,0.8888 l -0.71155,0.3567 -0.27084,-0.3803 c -0.14896,-0.2092 -0.25064,-0.3989 -0.22595,-0.4215 0.0247,-0.023 0.73628,-0.3865 1.58131,-0.8088 0.84504,-0.4223 1.50399,-0.8203 1.46435,-0.8845 -0.0397,-0.064 -0.77323,-0.5202 -1.63018,-1.0136 -0.85695,-0.4933 -1.5581,-0.9617 -1.5581,-1.0408 0,-0.079 0.15469,-0.3226 0.34375,-0.5412 l 0.34375,-0.3975 1.60104,0.9247 c 0.99948,0.5772 1.62123,0.8693 1.65477,0.7772 0.0296,-0.081 0.0685,-0.8788 0.0865,-1.7725 l 0.0327,-1.625 0.30985,0.035 c 0.17041,0.019 0.35101,0.076 0.40133,0.1264 0.0503,0.05 0.16022,1.0107 0.24424,2.1342 l 0.15276,2.0428 0.44591,0.2813 c 0.85467,0.5392 4.35609,2.568 4.43197,2.568 0.042,0 0.0764,-1.2809 0.0764,-2.8465 l 0,-2.8465 -1.71875,-1.1848 c -1.74461,-1.2025 -1.96579,-1.4597 -1.62972,-1.895 0.14541,-0.1883 0.29996,-0.1191 1.59847,0.7156 0.79062,0.5083 1.51382,0.926 1.60711,0.9282 0.13755,0 0.16117,-0.3621 0.12495,-1.9335 l -0.0447,-1.9375 0.60073,0 0.60073,0 -0.0879,2 c -0.0483,1.1 -0.0497,2 -0.003,2 0.0467,0 0.75446,-0.4276 1.57286,-0.9502 0.81841,-0.5226 1.53384,-0.9484 1.58986,-0.9463 0.056,0 0.17117,0.1738 0.2559,0.3814 l 0.15406,0.3776 -1.81031,1.2164 -1.81031,1.2164 8.8e-4,2.0086 c 5e-4,1.1047 0.0367,2.3878 0.0805,2.8512 l 0.0796,0.8427 0.70078,-0.3967 c 0.5536,-0.3134 4.01845,-2.3451 4.09372,-2.4004 0.01,-0.01 0.0867,-0.9413 0.17072,-2.0757 0.084,-1.1344 0.18845,-2.0974 0.23205,-2.1401 0.0436,-0.043 0.23246,-0.1137 0.41968,-0.1578 l 0.3404,-0.08 0.0346,1.8039 0.0346,1.804 1.625,-0.913 c 1.73987,-0.9774 1.74398,-0.9779 2.16222,-0.2691 l 0.23772,0.4029 -1.41438,0.8021 c -2.26466,1.2844 -2.21322,1.1001 -0.54043,1.936 1.84088,0.9199 1.79801,0.8821 1.48926,1.3157 l -0.25011,0.3512 -1.52964,-0.7231 c -2.48984,-1.1771 -2.23037,-1.1603 -3.87476,-0.2509 -1.67892,0.9284 -3.46738,1.9908 -3.46738,2.0597 0,0.061 2.9971,1.8442 4.1875,2.4912 l 0.875,0.4755 1.9073,-0.9553 1.90729,-0.9553 0.24398,0.4012 0.24398,0.4012 -1.54955,0.8124 c -0.85226,0.4469 -1.52446,0.8531 -1.49379,0.9027 0.0307,0.05 0.78388,0.4982 1.6738,0.9968 l 1.61801,0.9067 -0.19099,0.322 c -0.46017,0.776 -0.53063,0.8303 -0.83188,0.6416 -0.63856,-0.4002 -2.90562,-1.632 -3.00347,-1.632 -0.0583,0 -0.0909,0.7578 -0.0724,1.6841 0.0185,0.9263 -0.001,1.7189 -0.0436,1.7614 -0.0425,0.043 -0.23619,0 -0.43046,-0.092 -0.33611,-0.1607 -0.35794,-0.2233 -0.45054,-1.2926 -0.0535,-0.618 -0.1379,-1.5444 -0.1875,-2.0586 l -0.0902,-0.9349 -2.37038,-1.4089 c -1.30371,-0.7748 -2.41465,-1.4088 -2.46875,-1.4088 -0.0541,0 -0.0984,1.2849 -0.0984,2.8554 l 0,2.8554 1.80243,1.2009 c 1.50551,1.003 1.79156,1.2424 1.73649,1.453 -0.15336,0.5864 -0.33639,0.5503 -1.85348,-0.366 -0.80613,-0.4868 -1.50107,-0.849 -1.54431,-0.8048 -0.0432,0.044 -0.0635,0.9186 -0.045,1.9432 l 0.0336,1.8629 -0.59614,0 -0.59613,0 0.0447,-1.9375 0,0 z"
           id="path3975"
           inkscape:connector-curvature="0" />
      </g>
    </g>
    <path
       style="fill:#000000"
       d="m 111.18862,952.63627 c -0.37973,0.01 -0.48201,0.038 -0.80887,0.1937 -0.50411,0.2395 -0.96441,0.7054 -1.16263,1.1791 l -0.14152,0.3395 -0.0172,5.0189 c -0.0162,4.8753 -0.0118,5.0297 0.10708,5.4026 0.28777,0.9029 1.20686,1.5753 2.17612,1.5906 0.13596,0 0.41166,-0.038 0.61191,-0.089 0.67513,-0.1697 1.21062,-0.6074 1.54507,-1.2639 l 0.16637,-0.3266 0,-5.196 0,-5.196 -0.16445,-0.3377 c -0.229,-0.4714 -0.6583,-0.8932 -1.14351,-1.1237 -0.36899,-0.1753 -0.45194,-0.1919 -0.98671,-0.1919 -0.0669,0 -0.12741,-8e-4 -0.18166,0 z m -6.24343,4.7827 c -0.82229,0 -1.15033,0.153 -1.87972,0.8764 -1.33536,1.3245 -2.26834,2.7714 -2.82436,4.3823 -1.670247,4.839 0.13109,10.0416 4.48991,12.9697 0.72417,0.4865 2.10321,1.1547 2.87982,1.3968 1.62189,0.5055 3.36018,0.6963 4.90869,0.5369 3.11403,-0.3206 5.87441,-1.7244 7.8344,-3.9837 3.6791,-4.2409 3.69087,-10.3304 0.0267,-14.5731 -0.47698,-0.5523 -0.9664,-0.9486 -1.4227,-1.1551 -0.28695,-0.1299 -0.42223,-0.1541 -0.91787,-0.155 -0.51001,-9e-4 -0.62648,0.02 -0.9542,0.1661 -0.45404,0.2025 -0.93263,0.6558 -1.16455,1.1034 -0.13012,0.2511 -0.17246,0.4318 -0.19123,0.7971 -0.0404,0.7875 0.24228,1.4228 0.8433,1.8894 0.51751,0.4019 1.27135,1.5894 1.58524,2.4966 0.26119,0.7548 0.32858,1.1906 0.33081,2.1385 0.002,0.796 -0.0181,0.9957 -0.15871,1.5407 -0.34397,1.334 -0.96248,2.3796 -1.9696,3.3305 -1.33283,1.2585 -2.86211,1.8933 -4.71555,1.9596 -1.6005,0.057 -2.95937,-0.3057 -4.25853,-1.1385 -2.28723,-1.466 -3.51629,-4.161 -3.0806,-6.7533 0.24079,-1.4326 0.8803,-2.6342 2.01548,-3.7789 0.77503,-0.7815 0.91635,-1.0605 0.91787,-1.8322 9.8e-4,-0.4918 -0.02,-0.6046 -0.17019,-0.9152 -0.22475,-0.465 -0.69776,-0.9222 -1.17028,-1.133 -0.32686,-0.1457 -0.44553,-0.166 -0.9542,-0.166 z"
       id="path4199"
       inkscape:connector-curvature="0"
       sodipodi:nodetypes="sscccscscccccssssssssssssccsssssssssssssss"
       inkscape:export-filename="/home/luca/Projects/flappy/UserClient/Assets/PowerButton.png"
       inkscape:export-xdpi="90"
       inkscape:export-ydpi="90" />
    <path
       style="fill:#000000"
       d="m 142.6855,974.70628 c -0.7291,-0.1916 -1.2153,-0.4626 -1.6506,-0.92 -1.4072,-1.4787 -1.0721,-3.8692 0.6869,-4.9004 0.9049,-0.5305 2.0134,-0.5705 2.969,-0.107 0.8319,0.4035 1.4232,1.1294 1.6801,2.0623 0.053,0.1905 0.058,0.2646 0.058,0.7658 1e-4,0.494 -0.01,0.5771 -0.055,0.7567 -0.031,0.111 -0.072,0.2416 -0.091,0.2901 -0.02,0.049 -0.06,0.1486 -0.09,0.2224 -0.2414,0.5961 -0.7912,1.185 -1.4136,1.5141 -0.2605,0.1378 -0.4145,0.1955 -0.7819,0.2932 -0.2173,0.058 -0.2831,0.063 -0.7063,0.062 -0.3197,0 -0.5103,-0.014 -0.6053,-0.039 z m -2.9803,-6.9099 c -0.1022,-0.031 -0.1976,-0.1167 -0.7354,-0.657 -0.432,-0.4341 -0.6282,-0.615 -0.6519,-0.6013 -0.019,0.011 -0.026,0.011 -0.016,3e-4 0.01,-0.011 -0.01,-0.062 -0.042,-0.114 -0.091,-0.1436 -0.1122,-0.2635 -0.1044,-0.581 0.01,-0.3383 0.052,-0.4665 0.2053,-0.6058 0.053,-0.048 0.2055,-0.19 0.3383,-0.3148 1.0404,-0.9782 2.2035,-1.5519 3.6169,-1.7842 0.2816,-0.046 0.4345,-0.055 1.0008,-0.055 0.5706,0 0.7182,0.01 1.0089,0.056 1.1069,0.1815 2.1052,0.5999 2.9692,1.2443 0.1555,0.116 0.4644,0.3796 0.6863,0.5857 0.4676,0.4343 0.4701,0.4388 0.4928,0.8724 0.025,0.4799 0.052,0.4364 -0.7472,1.2339 -0.6086,0.6077 -0.6911,0.6813 -0.8065,0.7185 -0.1595,0.051 -0.2296,0.052 -0.3964,0 -0.1351,-0.04 -0.1588,-0.06 -0.5082,-0.4252 -0.3824,-0.3998 -0.9331,-0.7373 -1.5211,-0.9324 -0.7088,-0.2351 -1.615,-0.2406 -2.3148,-0.014 -0.5998,0.1942 -1.1793,0.5454 -1.562,0.9464 -0.3453,0.362 -0.3728,0.385 -0.5082,0.4252 -0.1589,0.047 -0.2489,0.047 -0.4037,-5e-4 z m -3.704,-3.667 c -0.1048,-0.036 -0.1635,-0.077 -0.2396,-0.1675 -0.1013,-0.1204 -0.8806,-0.9031 -1.1021,-1.107 -0.1601,-0.1473 -0.1975,-0.2811 -0.1871,-0.6693 0.01,-0.3842 0.046,-0.4654 0.3219,-0.724 0.1151,-0.108 0.306,-0.2873 0.4243,-0.3985 1.8582,-1.747 4.219,-2.8274 6.8363,-3.1287 0.7511,-0.087 1.9486,-0.074 2.7494,0.028 2.0757,0.2652 4.0505,1.0733 5.6989,2.332 0.4661,0.3559 0.6523,0.5206 1.4573,1.2896 0.1514,0.1447 0.1815,0.2462 0.1894,0.6398 0.01,0.328 0,0.3617 -0.053,0.4741 -0.04,0.081 -0.115,0.1657 -0.227,0.2559 -0.14,0.1128 -0.4724,0.4462 -1.0379,1.0413 -0.2422,0.255 -0.6962,0.229 -0.9149,-0.052 -0.1907,-0.2452 -0.7321,-0.7437 -1.1406,-1.0502 -2.3967,-1.7981 -5.4401,-2.3071 -8.2794,-1.3846 -0.816,0.2651 -1.727,0.7244 -2.4155,1.2178 -0.4885,0.3502 -1.1652,0.943 -1.3002,1.1393 -0.097,0.1415 -0.2183,0.2329 -0.3674,0.2778 -0.156,0.047 -0.2455,0.044 -0.4133,-0.014 z m -3.66,-3.6979 c -0.1007,-0.031 -0.2053,-0.125 -0.7887,-0.7084 -0.7835,-0.7835 -0.7522,-0.7316 -0.7372,-1.2219 0.01,-0.3399 0.055,-0.4707 0.2047,-0.6061 0.052,-0.047 0.2554,-0.2387 0.4518,-0.426 1.7915,-1.7085 3.7896,-2.954 6.0554,-3.7747 3.1333,-1.1349 6.6293,-1.3154 9.8877,-0.5103 2.4605,0.6078 4.7533,1.7585 6.7164,3.3707 0.6448,0.5295 1.564,1.4043 1.6257,1.5471 0.062,0.1433 0.073,0.7537 0.016,0.8806 -0.023,0.051 -0.321,0.3693 -0.7028,0.7505 -0.6031,0.6024 -0.6745,0.6657 -0.7901,0.7 -0.1611,0.048 -0.2275,0.047 -0.3956,0 -0.1208,-0.036 -0.1784,-0.082 -0.528,-0.4237 -0.7359,-0.7189 -1.3594,-1.2297 -2.1329,-1.7473 -1.8362,-1.2287 -3.9293,-2.0089 -6.142,-2.2893 -1.0964,-0.1389 -2.4348,-0.1389 -3.5313,0 -2.1533,0.2729 -4.216,1.0283 -6.0033,2.1986 -0.8453,0.5535 -1.4782,1.0656 -2.2701,1.8366 -0.3208,0.3123 -0.4133,0.3883 -0.5153,0.423 -0.1483,0.051 -0.2638,0.051 -0.4205,0 z"
       id="path4726"
       inkscape:connector-curvature="0"
       sodipodi:nodetypes="ssssscssssccscscccscssssssssscsssssccssssssssssssssssssscsssssssssscsssssssssss"
       inkscape:export-filename="/home/luca/Projects/flappy/UserClient/Assets/ConnectionButton.png"
       inkscape:export-xdpi="90"
       inkscape:export-ydpi="90" />
    <path
       style="fill:#000000"
       d="m 55.449408,932.73574 -0.84635,-0.72783 -0.0864,-10.89796 -0.0864,-10.89811 0.89266,-0.89258 c 0.94941,-0.94941 1.84553,-1.10628 3.25718,-0.57016 0.46705,0.17742 3.86174,2.21482 7.54376,4.52758 3.68202,2.31293 6.90588,4.28626 7.16413,4.38532 0.40533,0.15575 0.46978,-0.22639 0.47123,-2.79317 0.002,-3.57495 0.35166,-4.99482 1.44154,-5.854 1.46237,-1.15268 2.46358,-0.75031 10.26612,4.12634 8.26217,5.16405 9.10436,5.88836 9.10436,7.82974 0,1.95293 -0.87217,2.70052 -9.11086,7.81014 -8.13788,5.04685 -8.96649,5.35353 -10.45202,3.86799 -0.73958,-0.73956 -0.92652,-1.23249 -1.10712,-2.91889 -0.11946,-1.11608 -0.13488,-2.66697 -0.0342,-3.44635 0.3428,-2.65251 0.27946,-2.63405 -7.41549,2.15301 -3.89004,2.42002 -7.44358,4.54106 -7.89676,4.71335 -1.29441,0.49213 -2.19028,0.37251 -3.10562,-0.41442 z"
       id="path3843"
       inkscape:connector-curvature="0"
       inkscape:export-filename="/home/luca/Projects/flappy/UserClient/Assets/Faster.png"
       inkscape:export-xdpi="90"
       inkscape:export-ydpi="90" />
    <g
       id="g4110"
       transform="matrix(0.48815636,0,0,0.48815636,207.14308,424.13344)"
       inkscape:export-filename="/home/luca/Projects/flappy/UserClient/Assets/Pause.png"
       inkscape:export-xdpi="90"
       inkscape:export-ydpi="90">
      <g
         id="g4106">
        <path
           style="fill:#000000"
           d="m -542.09883,1047.638 c -1.94164,-2.4684 -2.07258,-3.9129 -2.07258,-22.8651 0,-18.9522 0.13094,-20.3967 2.07258,-22.8651 2.72527,-3.46466 9.60314,-3.75566 12.52243,-0.5299 1.74888,1.9325 1.90499,3.8655 1.90499,23.5883 0,21.3713 -0.0123,21.4934 -2.36078,23.3951 -3.59239,2.9089 -9.48751,2.5556 -12.06664,-0.7233 z"
           id="path4008"
           inkscape:connector-curvature="0" />
        <path
           style="fill:#000000"
           d="m -516.31063,1048.3613 c -2.34846,-1.9017 -2.36078,-2.0238 -2.36078,-23.3951 0,-19.7228 0.15611,-21.6558 1.90499,-23.5883 2.91929,-3.22576 9.79716,-2.93476 12.52243,0.5299 1.94164,2.4684 2.07258,3.9129 2.07258,22.8651 0,18.9522 -0.13094,20.3967 -2.07258,22.8651 -2.57913,3.2789 -8.47425,3.6322 -12.06664,0.7233 z"
           id="path4006"
           inkscape:connector-curvature="0" />
      </g>
    </g>
    <path
       style="fill:#000000"
       d="m 10.364228,932.96259 c -0.6012297,-0.85837 -0.7208797,-2.77993 -0.7208797,-11.57707 0,-9.93044 0.0542,-10.60209 0.9261697,-11.47403 0.50938,-0.50939 1.39503,-0.92376 1.96809,-0.92079 1.49789,0.008 17.91111,9.69431 19.0548,11.24559 0.87213,1.18295 0.89539,1.39869 0.26941,2.49944 -0.87455,1.53781 -17.73287,11.25337 -19.52949,11.25495 -0.76476,0 -1.52607,-0.397 -1.9681,-1.02809 z"
       id="path3927"
       inkscape:connector-curvature="0"
       inkscape:export-filename="/home/luca/Projects/flappy/UserClient/Assets/Play.png"
       inkscape:export-xdpi="90"
       inkscape:export-ydpi="90" />
    <g
       id="g4121"
       transform="matrix(0.48815627,0,0,0.48815627,324.81671,426.60346)"
       inkscape:export-filename="/home/luca/Projects/flappy/UserClient/Assets/Step.png"
       inkscape:export-xdpi="90"
       inkscape:export-ydpi="90">
      <path
         inkscape:connector-curvature="0"
         id="path3921"
         d="m -702.14955,1002.9943 c 12.43257,7.1809 16.19155,9.8338 16.93239,11.9497 0.74871,2.1385 0.57073,3.1413 -0.83278,4.6921 -2.32889,2.5734 -32.78441,20.0881 -34.93021,20.0881 -0.9073,0 -2.5496,-0.9 -3.6496,-2 -1.858,-1.858 -2,-3.3332 -2,-20.7774 0,-20.78094 0.6157,-23.24104 5.8067,-23.20254 1.548,0.011 9.4888,3.945 18.6735,9.25004 z"
         style="fill:#000000" />
      <path
         inkscape:connector-curvature="0"
         id="path4008-1"
         d="m -680.98798,1039.1616 c -1.94164,-2.4684 -2.07258,-3.9129 -2.07258,-22.8651 0,-18.95218 0.13094,-20.39668 2.07258,-22.86508 2.72527,-3.4647 9.60314,-3.7557 12.52243,-0.5299 1.74888,1.9325 1.90499,3.8655 1.90499,23.58828 0,21.3713 -0.0123,21.4934 -2.36078,23.3951 -3.59239,2.9089 -9.48751,2.5556 -12.06664,-0.7233 z"
         style="fill:#000000" />
    </g>
    <path
       inkscape:connector-curvature="0"
       id="path4119"
       d="m 137.80741,932.73574 0.84635,-0.72783 0.0864,-10.89796 0.0864,-10.89811 -0.89266,-0.89258 c -0.94941,-0.94941 -1.84553,-1.10628 -3.25718,-0.57016 -0.46705,0.17742 -3.86174,2.21482 -7.54376,4.52758 -3.68202,2.31293 -6.90588,4.28626 -7.16413,4.38532 -0.40533,0.15575 -0.46978,-0.22639 -0.47123,-2.79317 -0.002,-3.57495 -0.35166,-4.99482 -1.44154,-5.854 -1.46237,-1.15268 -2.46358,-0.75031 -10.26612,4.12634 -8.262172,5.16405 -9.104362,5.88836 -9.104362,7.82974 0,1.95293 0.87217,2.70052 9.110862,7.81014 8.13788,5.04685 8.96649,5.35353 10.45202,3.86799 0.73958,-0.73956 0.92652,-1.23249 1.10712,-2.91889 0.11946,-1.11608 0.13488,-2.66697 0.0342,-3.44635 -0.3428,-2.65251 -0.27946,-2.63405 7.41549,2.15301 3.89004,2.42002 7.44358,4.54106 7.89676,4.71335 1.29441,0.49213 2.19028,0.37251 3.10562,-0.41442 z"
       style="fill:#000000"
       inkscape:export-filename="/home/luca/Projects/flappy/UserClient/Assets/Slower.png"
       inkscape:export-xdpi="90"
       inkscape:export-ydpi="90" />
  </g>
</svg>
