<?xml version="1.0" encoding="UTF-8" standalone="no"?>
<!-- Created with Inkscape (http://www.inkscape.org/) -->

<svg
   xmlns:dc="http://purl.org/dc/elements/1.1/"
   xmlns:cc="http://creativecommons.org/ns#"
   xmlns:rdf="http://www.w3.org/1999/02/22-rdf-syntax-ns#"
   xmlns:svg="http://www.w3.org/2000/svg"
   xmlns="http://www.w3.org/2000/svg"
   xmlns:sodipodi="http://sodipodi.sourceforge.net/DTD/sodipodi-0.dtd"
   xmlns:inkscape="http://www.inkscape.org/namespaces/inkscape"
   width="50"
   height="50"
   id="svg2"
   version="1.1"
   inkscape:version="0.48.1 r9760"
   sodipodi:docname="map_graphics.svg"
   inkscape:export-filename="/home/luca/Projects/flappy/UserClient/Assets/supply_centre-sm1.png"
   inkscape:export-xdpi="22.5"
   inkscape:export-ydpi="22.5">
  <defs
     id="defs4" />
  <sodipodi:namedview
     id="base"
     pagecolor="#ffffff"
     bordercolor="#666666"
     borderopacity="1.0"
     inkscape:pageopacity="0.0"
     inkscape:pageshadow="2"
     inkscape:zoom="1.7625"
     inkscape:cx="25"
     inkscape:cy="70.390071"
     inkscape:document-units="px"
     inkscape:current-layer="layer1"
     showgrid="false"
     inkscape:window-width="890"
     inkscape:window-height="1023"
     inkscape:window-x="936"
     inkscape:window-y="0"
     inkscape:window-maximized="0" />
  <metadata
     id="metadata7">
    <rdf:RDF>
      <cc:Work
         rdf:about="">
        <dc:format>image/svg+xml</dc:format>
        <dc:type
           rdf:resource="http://purl.org/dc/dcmitype/StillImage" />
        <dc:title></dc:title>
      </cc:Work>
    </rdf:RDF>
  </metadata>
  <g
     inkscape:label="Layer 1"
     inkscape:groupmode="layer"
     id="layer1"
     transform="translate(0,-1002.3622)">
    <g
       id="g6105"
       transform="translate(-97.891662,-155.66379)">
      <path
         transform="matrix(0.25796974,0,0,0.25796974,64.985308,1095.7242)"
         d="m -100.25,-212.5 c -19.1252,19.94485 11.207309,28.99972 -14.09463,40.10746 -25.30195,11.10774 -11.43768,-17.34984 -39.06438,-16.77026 -27.6267,0.57958 -12.58113,28.43066 -38.32667,18.39385 -25.74553,-10.03682 4.18053,-20.35585 -15.76432,-39.48105 -19.94485,-19.1252 -28.99972,11.20731 -40.10746,-14.09463 -11.10774,-25.30195 17.34984,-11.43768 16.77026,-39.06438 -0.57958,-27.6267 -28.43066,-12.58113 -18.39385,-38.32667 10.03682,-25.74553 20.35585,4.18053 39.48105,-15.76432 19.1252,-19.94485 -11.20731,-28.99972 14.09463,-40.10746 25.30195,-11.10774 11.43768,17.34984 39.06438,16.77026 27.6267,-0.57958 12.58113,-28.43066 38.32667,-18.39385 25.745532,10.03682 -4.18053,20.35585 15.76432,39.48105 19.94485,19.1252 28.999716,-11.20731 40.107458,14.09463 11.107742,25.30195 -17.349836,11.43768 -16.770255,39.06438 0.579581,27.6267 28.430659,12.58113 18.393844,38.32667 -10.036816,25.74553 -20.355848,-4.18053 -39.481047,15.76432 z"
         inkscape:randomized="0"
         inkscape:rounded="0.65"
         inkscape:flatsided="false"
         sodipodi:arg2="1.1571213"
         sodipodi:arg1="0.76442222"
         sodipodi:r2="101.13852"
         sodipodi:r1="75.853889"
         sodipodi:cy="-265"
         sodipodi:cx="-155"
         sodipodi:sides="8"
         id="path6101"
         style="fill:#000000;fill-opacity:1;stroke:none"
         sodipodi:type="star" />
      <path
         sodipodi:type="star"
         style="fill:#ff0000;fill-opacity:1;stroke:none"
         id="path6103"
         sodipodi:sides="8"
         sodipodi:cx="-155"
         sodipodi:cy="-265"
         sodipodi:r1="75.853889"
         sodipodi:r2="101.13852"
         sodipodi:arg1="0.76442222"
         sodipodi:arg2="1.1571213"
         inkscape:flatsided="false"
         inkscape:rounded="0.65"
         inkscape:randomized="0"
         d="m -100.25,-212.5 c -19.1252,19.94485 11.207309,28.99972 -14.09463,40.10746 -25.30195,11.10774 -11.43768,-17.34984 -39.06438,-16.77026 -27.6267,0.57958 -12.58113,28.43066 -38.32667,18.39385 -25.74553,-10.03682 4.18053,-20.35585 -15.76432,-39.48105 -19.94485,-19.1252 -28.99972,11.20731 -40.10746,-14.09463 -11.10774,-25.30195 17.34984,-11.43768 16.77026,-39.06438 -0.57958,-27.6267 -28.43066,-12.58113 -18.39385,-38.32667 10.03682,-25.74553 20.35585,4.18053 39.48105,-15.76432 19.1252,-19.94485 -11.20731,-28.99972 14.09463,-40.10746 25.30195,-11.10774 11.43768,17.34984 39.06438,16.77026 27.6267,-0.57958 12.58113,-28.43066 38.32667,-18.39385 25.745532,10.03682 -4.18053,20.35585 15.76432,39.48105 19.94485,19.1252 28.999716,-11.20731 40.107458,14.09463 11.107742,25.30195 -17.349836,11.43768 -16.770255,39.06438 0.579581,27.6267 28.430659,12.58113 18.393844,38.32667 -10.036816,25.74553 -20.355848,-4.18053 -39.481047,15.76432 z"
         transform="matrix(0.18057882,0,0,0.18057882,52.989715,1075.2156)" />
    </g>
    <g
       id="g6168"
       inkscape:export-filename="/home/luca/Projects/flappy/UserClient/Assets/fleet-big1.png"
       inkscape:export-xdpi="90"
       inkscape:export-ydpi="90"
       transform="matrix(2.0000002,0,0,2.0000002,-38.013737,-1196.4776)">
      <g
         transform="matrix(0.04599004,0,0,0.04599004,21.384176,955.21115)"
         id="g6133">
        <path
           style="fill:#000000"
           d="m -460.43728,1858.4901 c -0.36105,-3.9875 -1.07588,-9.5 -1.5885,-12.25 -1.78027,-9.5504 -2.95635,-27.0957 -2.95718,-44.1165 l -8.4e-4,-17.1165 7.25,0.4454 c 3.9875,0.245 22.72539,1.7599 41.63976,3.3665 l 34.38975,2.9211 89.36025,0 89.36024,0 0,-5.0497 c 0,-2.7773 -0.62262,-6.2648 -1.3836,-7.75 -0.76098,-1.4851 -1.70665,-5.9628 -2.10149,-9.9503 l -0.71789,-7.25 -3.69851,0 c -2.03418,0 -4.15805,-0.4595 -4.71971,-1.0212 -1.04167,-1.0417 -30.04099,-6.9684 -34.1288,-6.9751 -2.43457,0 -2.82352,-1.8861 -1.62658,-7.8708 0.72973,-3.6486 -0.17596,-3.6827 22.59111,0.8497 7.543,1.5016 13.84533,2.3378 14.00518,1.8583 0.1649,-0.4947 2.29435,-0.4976 4.92194,-0.01 4.58279,0.8561 4.64801,0.8301 6.22864,-2.4845 l 1.59735,-3.3494 30.01618,0 30.01618,0 0,14.3785 0,14.3786 -5.5,4.6988 c -5.41282,4.6243 -5.5,4.7847 -5.5,10.1214 l 0,5.4227 8.5,0 8.5,0 0,-25.5 0,-25.5 -4,0 -4,0 0,-22 0,-22 5.5,0 5.5,0 0,-11.5 0,-11.5 7,0 7,0 0.0677,10.25 c 0.0536,8.1195 0.29323,9.7823 1.15281,8 0.92144,-1.9106 1.87854,-2.25 6.34443,-2.25 l 5.25928,0 0.57848,-3.75 c 0.51488,-3.3379 7.597296,-64.6773 7.597296,-65.7989 0,-0.2481 3.15,-0.4511 7,-0.4511 l 7,0 0,35 0,35 16,0 16,0 0,-54.1208 0,-54.1208 12.11362,-12.8792 c 6.6625,-7.0836 12.67299,-12.8792 13.35666,-12.8792 0.68366,0 2.94928,3.7125 5.03469,8.25 l 3.79167,8.25 0.4754,39.25 0.4754,39.25 2.37628,0 c 2.04908,0 2.37628,-0.4819 2.37628,-3.5 0,-1.925 0.45,-3.5 1,-3.5 0.58333,0 1.0000002,-3.3333 1.0000002,-8 l 0,-8 6.5,0 6.5,0 0,8 c 0,4.6667 0.41667,8 1,8 0.55,0 1,1.575 1,3.5 0,2.4444 0.45238,3.5 1.5,3.5 1.28205,0 1.5,2.8333 1.5,19.5 l 0,19.5 18.9999998,0 19,0 0,8 c 0,6.4444 0.29167,8 1.5,8 1.31729,0 1.5,-7.5944 1.5,-62.3497 l 0,-62.3497 9.5,-27.3006 c 5.225,-15.0153 9.5,-27.4579 9.5,-27.6502 0,-0.1924 1.7388,-0.3498 3.864,-0.3498 3.36909,0 4.21348,0.5043 6.59259,3.9374 3.35361,4.8392 8.01192,22.5262 9.69554,36.8126 0.66436,5.6375 1.47717,10.25 1.80624,10.25 0.32907,0 2.0799,-15.1875 3.89074,-33.75 4.48988,-46.0248 3.41584,-41.25 9.278704,-41.25 l 4.87219,0 0,-23 0,-23 10,0 10,0 0,59 0,59 4,0 4,0 0,5 0,5 -4,0 -4,0 0,18 0,18 8,0 8,0 0,19 0,19 2.5,0 c 1.375,0 2.50895,-0.3375 2.51988,-0.75 0.0109,-0.4125 0.67699,-6.825 1.48012,-14.25 0.80313,-7.425 1.46919,-19.2375 1.48012,-26.25 l 0.0199,-12.75 3.96146,0 c 4.44222,0 3.6374,-1.5798 7.9815,15.6666 1.62418,6.4482 2.05704,11.3406 2.05704,23.25 l 0,15.0834 5.5,0 5.5,0 0,-7 0,-7 9.5,0 9.5,0 0,7 0,7 4,0 4,0 0,13 0,13 -4,0 -4,0 0,15.7722 c 0,12.9106 0.63706,20.0321 3.51116,39.25 1.93113,12.9128 3.76689,24.7153 4.07945,26.2278 0.55391,2.6803 0.7436,2.75 7.48885,2.75 l 6.92054,0 0,-2.9011 c 0,-2.3015 -1.23996,-3.9752 -6,-8.0989 l -6,-5.1979 0,-13.901 0,-13.9011 29.97432,0 29.97432,0 1.55136,3 c 1.82273,3.5248 1.48671,3.4509 5.96928,1.3133 3.36222,-1.6034 3.60352,-1.596 4.87958,0.1491 1.41058,1.9291 1.65854,1.8992 33.77119,-4.0767 2.09978,-0.3907 2.74244,-0.031 3.23635,1.8134 1.30131,4.8584 0.78559,6.8009 -1.80564,6.8009 -2.165,0 -13.28561,1.937 -29.30076,5.1037 -4.00609,0.7921 -5.25,1.4649 -5.25,2.8394 0,1.3193 -1.03934,1.9675 -3.88393,2.4224 -3.88002,0.6204 -3.88466,0.6268 -4.60189,6.3673 -0.39487,3.1605 -1.5721,7.4206 -2.61607,9.4669 -1.04396,2.0464 -1.89811,4.8636 -1.89811,6.2605 l 0,2.5398 9.5,0 9.5,0 0,12 0,12 9.5,0 9.5,0 0,-5.4227 c 0,-5.3367 -0.0872,-5.4971 -5.5,-10.1214 l -5.5,-4.6988 0,-13.3786 0,-13.3785 29.97695,0 29.97694,0 1.63807,2.5 c 2.05817,3.1412 5.11776,3.2142 24.07789,0.5746 24.0605,-3.3496 23.03191,-3.3153 23.70873,-0.7907 1.24134,4.6303 0.73588,6.7159 -1.62858,6.7198 -5.07585,0.01 -33.14772,6.0463 -34.71821,7.4675 -0.9291,0.8409 -2.83663,1.5288 -4.23896,1.5288 -2.3094,0 -2.70683,0.6256 -4.21724,6.6386 -0.91716,3.6512 -2.32187,7.9039 -3.12158,9.4503 -0.7997,1.5465 -1.45401,5.0841 -1.45401,7.8614 l 0,5.0497 23.25,0.013 c 22.08568,0.012 24.00117,-0.1417 38.25,-3.0693 8.25,-1.6951 18.6,-4.1566 23,-5.4699 4.4,-1.3134 12.725,-3.7361 18.5,-5.3838 11.36143,-3.2415 141.6572,-32.0896 144.9366,-32.0896 2.5307,0 3.6523,-2.1606 4.5421,-8.75 l 0.709,-5.25 8.002,0 8.0021,0 -0.3935,13.75 c -0.4381,15.3059 0.3667,12.6612 -13.3142,43.75 -8.5322,19.3887 -13.138,33.9783 -17.0475,54 -1.933,9.9 -3.7307,19.0125 -3.9947,20.25 l -0.48,2.25 -523.379464,0 -523.379456,0 -0.65646,-7.25 z"
           id="path6131"
           inkscape:connector-curvature="0" />
      </g>
      <g
         id="g6136"
         transform="matrix(0.04599004,0,0,0.04599004,22.23524,977.33881)">
        <path
           inkscape:connector-curvature="0"
           id="path6138"
           d="m 56.34375,1117.4062 c -3.230252,40.8628 7.491127,83.2767 -5.96875,122.9376 -8.701502,15.7905 -35.797199,12.1709 -40.9375,-4.5938 -18.4141277,-0.1288 -39.898484,-7.9794 -46.25,-26.7188 -1.403271,-4.4295 -1.377291,-9.2985 -1.40625,-13.8124 -2.23648,-0.165 -6.322414,-4.8615 -5.375,-0.5 0.843801,14.5908 -5.172215,30.4133 -19.0625,36.8437 -15.677864,8.7499 -36.691309,6.9844 -50.75,-3.6563 -6.25599,5.0572 -15.26022,5.2513 -22.375,6 -2.37403,10.7198 1.43038,21.5392 6,31.0626 3.87451,17.7477 3.09509,36.907 -2.84375,53.9687 -5.83815,13.2608 -21.35852,22.6551 -35.8125,17.8125 -14.17568,-3.3568 -27.4903,-15.2466 -28.28125,-30.4375 -1.63536,14.6843 -12.85894,27.5297 -27.65625,29.9063 -19.0083,4.0757 -38.4993,-1.3313 -57.71873,0.5202 -58.67743,-0.1648 -117.46231,0.7237 -176.00002,-4.0828 -0.0696,9.3169 -1.15646,20.1102 5,27.7188 12.06599,-0.038 23.98899,-3.8598 36.09375,-1.8122 320.843753,0.042 641.68758,0.1402 962.53125,-0.1566 4.8107,-22.9038 16.00308,-43.8659 23.5625,-65.8437 -51.43715,14.888 -104.66611,22.4975 -156.18263,37.1634 -27.59074,5.8096 -57.04577,11.3373 -84.69237,3.3053 -8.94729,-4.2791 -16.01517,-12.6903 -19.4375,-21.5624 -3.10031,19.3206 -26.58783,30.8121 -44.0625,22.6874 -11.35094,-4.1153 -19.94221,-13.7884 -25.375,-24.125 -8.24246,-2.6958 -14.60578,-9.7515 -18.65625,-16.8124 -5.34145,16.1875 -27.13319,23.7816 -41.34375,14.0312 -19.91323,-10.9161 -31.76902,-34.6884 -28.46163,-57.2775 -1.33742,-16.3455 1.54077,-32.8028 4.27413,-48.66 -7.34804,1.4707 -14.70514,-2.5773 -20.75,-5.8125 -17.05792,5.6248 -37.568,-9.5438 -35.03125,-27.9062 0.392756,-7.0473 -1.927018,-14.2484 -7.40625,-18.9063 -6.096397,-8.7773 -10.052804,-19.0098 -10.96875,-29.6563 -7.846137,3.8362 -17.680672,2.153 -24.5625,-2.875 l -0.07479,0.9972 -0.01896,0.2528 z m 161.75,150.5626 c 1.34707,3.356 1.176,-1.9507 0,0 z M -189.25,1286.875 c -3.1621,1.1682 -10.68106,0.049 -7.84375,5.1875 0.86497,3.4397 0.85823,8.5357 0.78125,11.0937 1.38698,-6.0246 5.7454,-10.6697 7.84375,-16.4062 l -0.78125,0.125 z m 494.625,1.8438 c 1.01046,2.1446 1.68636,5.6411 2.1875,1.4687 1.81243,-2.0377 -2.53318,-2.471 -2.1875,-1.4687 z"
           style="fill:#ff0000" />
      </g>
    </g>
    <g
       id="g6200"
       transform="translate(115.17686,-57.872318)"
       inkscape:export-filename="/home/luca/Projects/flappy/UserClient/army-sm1.png"
       inkscape:export-xdpi="22.5"
       inkscape:export-ydpi="22.5">
      <path
         inkscape:connector-curvature="0"
         id="path6185"
         d="m -44.181203,948.20837 c -0.35934,-0.1642 -0.65459,-0.3858 -0.65612,-0.4924 -0.002,-0.1067 0.96505,-2.0479 2.14794,-4.3139 2.11148,-4.0447 2.15998,-4.1223 2.659,-4.2519 13.82062,-3.5897 40.78229993,-10.5094 40.94846993,-10.5094 0.15282997,0 0.27858997,-0.1942 0.38007997,-0.587 0.0834,-0.3229 0.18326,-0.6959 0.22187,-0.829 0.0832,-0.2868 0.13184,-0.3029 -2.15233997,0.7126 -0.87024003,0.3869 -1.69092003,0.7034 -1.82373003,0.7034 -0.24945,0 -0.35495,-0.27 -0.6893,-1.7641 -0.0923,-0.4126 -0.23429,-0.7754 -0.31545,-0.8063 -0.0811,-0.031 -1.25966,0.4105 -2.6189,0.9809 -1.35924,0.5703 -2.58394,1.037 -2.72157,1.037 -0.2648,0 -0.47217,-0.5295 -0.62746,-1.6022 -0.0593,-0.4093 -0.0297,-0.5873 0.10661,-0.6424 0.66009,-0.2671 10.13260003,-4.4073 10.17066003,-4.4454 0.10694,-0.107 -0.4522,-1.8741 -0.59298,-1.8741 -0.0842,0 -0.92169,0.3108 -1.86103003,0.6907 -1.86506,0.7542 -2.15537,0.8118 -2.26349,0.4489 -0.18541,-0.6222 -0.9135,-3.9509 -0.9135,-4.1763 0,-0.1901 0.27012,-0.3567 1.07051,-0.6603 0.58878,-0.2234 3.83655003,-1.4518 7.21728,-2.7298 3.38073,-1.278 6.19023,-2.3594 6.24333,-2.4031 0.0531,-0.044 -0.24215,-0.5444 -0.65612,-1.1126 -0.41396,-0.5683 -0.75266,-1.1349 -0.75266,-1.2592 0,-0.1499 0.26766,-0.3226 0.79424,-0.5125 1.5465401,-0.5577 1.4177801,-0.5956 2.2415201,0.6591 0.40389,0.6152 0.78645,1.1508 0.85014,1.1901 0.0637,0.039 3.48881,-1.1706 7.61137,-2.6889 4.12257,-1.5182 7.66262,-2.8013 7.86677,-2.8513 0.41967,-0.1028 0.34844,-0.3106 0.78242,2.2829 0.20441,1.2216 0.28013,1.4438 0.48003,1.4091 0.13053,-0.023 4.50528,-1.6872 9.72166,-3.6988 5.21637,-2.0116 9.63094,-3.6942 9.81013,-3.7392 0.2094,-0.053 0.44369,-0.3144 0.65572,-0.7328 0.32191,-0.6353 0.38134,-0.6751 2.44965,-1.6411 1.90722,-0.8908 2.45732,-1.1006 2.45732,-0.9371 0,0.029 0.24863,1.2174 0.55252,2.6406 0.30388,1.4232 0.55106,2.6891 0.54928,2.8132 -0.002,0.1604 -0.61489,0.4754 -2.11781,1.089 -1.16301,0.4748 -2.25242,0.8633 -2.42089,0.8633 -0.16848,0 -0.48594,-0.093 -0.70547,-0.2064 -0.39036,-0.2019 -0.58856,-0.1272 -9.00611,3.3931 -4.73383,1.9797 -8.66281,3.6545 -8.73107,3.7216 -0.0732,0.072 -0.002,0.6934 0.17266,1.5157 0.32926,1.5463 0.36175,1.9357 0.1615,1.9357 -0.19425,0 -14.13686,5.7996 -14.28331,5.9414 -0.0703,0.068 0.29488,1.9548 0.86001,4.4438 1.14523,5.0439 1.25874,5.7436 1.26188,7.7789 0.003,2.229 -0.22925,3.7946 -0.83913,5.6456 -0.77127,2.3409 -1.54105,3.581 -3.29072,5.3012 -0.79205,0.7787 -1.54146,1.4158 -1.66536,1.4158 -0.12391,0 -0.53271,0.202 -0.90845,0.4489 l -0.68316,0.449 -2.48633,0 -2.4863401,0 -0.68316,-0.449 c -0.37574,-0.2469 -0.76981,-0.4489 -0.87572,-0.4489 -0.29741,0 -2.32293,-1.892 -3.0249,-2.8255 -0.82438,-1.0963 -1.89745,-3.2526 -2.1237,-4.2676 -0.0991,-0.4445 -0.2517,-0.8357 -0.33912997,-0.8692 -0.1168,-0.045 -36.07399993,6.1994 -38.33123993,6.6565 -0.19114,0.039 -1.49646,1.0629 -2.90073,2.2759 -2.79127,2.4111 -2.76792,2.3998 -3.89719,1.8838 z"
         style="fill:#000000" />
      <path
         sodipodi:nodetypes="cccccccccccccccc"
         inkscape:connector-curvature="0"
         id="path6187"
         d="m 28.308466,909.26007 c -1.708811,-1.68077 -2.090044,-3.5957 -4.874851,-1.52238 -4.032259,0.82765 -8.511805,4.41857 -12.187649,3.49113 -2.0921744,3.07303 -6.5161877,2.97143 -9.5312499,4.78125 -0.887496,0.25546 -5.599191,0.96936 -3.59375,2.09375 4.3263609,-2.55061 7.5304177,5.71518 1.827393,5.87199 -3.617256,0.98268 -0.757079,2.39094 1.110107,1.15926 4.6761036,0.29588 1.8996096,7.20653 -2.21441,5.97962 -12.5095921,3.5087 -25.5164251,6.1447 -37.7543401,10.0516 -2.015153,2.9068 -2.609911,3.6116 0.21875,1.25 13.246498,-2.8629 26.796908,-4.8392 40.1875001,-7.1875 2.7313341,4.0773 5.3096094,11.2248 11.6249999,8.6563 7.686159,-4.7712 5.28534,-14.67615 3.25,-21.84377 0.893735,-5.41507 7.766558,-5.14398 11.59375,-7.5625 2.689495,-0.1247 3.790848,-2.10793 1.65625,-4.21875 z"
         style="fill:#ff0000" />
    </g>
  </g>
</svg>
