<?xml version="1.0" encoding="UTF-8" standalone="no"?>
<!-- Created with Inkscape (http://www.inkscape.org/) -->

<svg
   xmlns:dc="http://purl.org/dc/elements/1.1/"
   xmlns:cc="http://creativecommons.org/ns#"
   xmlns:rdf="http://www.w3.org/1999/02/22-rdf-syntax-ns#"
   xmlns:svg="http://www.w3.org/2000/svg"
   xmlns="http://www.w3.org/2000/svg"
   xmlns:sodipodi="http://sodipodi.sourceforge.net/DTD/sodipodi-0.dtd"
   xmlns:inkscape="http://www.inkscape.org/namespaces/inkscape"
   width="744.09448819"
   height="1052.3622047"
   id="svg2"
   version="1.1"
   inkscape:version="0.48.1 r9760"
   sodipodi:docname="europe.svg">
  <defs
     id="defs4" />
  <sodipodi:namedview
     id="base"
     pagecolor="#ffffff"
     bordercolor="#666666"
     borderopacity="1.0"
     inkscape:pageopacity="0.0"
     inkscape:pageshadow="2"
     inkscape:zoom="1"
     inkscape:cx="535.49755"
     inkscape:cy="633.46781"
     inkscape:document-units="px"
     inkscape:current-layer="layer1"
     showgrid="false"
     inkscape:window-width="1908"
     inkscape:window-height="1025"
     inkscape:window-x="0"
     inkscape:window-y="25"
     inkscape:window-maximized="1" />
  <metadata
     id="metadata7">
    <rdf:RDF>
      <cc:Work
         rdf:about="">
        <dc:format>image/svg+xml</dc:format>
        <dc:type
           rdf:resource="http://purl.org/dc/dcmitype/StillImage" />
        <dc:title></dc:title>
      </cc:Work>
    </rdf:RDF>
  </metadata>
  <g
     inkscape:label="Layer 1"
     inkscape:groupmode="layer"
     id="layer1">
    <path
       style="fill:#00ffff;fill-opacity:1;stroke:#000000;stroke-width:0.02000000000000000;stroke-linecap:round;stroke-linejoin:round;stroke-miterlimit:4;stroke-opacity:1;stroke-dasharray:none"
       d="m 227.6413,249.59438 c -10.07943,6.90876 -20.37426,14.0202 -29.28125,22.34375 -14.29575,32.30504 -27.47793,65.41344 -41.1875,98.09375 -6.63367,1.11238 -14.00715,0.88871 -20.15625,3.09375 -0.76539,21.05565 -0.19343,42.30365 -1.75118,63.24033 -5.9513,19.58447 -9.83774,39.84157 -17.31132,58.85342 -4.29052,3.41688 -14.13426,1.40733 -14.65625,8.65625 1.37274,17.99038 7.87697,35.20155 11.66459,52.78359 3.38524,11.93832 5.59621,24.68809 9.71041,36.12266 4.84583,-1.61967 14.06507,2.57439 15.39316,-3.86396 2.68734,-4.49899 1.69103,-13.80181 6.69966,-15.22807 5.74945,-0.45845 11.88741,0.18793 17.40718,-0.90797 7.08202,-21.70565 13.4858,-43.75524 21.1875,-65.1875 5.04051,-2.87062 12.33636,-2.88812 16.1362,-6.80904 2.40239,-10.54616 6.60073,-21.14583 7.8638,-31.72221 -7.23174,-5.47767 -14.94872,-10.7329 -21.78125,-16.5 0.94602,-13.97648 3.58487,-27.78076 5.4375,-41.65625 15.66006,-15.84914 31.6165,-31.49328 47.09375,-47.46875 2.58946,-13.10997 4.12685,-27.12642 7.5,-39.6875 5.25122,0.0805 10.62938,2.45528 15.78125,1.4375 0.29857,-16.33093 -0.83731,-32.9585 -2.625,-49.25 -3.12111,-7.39623 -11.93839,-10.5876 -17.53168,-15.92647 -5.15087,-3.23272 -9.92499,-8.52452 -15.59332,-10.41728 z"
       id="Sweden"
       inkscape:connector-curvature="0"
       inkscape:label="#path4206" />
    <path
       style="fill:#241c1c;fill-opacity:1;stroke:#000000;stroke-width:0.02000000000000000;stroke-linecap:round;stroke-linejoin:round;stroke-miterlimit:4;stroke-opacity:1;stroke-dasharray:none"
       d="m 330.7038,215.21938 c -7.60296,-0.72544 -8.12089,8.83007 -11.28125,13.5 -2.42408,5.10622 -4.84754,11.88484 -7.53125,15.84375 -0.94427,-3.45856 -3.0141,1.97996 -2.71875,3.4375 -0.36764,5.82323 -4.7256,12.86049 1.02877,17.23552 4.15146,6.62756 12.43777,11.85631 10.49194,20.57695 -0.81068,21.20216 8.00172,41.1248 12.4396,61.52149 2.68912,11.8579 11.71024,20.99984 17.24844,31.63121 2.69458,5.96481 10.04639,11.17164 6.25057,18.18543 -2.7642,15.67784 -8.62382,30.28044 -16.49057,44.06815 -1.9833,5.35457 -6.46088,10.59854 -6.84375,16.15625 4.6321,3.5431 12.33712,5.33698 15.6875,9.25 -7.98637,5.50306 -16.33362,11.78628 -24.99905,15.86254 -10.08339,-0.004 -20.5401,-1.73767 -30.40911,-0.72564 -5.10992,3.66169 -12.40831,5.13624 -16.27934,10.14435 1.71256,3.9812 8.1245,3.16789 11.53125,5 9.39923,3.53186 21.16877,3.46607 27.28125,12.375 11.49474,12.51927 22.13007,26.01398 33.6875,38.4375 7.75284,-0.3104 15.64112,-0.0616 23.3125,-0.75 8.64279,-10.823 16.66652,-22.50245 25.78125,-32.75 10.92789,2.53902 20.48701,10.80722 31.9375,11.40625 4.39914,-13.49237 6.80494,-28.13052 10.31852,-42.0752 1.24487,-5.54374 2.5652,-11.0719 3.68148,-16.64355 15.58377,-0.42399 31.2315,-0.0102 46.78125,-0.34375 12.05403,-8.63868 23.62731,-18.29676 35.94256,-26.35236 34.83753,-8.24337 69.86074,-16.03797 104.52619,-24.80389 0.3611,-4.37649 -3.8477,-8.81626 -5.1411,-13.14947 -11.4031,-22.53562 -20.58056,-46.39317 -36.17,-66.49488 -6.44833,-6.47713 -3.16252,-16.24192 -4.59515,-24.4494 -0.63458,-7.3909 -0.50901,-15.15901 -2.1875,-22.28125 -21.50069,-7.6439 -43.00069,-15.28972 -64.5,-22.9375 -6.75138,-7.3014 -13.14904,-15.11074 -20.125,-22.09375 -8.25489,0.77445 -17.47654,0.0472 -24.6875,-3.9375 -2.62072,-6.21991 2.10286,-13.02969 1.5625,-19.0625 -7.95061,-3.36193 -16.27955,-8.08226 -25.09375,-4.5625 -2.42827,-0.31448 -5.51605,2.20435 -2.65625,4.15625 8.03127,6.6064 7.94182,17.60406 8.6875,27 3.64035,3.80288 8.47246,7.2211 12.0625,10.65625 0.63908,6.77586 0.71717,15.1702 -1,21.03125 -4.22229,-5.89084 -14.69357,-6.7492 -18.90625,-0.25 -7.01237,6.30827 -12.53089,14.14818 -14,23.625 -2.60515,5.66809 5.51095,8.03515 8.33269,11.66906 7.48962,6.52571 15.7803,11.91948 23.66731,17.89344 -22.11343,1.28936 -43.29895,-6.48777 -64.125,-12.5625 -4.87427,0.009 -0.79249,6.49981 0.13986,8.62576 2.19873,7.82025 9.85708,10.72852 15.95512,14.73673 2.78803,1.4436 9.28755,6.47361 4.18627,8.98126 -6.88835,2.38856 -14.10254,0.24364 -19.65625,-3.9375 -5.76117,-2.47245 -12.88588,-1.06196 -17.625,-6.0625 -7.58855,-8.03905 -5.28827,-20.42583 -6.90625,-30.5 -3.24113,-8.99013 -14.0641,-9.53139 -21.6875,-12.40625 -7.11401,-3.17963 -11.93862,-9.81342 -16.4375,-16.09375 4.40411,-1.20794 11.54459,-4.7904 14,1.25 4.31307,6.90607 13.94712,5.99067 20.84375,8.40625 16.11017,2.83857 34.56222,6.27865 49.40625,-2.5 5.08712,-4.0179 9.78352,-9.7754 11.46113,-15.86617 -1.76326,-9.50346 -1.31437,-21.48324 -8.96113,-28.44633 -9.0144,-2.68241 -19.105,-0.27731 -27.95358,-4.11363 -12.42366,-3.63674 -23.61567,-11.40088 -36.45267,-13.41762 -7.78907,-1.1567 -14.43897,3.60306 -18.6875,9.59375 -1.3893,2.15244 -8.17665,2.59555 -4.62862,-1.07275 1.41648,-3.51107 8.64922,-11.06869 0.25362,-9.3335 -2.66741,0.17485 -11.05707,0.0769 -8.75,-4.3125 2.69385,-1.01561 7.61845,-1.5874 7.6875,-5.25 -1.79054,-2.83484 -5.76114,-2.70134 -8.6875,-2.71875 z"
       id="Saint_Petersburg"
       inkscape:connector-curvature="0"
       inkscape:label="#path4212" />
    <path
       style="fill:#ff8080;fill-opacity:1;stroke:#000000;stroke-width:0.02000000000000000;stroke-linecap:round;stroke-linejoin:round;stroke-miterlimit:4;stroke-opacity:1;stroke-dasharray:none"
       d="m 300.4538,220.71938 c -7.26773,1.61109 -15.2602,2.16149 -21.96875,5.25 -1.13142,4.5619 1.28447,9.68211 0.93523,14.46281 3.63457,9.09816 -6.09809,5.22045 -11.51553,5.5316 -9.46799,0.27641 -18.6775,-1.36374 -26.62901,-6.70674 -5.51668,-5.70829 -7.9415,1.94639 -10.60319,6.02483 -3.7436,4.43574 4.49536,6.78214 6.43895,9.68489 7.63106,6.88205 17.72593,11.6911 23.68605,20.06511 1.70215,16.94864 2.19846,34.00051 3.25,51 3.88755,2.34165 12.53033,-0.49156 13.0625,6.28125 1.65934,5.94124 5.12274,12.27858 5.25,18.1875 -13.20595,16.94025 -27.89813,32.74344 -41.46875,49.3125 0.49953,20.22631 0.51693,40.55621 1.3125,60.71875 6.93189,5.58042 13.03188,12.7921 20.71875,17.15625 22.89972,-6.8744 46.06356,-14.24385 68.71875,-21.5 10.54621,-17.93882 20.30328,-36.74617 24.58645,-57.25036 3.41194,-5.8226 0.23839,-10.7195 -3.29083,-15.45997 -9.05121,-14.75379 -19.65568,-29.09611 -22.57687,-46.53967 -4.24515,-17.33345 -10.83968,-34.51339 -9.62758,-52.65413 0.15025,-10.2059 -11.16334,-15.21232 -13.40367,-24.31462 -0.38643,-8.22803 5.44743,-16.88214 0.32575,-24.4084 -2.58023,-4.60432 -3.81012,-11.26197 -7.20075,-14.8416 z"
       id="Finland"
       inkscape:connector-curvature="0"
       inkscape:label="#path4214" />
    <path
       style="fill:#ff0000;fill-opacity:1;stroke:#000000;stroke-width:0.02000000000000000;stroke-linecap:round;stroke-linejoin:round;stroke-miterlimit:4;stroke-opacity:1;stroke-dasharray:none"
       d="m 557.04755,161.68813 c -4.98645,5.66272 -10.3143,11.10557 -15.125,16.875 -0.65847,17.51315 -0.78987,35.06576 -2.34375,52.53125 -6.21303,-2.42171 -12.24332,-7.99374 -10.96875,-15.4375 -0.0832,-14.52157 0.32808,-29.04146 0.4375,-43.5625 -6.66215,-3.13783 -10.43368,5.63533 -11.6875,10.8125 -0.61894,5.35298 -3.73037,9.59955 -7.6875,13 -5.45598,8.04065 -9.49666,17.11626 -13.59375,25.875 2.80969,6.80002 3.83743,14.19513 3.28125,21.5 7.35127,7.58892 13.76115,16.53862 21.66148,23.33354 21.14173,7.65576 42.62766,14.62747 63.40102,23.13521 2.02954,13.68246 1.20335,27.98527 3.50412,41.41773 12.25834,16.18292 21.73284,33.95101 30.12863,52.4022 6.5655,14.71566 15.6695,28.52011 18.0293,44.73339 3.3349,15.42283 8.1763,30.92094 10.5714,46.29725 -5.0275,15.36341 -11.2803,30.5522 -15.5685,46.02189 0.2976,8.93204 1.9671,18.13084 1.4022,26.90401 -8.1625,17.46049 -17.0968,34.68157 -24.75034,52.30567 -1.91937,12.48284 -3.83737,24.96589 -5.75431,37.44911 -5.64892,5.66493 -12.60169,10.66528 -17.4375,16.75 15.81956,22.45209 32.79395,44.29991 51.80485,64.12273 22.0397,12.48697 43.7923,25.53022 66.1326,37.43977 2.3838,-2.50538 0.3417,-8.1854 1.1398,-11.71849 0.4637,-162.81205 -0.9674,-325.62461 -0.7335,-488.43776 0,-31.11459 0,-62.22917 0,-93.34375 -13.0396,-1.38486 -27.1443,-0.19834 -40.5938,-0.59375 -35.0701,0.12481 -70.24422,-0.2502 -105.24995,0.1875 z"
       id="Siberia"
       inkscape:connector-curvature="0"
       inkscape:label="#path4222" />
    <path
       style="fill:#ff0000;fill-opacity:1;stroke:#000000;stroke-width:0.02000000000000000;stroke-linecap:round;stroke-linejoin:round;stroke-miterlimit:4;stroke-opacity:1;stroke-dasharray:none"
       d="m 291.5788,191.59438 c -6.70936,2.53832 -4.61637,12.1484 -8.5625,16.40625 -2.08813,-3.89667 -3.36628,-10.59059 -8.78125,-11 -2.95237,2.43785 0.4805,7.38762 -1.1875,10.65625 -1.2393,5.03191 -1.24201,12.52887 -6.65625,14.84375 -0.89503,-2.80611 1.80994,-7.41615 2.0625,-10.625 1.53821,-3.74166 2.43738,-11.90515 -3.90625,-10.84375 -5.02535,1.21271 -4.34586,7.4317 -4.28125,11.1875 -5.79346,0.52561 -7.15225,6.81308 -11.09375,9.9375 -4.27283,1.83615 -3.32016,-6.97151 -8.125,-5.65625 -5.02066,-0.76401 -2.08425,4.91935 -2.84375,7.625 -3.84253,4.83516 -13.73089,-2.30571 -15.64366,4.6248 -2.43323,3.34997 -2.67862,8.76379 -5.45009,11.53145 -5.24748,0.64486 -9.3713,-2.47925 -12.8125,-5.96875 -2.66419,-2.26686 -6.1512,0.28412 -4.6875,3.625 0.62495,6.04092 -8.21191,8.81456 -7.625,14.59375 2.5815,3.62456 8.73465,3.51716 10.6875,7.40625 -1.84476,4.15057 -8.44453,1.46477 -11.96875,1.78125 -3.47752,-1.34994 -7.96265,0.80248 -6.40625,4.9375 3.6419,5.37709 -3.05721,9.97091 -6.90625,12.6875 -3.33168,1.34706 -5.995,8.69004 -1.09375,9.3125 1.75159,-0.29116 5.95017,-0.0309 3.71875,2.65625 -1.54805,4.2072 -5.95847,4.90628 -9.90625,3.625 -6.238,-1.48811 -7.42478,7.32522 -13.28125,7.65625 -4.74549,1.85964 -4.80269,9.40931 0.59375,10.5625 3.54164,0.18013 8.4934,3.8866 4.1875,6.96875 -3.23943,0.58129 -9.10545,-2.77027 -6.625,3.3125 1.4192,5.66183 -6.5287,5.88122 -10.34375,6.34375 -5.02976,1.35144 -0.84909,6.37384 0.875,8.65625 -1.88792,6.10312 -9.83783,3.84224 -14.25,6.46875 -2.73099,1.52816 -0.72047,5.08082 1.78125,4.9375 -1.18588,3.40709 -0.81726,7.52741 -2.125,10.71875 -2.03159,1.8815 -4.25883,0.0566 -3.90625,-2.59375 -0.79619,-8.10402 -8.01204,3.36943 -11.49068,4.69821 -3.06038,3.4706 -9.68334,6.0924 -9.38432,11.42679 2.44776,4.10175 6.35893,-1.95435 8.4375,-3.5625 3.32464,-2.52752 9.18672,-2.70637 12.75,-0.6875 -0.34091,4.09597 -6.33697,6.71435 -4.90625,11.4375 -2.87295,4.27905 -9.74106,2.09831 -14.0625,2.125 -4.61184,0.0105 -3.16612,-6.34155 -6.42507,-8.44667 -3.41053,-4.7321 -1.39571,1.81108 -2.29368,3.94667 -3.47989,1.50917 -7.67128,3.13697 -7.96875,7.71875 0.57389,4.15394 -4.14952,3.21231 -4.8125,0.25 -0.76256,-4.9204 -6.05883,-2.92813 -8.6875,-0.875 -4.04885,0.98517 -5.46034,5.32842 -1.90625,7.90625 0.0115,2.71325 -5.58653,1.9844 -5.46875,-0.84375 -1.79288,-3.64138 -6.6212,0.0256 -4.4375,3.125 2.33896,2.76977 0.88908,5.94389 -2.625,6.21875 -4.20837,-0.79147 -6.37385,6.42286 -10.5,3.03125 -1.70359,-1.23813 -5.81128,-5.93328 -6.78125,-1.53125 -4.91433,22.4426 -10.95883,44.79521 -13.56544,67.65411 -0.21859,8.20973 -0.40298,16.55729 0.0342,24.68964 7.78796,5.14571 14.55551,12.85839 23.40625,15.9375 15.782,-9.13753 31.2792,-19.17349 47.03125,-28.28125 0.99219,5.07251 -0.68098,11.02755 1.09375,15.5 5.06032,-2.27639 14.13684,-1.42392 15.02251,-8.66096 5.81061,-18.59258 12.05308,-37.18753 15.47749,-56.37029 1.98956,-19.95279 1.22708,-40.11587 2.375,-60.0625 2.33386,-4.69561 9.43874,-2.12289 13.625,-3.53125 3.26655,-0.1276 6.89816,-0.66539 7.25626,-4.59845 14.0945,-31.34059 26.07132,-63.97903 40.43124,-95.0578 12.60904,-11.27603 28.66848,-19.39273 37.5,-34.3125 8.5678,3.71542 17.21727,9.3879 27.21375,8.73513 5.09541,-0.2408 11.12362,1.67648 15.84875,-0.23513 1.04673,-6.5068 -1.82478,-13.62369 -0.59375,-19.84375 7.39969,-2.05052 15.10201,-3.78395 22.65625,-4.6875 3.46291,7.54584 6.64542,15.23066 9.96875,22.84375 3.94806,-2.7964 5.12815,-9.99304 7.99586,-14.48888 0.26748,-2.61474 5.02488,-6.93541 2.72289,-8.85487 -4.74343,1.12747 -9.97609,4.91779 -14.90625,3.4375 -0.5784,-2.23408 -4.03448,-7.00405 -0.15625,-7.21875 4.61005,-0.83028 10.42115,-2.10322 10.59375,-7.90625 1.39479,-4.90859 -4.80152,-7.97529 -8.46875,-9.6875 -4.31565,-1.4375 -11.8654,2.07254 -12.90625,-4.1875 -0.77869,-1.73692 -2.40721,-3.61328 -4.53125,-3.125 z"
       id="Norway"
       inkscape:connector-curvature="0"
       inkscape:label="#path4224" />
    <path
       style="fill:#00ff00;fill-opacity:1;stroke:#000000;stroke-width:0.02000000000000000;stroke-linecap:round;stroke-linejoin:round;stroke-miterlimit:4;stroke-opacity:1;stroke-dasharray:none"
       d="m 631.4225,416.87563 c -32.96988,6.17196 -65.65421,14.30763 -98.11139,22.6088 -12.65626,2.74263 -21.32505,13.38147 -31.9137,20.07642 -4.9671,3.70341 -9.51539,8.66703 -16.28736,6.93978 -13.39153,0.22863 -26.95353,-0.49934 -40.25,0.5625 -4.50413,19.35007 -8.665,39.10171 -13.25,58.28125 -11.67321,0.27076 -21.68536,-8.32027 -32.75,-10.71875 -8.98685,10.59517 -17.41651,21.85359 -25.96875,32.875 -7.54487,0.35769 -15.60615,-0.69959 -22.84375,0.5 -4.81976,26.49665 -8.76466,53.32739 -14.28125,79.59375 -11.69503,12.01539 -25.86807,21.64667 -37.65625,33.5625 1.59023,10.46109 2.11421,21.28518 4.03125,31.59375 3.92131,1.47928 8.73177,-1.8943 12.91353,-1.76962 48.55024,-8.80376 96.89385,-18.91564 145.69634,-26.22593 9.08899,-1.25574 18.55901,-0.63001 27.48388,-1.94195 4.76298,-10.80219 8.59175,-22.7967 14.21875,-32.75 16.06947,6.39471 31.33271,15.30742 47.34375,21.59375 12.07421,-0.74873 24.69712,1.64938 36.4375,-1.6875 6.15493,-3.15638 10.71036,-8.77309 15.8125,-13.28125 2.4712,-13.36069 3.40312,-27.20594 6.83442,-40.27169 8.05223,-16.88086 16.29243,-33.70106 24.19683,-50.63456 -0.234,-9.3607 -2.7244,-19.01317 -1.5565,-28.19969 4.9744,-15.07438 11.2492,-29.87326 14.8065,-45.33156 -4.4313,-18.41834 -8.2315,-37.36436 -13.7188,-55.3125 -0.3746,-0.15926 -0.7958,-0.0873 -1.1875,-0.0625 z"
       id="Moscow"
       inkscape:connector-curvature="0"
       inkscape:label="#path4228" />
  </g>
</svg>
